<?xml version="1.0" encoding="UTF-8" standalone="no"?>
<!-- Created with Inkscape (http://www.inkscape.org/) -->

<svg
   xmlns:dc="http://purl.org/dc/elements/1.1/"
   xmlns:cc="http://creativecommons.org/ns#"
   xmlns:rdf="http://www.w3.org/1999/02/22-rdf-syntax-ns#"
   xmlns:svg="http://www.w3.org/2000/svg"
   xmlns="http://www.w3.org/2000/svg"
   version="1.1"
   width="714.77319"
   height="429.24847"
   id="svg2">
  <defs
     id="defs4" />
  <metadata
     id="metadata7">
    <rdf:RDF>
      <cc:Work
         rdf:about="">
        <dc:format>image/svg+xml</dc:format>
        <dc:type
           rdf:resource="http://purl.org/dc/dcmitype/StillImage" />
        <dc:title></dc:title>
      </cc:Work>
    </rdf:RDF>
  </metadata>
  <g
     transform="translate(45.530395,-165.50956)"
     id="layer1">
    <path
       d="m 318.19805,403.84424 a 82.832512,83.842659 0 1 1 -165.66502,0 82.832512,83.842659 0 1 1 165.66502,0 z"
       transform="matrix(1.8219973,0,0,1.7657948,-322.44516,-398.54756)"
       id="yuno-verde"
       style="fill:#ffeeaa;fill-opacity:1;stroke:#8da709;stroke-width:1.11502862;stroke-miterlimit:4;stroke-opacity:1;stroke-dasharray:none" />
    <path
       d="m 318.19805,403.84424 a 82.832512,83.842659 0 1 1 -165.66502,0 82.832512,83.842659 0 1 1 165.66502,0 z"
       transform="matrix(2.4622831,0,0,2.3083557,-115.25087,-531.99678)"
       id="yuno-rojo"
       style="fill:#ffeeaa;fill-opacity:1;stroke:#c24444;stroke-width:0.83889896;stroke-miterlimit:4;stroke-opacity:1;stroke-dasharray:none" />
    <text
       x="40.714287"
       y="361.64789"
       id="text3802"
       xml:space="preserve"
       style="font-size:12px;font-style:normal;font-weight:normal;line-height:125%;letter-spacing:0px;word-spacing:0px;fill:#000000;fill-opacity:1;stroke:none;font-family:Sans"><tspan
         x="40.714287"
         y="361.64789"
         id="tspan3804" /></text>
    <path
       d="m 183.57143,359.50504 a 44.285713,44.285713 0 1 1 -88.571422,0 44.285713,44.285713 0 1 1 88.571422,0 z"
       transform="matrix(2.3695887,0,0,2.3695887,116.02155,-495.58832)"
       id="gobj"
       style="fill:#c8b7b7;fill-opacity:1;stroke:#137373;stroke-width:0.42201418;stroke-miterlimit:4;stroke-opacity:1;stroke-dasharray:none" />
    <rect
       width="67.818069"
       height="32.712246"
       x="399.72769"
       y="288.81052"
       id="state"
       style="fill:#eeeeef;fill-opacity:1;stroke:#137373;stroke-width:0.5;stroke-miterlimit:4;stroke-opacity:1;stroke-dasharray:none" />
    <rect
       width="67.818069"
       height="32.712246"
       x="387.36084"
       y="368.19754"
       id="rect3842-0"
       style="fill:#eeeeef;fill-opacity:1;stroke:#137373;stroke-width:0.5;stroke-miterlimit:4;stroke-opacity:1;stroke-dasharray:none" />
    <path
       d="m 416.48273,322.71954 c 3.59037,45.87693 3.59037,45.87693 3.59037,45.87693"
       id="flecha"
       style="fill:none;stroke:#137373;stroke-width:1.5;stroke-linecap:butt;stroke-linejoin:miter;stroke-miterlimit:4;stroke-opacity:1;stroke-dasharray:none" />
  </g>
</svg>
