<?xml version="1.0" encoding="UTF-8" standalone="no"?>
<!-- Created with Inkscape (http://www.inkscape.org/) -->

<svg
   xmlns:dc="http://purl.org/dc/elements/1.1/"
   xmlns:cc="http://creativecommons.org/ns#"
   xmlns:rdf="http://www.w3.org/1999/02/22-rdf-syntax-ns#"
   xmlns:svg="http://www.w3.org/2000/svg"
   xmlns="http://www.w3.org/2000/svg"
   xmlns:sodipodi="http://sodipodi.sourceforge.net/DTD/sodipodi-0.dtd"
   xmlns:inkscape="http://www.inkscape.org/namespaces/inkscape"
   width="543.06396"
   height="490.2337"
   id="svg2"
   version="1.1"
   inkscape:version="0.48.4 r9939"
   sodipodi:docname="gossamer.svg"
   inkscape:export-filename="/home/gines/midesarrollo/hg-projects/yuneta-mine/design/ideas/gossamer.png"
   inkscape:export-xdpi="90"
   inkscape:export-ydpi="90">
  <defs
     id="defs4">
    <marker
       inkscape:stockid="DotL"
       orient="auto"
       refY="0.0"
       refX="0.0"
       id="DotL"
       style="overflow:visible">
      <path
         id="path3856"
         d="M -2.5,-1.0 C -2.5,1.7600000 -4.7400000,4.0 -7.5,4.0 C -10.260000,4.0 -12.5,1.7600000 -12.5,-1.0 C -12.5,-3.7600000 -10.260000,-6.0 -7.5,-6.0 C -4.7400000,-6.0 -2.5,-3.7600000 -2.5,-1.0 z "
         style="fill-rule:evenodd;stroke:#000000;stroke-width:1.0pt"
         transform="scale(0.8) translate(7.4, 1)" />
    </marker>
    <marker
       inkscape:stockid="DotM"
       orient="auto"
       refY="0.0"
       refX="0.0"
       id="DotM"
       style="overflow:visible">
      <path
         id="path3859"
         d="M -2.5,-1.0 C -2.5,1.7600000 -4.7400000,4.0 -7.5,4.0 C -10.260000,4.0 -12.5,1.7600000 -12.5,-1.0 C -12.5,-3.7600000 -10.260000,-6.0 -7.5,-6.0 C -4.7400000,-6.0 -2.5,-3.7600000 -2.5,-1.0 z "
         style="fill-rule:evenodd;stroke:#000000;stroke-width:1.0pt"
         transform="scale(0.4) translate(7.4, 1)" />
    </marker>
  </defs>
  <sodipodi:namedview
     id="base"
     pagecolor="#ffffff"
     bordercolor="#666666"
     borderopacity="1.0"
     inkscape:pageopacity="0.0"
     inkscape:pageshadow="2"
     inkscape:zoom="1.1377643"
     inkscape:cx="268.62859"
     inkscape:cy="314.05258"
     inkscape:document-units="px"
     inkscape:current-layer="layer1"
     showgrid="false"
     fit-margin-top="0"
     fit-margin-left="0"
     fit-margin-right="0"
     fit-margin-bottom="0"
     inkscape:window-width="1366"
     inkscape:window-height="713"
     inkscape:window-x="-2"
     inkscape:window-y="-3"
     inkscape:window-maximized="1" />
  <metadata
     id="metadata7">
    <rdf:RDF>
      <cc:Work
         rdf:about="">
        <dc:format>image/svg+xml</dc:format>
        <dc:type
           rdf:resource="http://purl.org/dc/dcmitype/StillImage" />
        <dc:title />
      </cc:Work>
    </rdf:RDF>
  </metadata>
  <g
     inkscape:label="Layer 1"
     inkscape:groupmode="layer"
     id="layer1"
     transform="translate(-140.92857,-316.64789)">
    <path
       sodipodi:type="arc"
       style="fill:#808000;fill-rule:evenodd;stroke:#000000;stroke-width:1px;stroke-linecap:butt;stroke-linejoin:miter;stroke-opacity:1"
       id="path2985"
       sodipodi:cx="223.57143"
       sodipodi:cy="501.64789"
       sodipodi:rx="82.14286"
       sodipodi:ry="96.428574"
       d="m 305.71429,501.64789 c 0,53.25603 -36.77661,96.42857 -82.14286,96.42857 -45.36625,0 -82.14286,-43.17254 -82.14286,-96.42857 0,-53.25603 36.77661,-96.42858 82.14286,-96.42858 45.36625,0 82.14286,43.17255 82.14286,96.42858 z" />
    <path
       sodipodi:type="arc"
       style="fill:#808000"
       id="path2987"
       sodipodi:cx="429.28571"
       sodipodi:cy="396.64789"
       sodipodi:rx="56.42857"
       sodipodi:ry="80"
       d="m 485.71428,396.64789 c 0,44.18278 -25.26394,80 -56.42857,80 -31.16464,0 -56.42857,-35.81722 -56.42857,-80 0,-44.18278 25.26393,-80 56.42857,-80 31.16463,0 56.42857,35.81722 56.42857,80 z" />
    <path
       sodipodi:type="arc"
       style="fill:#808000"
       id="path2989"
       sodipodi:cx="605"
       sodipodi:cy="588.07648"
       sodipodi:rx="50.714287"
       sodipodi:ry="77.14286"
       d="m 655.71429,588.07648 c 0,42.60482 -22.70556,77.14286 -50.71429,77.14286 -28.00873,0 -50.71429,-34.53804 -50.71429,-77.14286 0,-42.60483 22.70556,-77.14286 50.71429,-77.14286 28.00873,0 50.71429,34.53803 50.71429,77.14286 z" />
    <path
       sodipodi:type="arc"
       style="fill:#808000"
       id="path2991"
       sodipodi:cx="430.71429"
       sodipodi:cy="693.07648"
       sodipodi:rx="70.714287"
       sodipodi:ry="96.428574"
       d="m 501.42858,693.07648 c 0,53.25603 -31.65986,96.42857 -70.71429,96.42857 -39.05442,0 -70.71428,-43.17254 -70.71428,-96.42857 0,-53.25603 31.65986,-96.42858 70.71428,-96.42858 39.05443,0 70.71429,43.17255 70.71429,96.42858 z" />
    <path
       style="fill:none;stroke:#000000;stroke-width:1.24362707px;stroke-linecap:butt;stroke-linejoin:miter;stroke-opacity:1;marker-start:url(#DotL);marker-end:url(#DotL)"
       d="m 299.37917,528.53139 c 78.81198,100.39568 78.81198,100.39568 78.81198,100.39568"
       id="path2995"
       inkscape:connector-curvature="0" />
    <path
       style="fill:none;stroke:#000000;stroke-width:0.9379459px;stroke-linecap:butt;stroke-linejoin:miter;stroke-opacity:1;marker-start:url(#DotL);marker-end:url(#DotL)"
       d="m 307.00224,517.66039 c 244.67423,33.57819 244.67423,33.57819 244.67423,33.57819"
       id="path2997"
       inkscape:connector-curvature="0" />
    <text
       xml:space="preserve"
       style="font-size:12px;font-style:normal;font-weight:normal;line-height:125%;letter-spacing:0px;word-spacing:0px;fill:#000000;fill-opacity:1;stroke:none;font-family:Sans"
       x="388.57144"
       y="532.36218"
       id="text2999"
       sodipodi:linespacing="125%"><tspan
         sodipodi:role="line"
         id="tspan3001"
         x="388.57144"
         y="532.36218">Gossamer</tspan></text>
    <text
       xml:space="preserve"
       style="font-size:12px;font-style:normal;font-weight:normal;line-height:125%;letter-spacing:0px;word-spacing:0px;fill:#000000;fill-opacity:1;stroke:none;font-family:Sans"
       x="825.71429"
       y="314.28574"
       id="text3003"
       sodipodi:linespacing="125%"
       transform="translate(140.92857,316.64789)"><tspan
         sodipodi:role="line"
         id="tspan3005"
         x="825.71429"
         y="314.28574" /></text>
    <path
       sodipodi:type="arc"
       style="fill:#ff2a2a"
       id="path3007"
       sodipodi:cx="147.21855"
       sodipodi:cy="199.51408"
       sodipodi:rx="15.381042"
       sodipodi:ry="10.547"
       d="m 162.59959,199.51408 c 0,5.82495 -6.88632,10.547 -15.38104,10.547 -8.49471,0 -15.38104,-4.72205 -15.38104,-10.547 0,-5.82494 6.88633,-10.547 15.38104,-10.547 8.49472,0 15.38104,4.72206 15.38104,10.547 z"
       transform="translate(140.92857,316.64789)" />
    <path
       sodipodi:type="arc"
       style="fill:#ff2a2a"
       id="path3007-8"
       sodipodi:cx="147.21855"
       sodipodi:cy="199.51408"
       sodipodi:rx="15.381042"
       sodipodi:ry="10.547"
       d="m 162.59959,199.51408 c 0,5.82495 -6.88632,10.547 -15.38104,10.547 -8.49471,0 -15.38104,-4.72205 -15.38104,-10.547 0,-5.82494 6.88633,-10.547 15.38104,-10.547 8.49472,0 15.38104,4.72206 15.38104,10.547 z"
       transform="translate(241.56452,443.2119)" />
    <path
       sodipodi:type="arc"
       style="fill:#ff2a2a"
       id="path3007-2"
       sodipodi:cx="147.21855"
       sodipodi:cy="199.51408"
       sodipodi:rx="15.381042"
       sodipodi:ry="10.547"
       d="m 162.59959,199.51408 c 0,5.82495 -6.88632,10.547 -15.38104,10.547 -8.49471,0 -15.38104,-4.72205 -15.38104,-10.547 0,-5.82494 6.88633,-10.547 15.38104,-10.547 8.49472,0 15.38104,4.72206 15.38104,10.547 z"
       transform="translate(420.86352,358.83589)" />
    <path
       sodipodi:type="arc"
       style="fill:#ff2a2a"
       id="path3007-16"
       sodipodi:cx="147.21855"
       sodipodi:cy="199.51408"
       sodipodi:rx="15.381042"
       sodipodi:ry="10.547"
       d="m 162.59959,199.51408 c 0,5.82495 -6.88632,10.547 -15.38104,10.547 -8.49471,0 -15.38104,-4.72205 -15.38104,-10.547 0,-5.82494 6.88633,-10.547 15.38104,-10.547 8.49472,0 15.38104,4.72206 15.38104,10.547 z"
       transform="translate(248.35369,221.48272)" />
    <path
       sodipodi:type="arc"
       style="fill:#ff2a2a"
       id="path3007-4"
       sodipodi:cx="147.21855"
       sodipodi:cy="199.51408"
       sodipodi:rx="15.381042"
       sodipodi:ry="10.547"
       d="m 162.59959,199.51408 c 0,5.82495 -6.88632,10.547 -15.38104,10.547 -8.49471,0 -15.38104,-4.72205 -15.38104,-10.547 0,-5.82494 6.88633,-10.547 15.38104,-10.547 8.49472,0 15.38104,4.72206 15.38104,10.547 z"
       transform="translate(422.62136,524.95115)" />
    <text
       xml:space="preserve"
       style="font-size:12px;font-style:normal;font-weight:normal;line-height:125%;letter-spacing:0px;word-spacing:0px;fill:#000000;fill-opacity:1;stroke:none;font-family:Sans"
       x="451.76318"
       y="410.4541"
       id="text3066"
       sodipodi:linespacing="125%"
       transform="translate(140.92857,316.64789)"><tspan
         sodipodi:role="line"
         id="tspan3068"
         x="451.76318"
         y="410.4541">Gotter GRouter</tspan></text>
    <path
       transform="matrix(0.60139272,0,0,0.35057825,209.36056,563.67015)"
       sodipodi:type="arc"
       style="fill:#808000"
       id="path2989-8"
       sodipodi:cx="605"
       sodipodi:cy="588.07648"
       sodipodi:rx="50.714287"
       sodipodi:ry="77.14286"
       d="m 655.71429,588.07648 c 0,42.60482 -22.70556,77.14286 -50.71429,77.14286 -28.00873,0 -50.71429,-34.53804 -50.71429,-77.14286 0,-42.60483 22.70556,-77.14286 50.71429,-77.14286 28.00873,0 50.71429,34.53803 50.71429,77.14286 z" />
    <text
       xml:space="preserve"
       style="font-size:12px;font-style:normal;font-weight:normal;line-height:125%;letter-spacing:0px;word-spacing:0px;fill:#000000;fill-opacity:1;stroke:none;font-family:Sans"
       x="611.21167"
       y="772.95807"
       id="text3088"
       sodipodi:linespacing="125%"><tspan
         sodipodi:role="line"
         id="tspan3090"
         x="611.21167"
         y="772.95807">Yuno</tspan></text>
    <text
       xml:space="preserve"
       style="font-size:12px;font-style:normal;font-weight:normal;line-height:125%;letter-spacing:0px;word-spacing:0px;fill:#000000;fill-opacity:1;stroke:none;font-family:Sans"
       x="321.77939"
       y="482.53491"
       id="text2999-0"
       sodipodi:linespacing="125%"><tspan
         sodipodi:role="line"
         id="tspan3001-4"
         x="321.77939"
         y="482.53491">Gossamer</tspan></text>
    <text
       xml:space="preserve"
       style="font-size:12px;font-style:normal;font-weight:normal;line-height:125%;letter-spacing:0px;word-spacing:0px;fill:#000000;fill-opacity:1;stroke:none;font-family:Sans"
       x="308.96313"
       y="582.73145"
       id="text2999-9"
       sodipodi:linespacing="125%"><tspan
         sodipodi:role="line"
         id="tspan3001-5"
         x="308.96313"
         y="582.73145">Gossamer</tspan></text>
    <text
       xml:space="preserve"
       style="font-size:12px;font-style:normal;font-weight:normal;line-height:125%;letter-spacing:0px;word-spacing:0px;fill:#000000;fill-opacity:1;stroke:none;font-family:Sans"
       x="240.8829"
       y="505.80777"
       id="text3047"
       sodipodi:linespacing="125%"><tspan
         sodipodi:role="line"
         id="tspan3049"
         x="240.8829"
         y="505.80777">Gotter</tspan></text>
    <text
       xml:space="preserve"
       style="font-size:12px;font-style:normal;font-weight:normal;line-height:125%;letter-spacing:0px;word-spacing:0px;fill:#000000;fill-opacity:1;stroke:none;font-family:Sans"
       x="389.71396"
       y="405.58484"
       id="text3047-0"
       sodipodi:linespacing="125%"><tspan
         sodipodi:role="line"
         id="tspan3049-3"
         x="389.71396"
         y="405.58484">Gotter</tspan></text>
    <text
       xml:space="preserve"
       style="font-size:12px;font-style:normal;font-weight:normal;line-height:125%;letter-spacing:0px;word-spacing:0px;fill:#000000;fill-opacity:1;stroke:none;font-family:Sans"
       x="585.16534"
       y="554.60608"
       id="text3047-8"
       sodipodi:linespacing="125%"><tspan
         sodipodi:role="line"
         id="tspan3049-5"
         x="585.16534"
         y="554.60608">Gotter</tspan></text>
    <text
       xml:space="preserve"
       style="font-size:12px;font-style:normal;font-weight:normal;line-height:125%;letter-spacing:0px;word-spacing:0px;fill:#000000;fill-opacity:1;stroke:none;font-family:Sans"
       x="401.22961"
       y="638.10315"
       id="text3047-3"
       sodipodi:linespacing="125%"><tspan
         sodipodi:role="line"
         id="tspan3049-2"
         x="401.22961"
         y="638.10315">Gotter</tspan></text>
    <text
       xml:space="preserve"
       style="font-size:12px;font-style:normal;font-weight:normal;line-height:125%;letter-spacing:0px;word-spacing:0px;fill:#000000;fill-opacity:1;stroke:none;font-family:Sans"
       x="514.46814"
       y="310.87625"
       id="text3090"
       sodipodi:linespacing="125%"><tspan
         sodipodi:role="line"
         x="514.46814"
         y="310.87625"
         id="tspan3112" /></text>
    <text
       xml:space="preserve"
       style="font-size:12px;font-style:normal;font-weight:normal;line-height:125%;letter-spacing:0px;word-spacing:0px;fill:#000000;fill-opacity:1;stroke:none;font-family:Sans"
       x="531.74457"
       y="212.04483"
       id="text3116"
       sodipodi:linespacing="125%"
       transform="translate(140.92857,301.27859)"><tspan
         sodipodi:role="line"
         x="531.74457"
         y="212.04483"
         id="tspan3124" /></text>
    <text
       xml:space="preserve"
       style="font-size:12px;font-style:normal;font-weight:normal;line-height:125%;letter-spacing:0px;word-spacing:0px;fill:#000000;fill-opacity:1;stroke:none;font-family:Sans"
       x="571.29584"
       y="358.82391"
       id="text3136"
       sodipodi:linespacing="125%"
       transform="translate(140.92857,301.27859)"><tspan
         sodipodi:role="line"
         x="571.29584"
         y="358.82391"
         id="tspan3142" /></text>
    <text
       xml:space="preserve"
       style="font-size:12px;font-style:normal;font-weight:normal;line-height:125%;letter-spacing:0px;word-spacing:0px;fill:#000000;fill-opacity:1;stroke:none;font-family:Sans"
       x="43.066917"
       y="579.91473"
       id="text3199"
       sodipodi:linespacing="125%"
       transform="translate(140.92857,301.27859)"><tspan
         sodipodi:role="line"
         x="43.066917"
         y="579.91473"
         id="tspan3223" /></text>
    <path
       style="fill:none;stroke:#000000;stroke-width:1px;stroke-linecap:butt;stroke-linejoin:miter;stroke-opacity:1;marker-start:url(#DotL);marker-end:url(#DotL)"
       d="m 161.72067,189.64421 c 77.34466,-72.95009 77.34466,-72.95009 77.34466,-72.95009"
       id="path4605"
       inkscape:connector-curvature="0"
       transform="translate(140.92857,316.64789)" />
    <path
       style="fill:none;stroke:#000000;stroke-width:1px;stroke-linecap:butt;stroke-linejoin:miter;stroke-opacity:1;marker-start:url(#DotL)"
       d="m 428.03241,386.52154 c 5.2735,0 5.2735,0 5.2735,0"
       id="path5711"
       inkscape:connector-curvature="0"
       transform="translate(140.92857,316.64789)" />
    <text
       xml:space="preserve"
       style="font-size:12px;font-style:normal;font-weight:normal;line-height:125%;letter-spacing:0px;word-spacing:0px;fill:#000000;fill-opacity:1;stroke:none;font-family:Sans"
       x="450.00534"
       y="386.52155"
       id="text5897"
       sodipodi:linespacing="125%"
       transform="translate(140.92857,316.64789)"><tspan
         sodipodi:role="line"
         id="tspan5899"
         x="450.00534"
         y="386.52155">EndPoint</tspan></text>
  </g>
</svg>
