<?xml version="1.0" encoding="UTF-8" standalone="no"?>
<svg
   xmlns:dc="http://purl.org/dc/elements/1.1/"
   xmlns:cc="http://creativecommons.org/ns#"
   xmlns:rdf="http://www.w3.org/1999/02/22-rdf-syntax-ns#"
   xmlns:svg="http://www.w3.org/2000/svg"
   xmlns="http://www.w3.org/2000/svg"
   xmlns:sodipodi="http://sodipodi.sourceforge.net/DTD/sodipodi-0.dtd"
   xmlns:inkscape="http://www.inkscape.org/namespaces/inkscape"
   width="1000"
   height="500"
   style="position: absolute; top: -100px; left: 0px;"
   id="svg2"
   version="1.1"
   inkscape:version="0.91 r13725"
   sodipodi:docname="svgsample.svg">
  <metadata
     id="metadata97">
    <rdf:RDF>
      <cc:Work
         rdf:about="">
        <dc:format>image/svg+xml</dc:format>
        <dc:type
           rdf:resource="http://purl.org/dc/dcmitype/StillImage" />
        <dc:title></dc:title>
      </cc:Work>
    </rdf:RDF>
  </metadata>
  <sodipodi:namedview
     pagecolor="#ffffff"
     bordercolor="#666666"
     borderopacity="1"
     objecttolerance="10"
     gridtolerance="10"
     guidetolerance="10"
     inkscape:pageopacity="0"
     inkscape:pageshadow="2"
     inkscape:window-width="1920"
     inkscape:window-height="1021"
     id="namedview95"
     showgrid="false"
     inkscape:zoom="1.668772"
     inkscape:cx="500"
     inkscape:cy="82.21195"
     inkscape:window-x="0"
     inkscape:window-y="0"
     inkscape:window-maximized="1"
     inkscape:current-layer="svg2" />
  <defs
     id="defs4">
    <marker
       class="link-marker"
       id="sf-to-ny-marker-primary"
       orient="auto"
       markerWidth="2"
       markerHeight="4"
       refX="1.5"
       refY="2">
      <path
         d="M 0,0 V4 L2,2 Z"
         style="fill: rgb(52, 152, 219);"
         id="path7" />
    </marker>
    <marker
       class="link-marker"
       id="sf-to-ny-marker-secondary"
       orient="auto"
       markerWidth="2"
       markerHeight="4"
       refX="1.5"
       refY="2">
      <path
         d="M 0,0 V4 L2,2 Z"
         style="fill: rgb(46, 204, 113);"
         id="path10" />
    </marker>
    <marker
       class="link-marker"
       id="sf-to-ny-marker-tertiary"
       orient="auto"
       markerWidth="2"
       markerHeight="4"
       refX="1.5"
       refY="2">
      <path
         d="M 0,0 V4 L2,2 Z"
         style="fill: rgb(231, 76, 60);"
         id="path13" />
    </marker>
    <marker
       class="link-marker"
       id="sf-to-ny-marker-quaternary"
       orient="auto"
       markerWidth="2"
       markerHeight="4"
       refX="1.5"
       refY="2">
      <path
         d="M 0,0 V4 L2,2 Z"
         style="fill: rgb(241, 196, 15);"
         id="path16" />
    </marker>
    <marker
       class="link-marker"
       id="sf-to-ny-marker-quinary"
       orient="auto"
       markerWidth="2"
       markerHeight="4"
       refX="1.5"
       refY="2">
      <path
         d="M 0,0 V4 L2,2 Z"
         style="fill: rgb(44, 62, 80);"
         id="path19" />
    </marker>
    <marker
       class="link-marker"
       id="sf-to-ny-marker-senary"
       orient="auto"
       markerWidth="2"
       markerHeight="4"
       refX="1.5"
       refY="2">
      <path
         d="M 0,0 V4 L2,2 Z"
         style="fill: rgb(155, 89, 182);"
         id="path22" />
    </marker>
    <marker
       class="link-marker"
       id="sf-to-ny-marker-eigen"
       orient="auto"
       markerWidth="2"
       markerHeight="4"
       refX="1.5"
       refY="2">
      <path
         d="M 0,0 V4 L2,2 Z"
         style="fill: rgb(203, 203, 203);"
         id="path25" />
    </marker>
    <marker
       class="link-marker"
       id="sf-to-ny-marker-difference"
       orient="auto"
       markerWidth="2"
       markerHeight="4"
       refX="1.5"
       refY="2">
      <path
         d="M 0,0 V4 L2,2 Z"
         style="fill: rgb(203, 203, 203);"
         id="path28" />
    </marker>
    <marker
       class="link-marker"
       id="sf-to-ny-marker-shy"
       orient="auto"
       markerWidth="2"
       markerHeight="4"
       refX="1.5"
       refY="2">
      <path
         d="M 0,0 V4 L2,2 Z"
         style="fill: rgba(0, 0, 0, 0.2);"
         id="path31" />
    </marker>
  </defs>
  <path
     inkscape:connector-curvature="0"
     id="path35"
     d="m 657.29066,249.67755 0,0 0,0 z m 7.21545,6.04199 -0.1726,0.0363 0.61452,1.3265 1.1791,1.07493 1.10631,1.97657 -1.61718,-1.6879 -0.69304,-0.64717 1.21568,1.60277 -0.88905,-0.0444 -2.08018,-1.48534 0.26144,0.71897 1.56254,1.19528 -0.78088,0.45141 -1.15384,-0.72459 0.97273,0.95028 -0.46593,0.13035 -1.80357,-0.62724 1.40724,0.80603 -1.45137,0.39281 0.67738,0.0414 -0.69916,0.78264 -1.53882,-0.31088 -0.40572,-0.77379 0.0159,-1.57848 -0.88594,-0.47908 -1.36836,-0.15477 1.30694,0.20154 0.72272,1.06809 -0.066,0.97785 0.90339,1.50349 -0.0181,0.69233 2.29412,-1.09319 0.35784,0.45771 1.44148,-0.96035 0.87244,-0.14036 0.78698,2.99387 -0.97023,0.11919 1.24382,0.0138 -0.25751,-2.24043 1.31508,-0.65391 0.58438,0.30212 0.67575,2.55583 -0.87738,0.61147 -0.37728,-0.48737 0.19279,0.61852 -0.84918,1.90195 -0.79763,0.9508 -0.85208,0.0601 -1.2625,-0.58292 -0.51751,0.69541 -1.21711,-1.17029 0.77647,-0.0817 -0.1746,-0.69497 -1.01936,0.82772 0.75798,1.12942 -3.42554,-0.28708 -1.04216,-0.5695 -0.0555,0.0951 1.30276,0.95389 2.93727,0.36641 0.20892,0.63289 0.80904,-0.58632 0.28644,0.94327 -1.19224,0.80339 0.88942,0.0108 -0.24388,0.82687 -1.43749,1.43037 -1.30708,-0.56116 -0.0233,-0.44019 -0.84217,-0.31273 -0.68865,0.78905 0.14889,-0.0372 0.53489,-0.38935 1.45043,1.24339 1.82077,0.18892 -0.0661,-0.74504 1.94616,-0.71757 -0.18822,0.64431 1.46969,-0.48779 -1.09997,1.72477 -0.28613,1.02124 -0.52298,0.13267 -0.56678,-0.82501 -0.3945,1.07625 -1.61646,0.24106 -1.56579,0.85043 -0.63941,-0.8204 0.46332,0.5164 -1.49999,2.17758 -1.25552,1.13916 -1.51256,1.82965 0.17592,-0.0471 0.0359,0.0287 -0.91116,1.64264 -0.29495,1.07195 -0.59005,-1.34507 0.44366,2.18221 -0.38054,0.97051 -1.18771,-0.044 -2.13898,0.5615 -1.0389,0.52122 -0.11465,-0.0762 -0.0392,-0.0306 0.10898,0.24275 -1.81335,1.48963 -1.25036,2.00295 -0.84317,2.16286 -0.0452,1.3222 -0.88702,-0.47125 0.93819,1.28945 -0.57406,0.43036 -1.19278,-0.23669 1.15827,0.38791 -1.03412,1.30899 -1.22309,0.24675 -1.27099,1.92823 -0.71338,0.95588 -0.42648,-0.11568 0.66771,-1.65154 -0.88605,1.23877 -0.35637,-0.77224 0.41904,1.53624 0.47156,-0.0357 -0.72329,1.49059 -2.01725,1.23807 -0.73391,0.4705 -0.80964,-0.97324 0.22376,0.96067 -1.45686,-0.35537 0.20279,0.6162 -1.68334,-0.17799 -0.38633,0.60797 -0.32002,-0.76098 0.20636,1.12875 0.0387,0.45174 0.053,0.0413 -0.0443,0.10902 -0.14683,0.24011 0.92557,0.734 -0.33105,1.50003 -0.93534,0.3924 -0.0386,0.57393 -1.37228,-0.22483 0.69298,0.28368 0.43046,1.14653 0.74681,0.41533 -0.39705,0.59108 -1.44941,-0.55415 -0.63854,0.54436 0.8126,0.26437 0.0466,1.28426 -1.47171,-0.61209 0.92868,0.62496 0.21198,0.55712 -1.16836,0.42172 1.13445,0.0976 0.29089,0.48217 -1.08806,0.46625 0.24573,1.86103 0.49587,0.33093 -1.64468,0.0888 0.0165,0.0256 0.25852,0.033 0.54419,0.38191 -0.45776,1.17334 0.43378,1.36767 -1.06314,-0.27911 1.1444,1.19205 -0.15394,2.27016 -0.88249,0.24713 1.55929,-0.0696 0.18063,1.8642 -0.5552,-0.42501 -0.90134,0.19766 1.25185,0.19112 0.23537,1.05472 -1.4754,0.4483 0.12026,0.76854 -0.74215,0.64102 0.40023,0.71656 -0.53697,0.83406 0.65326,-0.1093 -0.0703,0.81405 0.98739,0.63946 0.24218,1.23255 0.53176,0.60125 -0.68129,1.09621 -0.0124,2.42268 0.33179,0.64577 0.376,0.91264 0.88731,0.74572 0.0622,-1.12231 -0.4668,-0.43108 -1.04123,-0.7162 -0.24711,-1.52227 0.73089,-0.36162 -0.42088,-0.85411 0.77342,-0.72093 -0.75102,-1.221 0.18917,-0.82289 -1.1383,-0.75143 0.58147,-0.79022 -0.58518,0.0347 0.12683,-1.06311 -0.42265,-0.42376 0.301,-1.16325 1.50899,0.11726 0.24963,1.02128 1.62312,3.29234 0.0314,0.58993 1.08197,1.6558 -0.0436,0.007 -0.18163,0.14571 1.57044,2.13337 0.34415,0.73702 3.47171,5.16517 1.50572,1.08919 -1.08075,-1.15845 0.0598,-0.01 1.70826,1.80748 0.66953,1.23546 -0.45449,0.53402 -0.30681,-1.63735 -0.59173,2.10038 -0.23656,-0.0171 -0.36509,-2.03131 -0.60149,-0.23523 0.35194,-0.88486 -1.07721,-0.72558 -0.12272,0.0203 0.86195,2.29857 1.79667,3.39135 1.99741,3.03652 -0.0188,0.30278 1.3761,1.5738 0.35497,0.97312 1.58425,2.73964 -0.41249,0.38912 0.0333,0.21919 1.34104,0.62545 0.84149,1.44584 -0.20261,0.0331 -0.029,0.004 -0.11907,0.019 -0.0707,0.0119 0.60249,0.18156 0.83186,3.77835 0.17547,2.39216 0.17907,3.48989 0.0764,0.75033 -0.35401,1.49803 -0.7766,1.47097 -0.12419,1.61405 0.42887,0.94009 -0.85795,1.50602 -0.0526,0.008 -0.45092,0.31028 0.0166,0.0392 -0.70528,-0.21152 -1.14659,0.98601 -1.48496,0.0913 -0.32936,0.42569 -1.646,0.50042 -0.96644,-0.91667 0.1461,-1.25087 0.74158,0.7766 1.05387,0.36098 0.46692,-0.57547 -0.95717,-0.8114 -1.1568,0.10338 -1.08559,-1.37173 -0.89945,-1.72161 0.71446,-0.43883 -0.75813,-0.35482 -0.15515,0.76365 -0.57898,-0.9904 -1.65753,-0.7613 -0.72784,0.21669 -1.44444,-0.83485 -0.76799,-0.87328 -0.74804,-2.27889 -0.40866,-1.28769 -1.63366,-0.42564 -0.62121,-1.42835 0.082,-0.94379 -0.54745,-1.3628 0.89875,-0.69658 -1.18676,0.17267 -0.24001,0.47431 -1.03028,-0.67176 0.0101,0.0695 0.72566,0.52637 0.52612,1.3396 -1.45112,-0.29091 -0.60793,-0.92067 -0.98025,-1.00144 -1.55824,-3.1402 -1.23202,-0.7249 0.71394,-0.50263 0.27601,-1.34577 1.24305,-1.95802 -1.07996,-0.85057 0.29354,0.93519 -0.58248,-0.0852 -0.0768,-0.97224 -1.18151,-0.66941 -0.51504,0.91414 1.19258,0.5607 -0.14273,1.63802 -0.98314,-0.33328 -1.11362,-0.97344 0.29528,-1.33475 -0.16363,-1.84306 0.63733,-2.74903 -0.027,-2.65821 -0.52392,-0.30804 -0.26853,-1.76761 -0.70239,-0.8116 -0.0105,0.0168 -0.0545,-0.64066 -0.85364,-0.85046 -2.01615,0.0461 -0.61115,-1.42592 -0.57456,0.0316 -0.69636,-0.96497 -1.6127,-0.88846 -0.0575,-1.31469 -1.31481,-0.33917 -1.09528,-1.49148 -1.39984,-0.8849 -1.97575,-0.85985 -0.73334,0.0566 -2.43022,0.66051 0.1404,0.93485 -0.79948,0.0679 0.92048,0.60599 -1.57479,0.11019 -3.00749,2.15333 -1.32025,-0.29915 -10e-4,0.0171 0.55273,0.57831 -1.93148,0.43374 -0.8154,0.14559 -0.0277,-1.11596 -0.91094,-1.19639 -2.81518,-1.67255 0.55957,-0.1088 1.09354,0.80676 1.02262,-0.0718 -0.007,-0.066 -0.7997,0.11444 -0.45204,-0.85697 -0.61354,0.1345 -1.27695,-0.56663 0.0453,0.62111 -2.41652,-1.21623 -3.5932,-0.74793 -0.0164,-0.19326 2.54348,-0.18844 -1.42476,-0.82727 -1.15721,0.4501 -0.57449,-0.52572 -1.16444,1.23511 -1.71978,0.12118 -3.22314,0.874 1.97304,-1.23135 -0.75271,-0.45487 -0.36913,0.61119 -0.90212,-1.25629 -0.15322,0.37442 0.15786,1.12246 -0.73367,0.96577 -1.66077,0.50738 0.24897,-0.96652 0.69966,-0.35191 -0.85228,-0.468 0.40215,0.35145 -1.31287,1.89234 -2.38278,0.66513 -1.14321,0.0216 1.88559,-0.71021 -1.4969,-1.11153 -0.0734,-1.33734 -0.45961,-1.72 -0.72714,-0.24322 -0.0286,-0.22846 0.14184,-0.20782 -0.63702,2.96648 0.0725,1.24812 -2.51794,0.10953 -0.67163,0.75139 -0.60976,-0.64528 -1.76747,0.52003 -1.21703,-0.70112 -3.4448,1.50997 -0.48992,-0.67373 0.15579,0.69893 -1.61052,1.37591 -0.86947,0.29956 -0.84241,1.00232 -1.10221,0.67161 0.60816,0.67826 0.56956,-0.30252 0.25452,0.84384 0.87467,-0.0367 0.14951,-1.24129 1.1223,-0.7675 0.27684,1.22326 0.20832,0.36579 0.70978,0.2684 -0.75678,0.50892 0.59428,0.32453 -1.07685,-0.13356 0.2671,0.57496 -1.82124,0.12381 0.99828,0.92498 -0.10267,-0.0677 -0.0531,0.0101 -0.68053,0.13529 -0.0298,0.26312 -0.79216,0.2238 0.7066,0.95976 1.18605,0.56906 -0.32187,0.4458 1.68274,0.01 1.24957,0.83127 0.41351,-0.4829 1.09334,1.57798 -0.0959,0.91451 -0.76237,0.69876 -0.56478,-0.27556 -1.32627,1.41667 1.19144,-2.14942 -0.49346,-0.81269 -1.14238,0.40755 -0.52168,-1.39134 -1.00438,-0.57631 -1.61202,0.14623 -0.21103,-0.31636 -0.52546,-0.27754 -0.94542,-0.0588 -1.35739,-0.83024 0.0375,-1.02894 -0.54302,-0.29403 0.16986,1.11702 -0.53528,0.56721 1.63761,0.80586 0.0258,1.07029 -0.26265,0.2691 0.22926,0.92333 -0.19645,0.41949 -1.11679,0.88362 -0.42273,-0.51483 -0.91672,-1.66587 -0.40598,0.92393 -0.008,-0.14104 -0.003,-0.0564 0.0374,-0.17477 0.0353,-0.0484 -1.68815,-0.41437 0.10728,0.71135 -0.24498,0.33018 -0.25762,-0.11549 -0.58177,0.96541 -1.12571,0.008 -0.96011,-0.23018 1.14963,-0.78361 -1.072,-0.38236 -0.29753,-0.58016 -0.74417,1.54989 -0.76471,-0.40939 -0.007,-1.06248 -1.19023,-1.02786 0.3163,-1.45703 -0.83048,1.05303 -0.8441,-0.62678 -1.23405,0.40119 -0.0753,-1.13435 -0.64447,0.0751 -0.11973,-1.16036 -1.95712,0.13614 0.21148,-0.934 -1.26698,0.008 -0.0903,0.4003 -1.56432,1.01316 0.5677,-0.0149 -0.0314,0.85218 -1.63937,0.91347 -2.81279,-0.37785 -2.92928,-1.15306 -2.0475,-0.61378 -2.70916,0.094 -2.26701,0.39649 -0.81921,0.45436 -1.53663,0.15975 -2.96692,1.25565 -0.1443,0.0629 -3.40731,1.67081 1.70479,-1.39372 0.83013,-0.28054 -0.66895,-0.13635 -1.69994,0.48168 0.36001,-2.33251 -0.95362,-0.36779 -0.61217,1.26102 -0.46515,-0.10723 -0.78566,-0.29778 -0.52859,-1.15797 -0.23386,0.58663 1.05943,0.90985 -0.29881,1.3167 0.96061,0.53062 -0.36999,0.29072 0.62107,0.88894 -0.18413,0.78709 -0.3312,-0.13486 -0.99957,1.16163 -0.82032,0.19358 -0.75905,1.93719 -1.44598,1.2898 -0.93801,0.39468 -1.63867,0.98892 -0.85899,-0.18003 -1.30162,0.51265 -0.236,0.71649 2.28516,-0.96408 -5.60899,2.85504 2.56944,-1.47752 0.63607,-0.72544 -1.68122,0.51267 -1.41795,-0.3862 -0.60255,-0.32082 -0.33385,-0.3336 -0.0653,1.00749 -1.01448,-0.34387 -0.21655,-0.64929 -0.72688,-0.15343 -0.0256,0.004 -0.009,-0.0164 0.002,0.20355 0.43379,1.06387 1.88921,1.5627 -2.25652,1.19645 -1.20831,-1.27008 -0.66589,0.32456 0.61026,0.97227 -0.0742,0.43697 0.009,0.51242 -0.10956,0.0457 -0.29189,0.32381 -1.0602,0.6415 -0.51542,-0.80545 -2.02572,1.38791 0.73493,0.15236 -0.25386,0.7441 0.0253,0.041 1.44224,-1.42633 -0.028,0.80882 -0.99067,1.2923 -0.01,0.015 -0.0494,0.0839 -0.44095,0.71499 -0.7373,-0.6005 -1.95694,0.39025 0.93218,0.01 0.48902,1.24661 0.68845,0.21945 -0.66201,1.35898 -0.84829,2.40961 -0.84452,0.4473 0.39049,-1.3127 -1.33434,0.85854 -1.07227,-1.0089 0.62566,1.30357 -1.03966,0.0288 1.16416,0.0945 0.91763,0.48702 1.10955,-0.32067 -0.24987,1.4767 -0.21711,0.99341 -0.77884,0.41724 0.0471,1.5071 0.68142,0.6903 0.23081,1.58126 0.15738,0.8552 -0.0177,0.74011 -0.19156,0.30465 0.51159,0.01 0.84295,2.17256 -0.15792,0.7208 0.93018,0.61226 -0.38487,0.96717 -1.16231,0.57336 0.01,0.68264 -1.34609,-0.48481 -1.6753,-1.54364 -1.4262,-0.35879 -3.03929,0.1055 -1.75167,-1.09083 -0.52208,-0.68362 -1.28553,-0.369 -0.81946,0.15154 -1.13523,-1.30602 -2.78827,-0.68155 0.19007,-0.4969 -0.67563,-0.98012 -0.80598,-2.75766 -1.54652,-1.84027 0.23196,-1.55202 -0.21744,-0.90926 -0.42684,-0.76246 0.28191,-1.40308 -0.98182,-1.63903 -1.0487,-0.24076 -1.43746,-1.48144 -0.42375,-1.85682 -0.49102,-0.1273 -0.82682,-1.60594 -1.08909,-0.54186 -0.6884,-0.91757 -0.81699,-3.0954 -0.82455,-0.76984 -0.35959,-1.70716 -0.86549,-1.2281 -0.0701,-1.42767 -0.90965,-0.95854 -0.13686,-0.68918 -1.78759,-1.3418 -0.44002,-0.96896 -1.72171,-0.8957 -0.28529,-1.07095 -1.2646,-1.54551 -0.74064,0.25033 -1.9589,-0.35147 -3.10037,-0.30791 -1.73398,-0.99321 -0.68009,1.15096 -1.10055,-0.30824 -1.35118,0.30098 -1.40216,2.18351 -0.72028,1.62801 -0.18826,1.45598 -0.93127,0.20158 -1.5911,2.01842 -2.43026,-0.92444 -0.98068,-1.22353 -1.4301,-0.35664 -0.57868,-0.86517 -1.55202,-0.46713 -0.92985,-0.58765 -1.43117,-1.82371 -0.65301,-0.11776 -1.40538,-1.38831 -1.21635,-2.84949 0.1616,-2.69394 -1.30271,-2.27244 0.007,-1.21961 -0.82225,-1.28935 -1.86021,-1.97866 -1.49599,-0.68384 -1.2657,-1.46004 -0.32508,-1.01094 -1.35566,-0.97389 -0.69148,-1.31641 -0.99338,-1.1106 -1.79539,-1.13256 -1.11529,-2.71261 -1.18715,-0.65477 -6.54326,-0.75128 -7.75027,-0.96437 -0.58635,4.53964 -7.18877,-0.94823 -12.01817,-1.75653 -5.2338,-0.81483 -2.32817,-1.34248 -15.54513,-9.02463 -11.50129,-6.93061 0.28164,-1.21848 0.95183,-0.86712 -11.71275,-1.3823 -8.62435,-1.02537 0.36146,-1.36484 -0.85086,-0.6605 -0.1485,-1.12713 0.36057,-0.4633 -0.0626,-2.5335 -1.04797,-2.6033 -0.54796,-0.60121 -1.18925,-1.89167 -1.5131,-1.5501 -0.68856,-1.10537 -0.81314,-0.45663 -0.70727,0.52162 -0.90981,-0.59364 0.39361,-0.93294 -0.23776,-1.38006 -0.51246,-0.89688 -1.55867,-0.31812 -0.66201,0.17838 -1.02373,-0.71895 -1.90655,-1.53013 -0.23018,-1.33106 -1.33009,-1.46348 -0.61615,-0.58475 -2.51975,-0.55293 -0.89491,-0.79291 -2.28467,-0.70775 -1.46628,-0.14946 -0.13823,-0.82777 -0.92261,-0.84171 0.69202,-1.17607 0.27804,-1.32734 -0.32692,-0.7391 0.35653,-0.66393 0.44193,-1.71149 -0.81132,-0.3412 -0.86635,-1.23768 0.77717,-0.66357 -0.21395,-1.07435 -0.85135,-0.5173 -0.80083,-2.03443 -0.87807,-0.57358 -0.11979,-1.41533 -0.66461,-1.17538 0.0359,-0.97809 -0.53399,-0.59497 -0.6477,-1.97852 -1.10707,-1.47845 0.13918,-2.87149 1.48631,-0.57532 0.61705,-1.77541 -0.71769,-1.49536 -1.34742,-0.14691 -1.01216,-1.89929 -0.61963,-1.12335 0.4911,-1.59678 -0.42738,-1.82105 0.63064,-1.81902 0.1126,-0.73425 0.86803,-0.0677 -0.15101,1.0378 -0.0612,1.21294 0.68733,0.4082 0.82725,1.36426 0.97825,0.30871 -0.828,-0.66284 0.0544,-1.75726 -0.9075,-1.62974 0.40515,-0.92663 -0.38428,-0.81669 1.20018,-0.60357 0.77344,0.54523 1.11697,-0.0672 2.0326,0.97105 1.19533,-0.52711 0.009,0.63712 0.25997,-0.64428 -0.91198,-0.006 0.47101,-0.89514 -1.43938,0.86786 -0.99373,-0.17016 -0.7317,-1.07152 -0.83868,0.73183 -0.69943,-0.48359 -0.19199,-0.97278 -0.0646,-0.0212 0.17561,0.88485 -0.97063,-1.09913 -0.004,-0.0263 -0.77071,0.26635 -0.28363,-0.5719 0.29393,0.63881 -0.61309,1.7093 0.36224,0.59187 -0.86426,0.42838 -0.74789,-1.20272 -0.36179,0.0865 -0.93399,-1.64984 -1.06403,-0.14811 0.89008,-1.38249 0.63838,1.01819 -0.65289,-2.44206 -0.5169,-1.78871 -1.20303,-1.58567 -0.90989,-2.43342 -1.0117,-1.90843 0.62234,-1.01293 -0.0971,-3.42618 0.9443,-1.68016 0.25954,-1.19949 0.0219,-1.92393 -0.74547,-2.00707 -0.33749,-1.1918 -1.38093,-2.09596 0.21484,-1.89177 1.77795,-2.19007 0.29977,0.25241 1.82449,-3.09165 -0.20594,-0.56377 1.84388,-3.61588 0.12059,-2.87472 -0.54394,-0.6315 0.964,-2.02073 -0.69559,-1.33193 0.16181,-2.41448 0.98812,-2.25705 0.0797,-0.89033 -0.45305,-0.91683 0.042,-1.14876 0.84172,-0.9389 1.62673,-2.86676 2.16135,-2.94401 1.16978,-2.33403 1.52163,-3.91882 0.6386,-1.30531 1.31675,-3.93717 0.66677,-0.6911 0.43626,-1.28731 1.52644,-3.36175 0.86924,-3.7212 0.31399,-1.62919 0.63118,-0.47886 0.0141,-2.31657 0.60409,0.68258 1.01468,0.0657 1.133,0.53846 0.76748,-0.28133 0.63324,1.17016 1.11076,-0.004 10e-4,-0.0308 -0.51105,0.11075 -0.85852,-1.49309 -1.76143,-0.76008 -1.14516,0.1883 -0.74312,-1.01977 -0.55127,0.31663 1.31319,-2.90333 -0.51605,2.04518 0.38317,0.0788 0.89118,-1.54138 -0.24072,-0.75293 1.10955,-0.76503 -1.10205,-0.19979 -0.40186,-1.05804 0.064,-1.14273 0.56905,0.28816 1.67369,-0.1699 -1.99067,-1.27737 0.2201,-2.67447 -0.35495,-0.87902 0.30424,-1.78962 0.12907,-2.22824 -0.7807,-1.61877 0.0706,-3.00652 1.26059,-1.90593 1.30169,1.45287 0.85481,0.50089 1.45794,1.49368 1.79505,0.50937 1.8812,1.12131 1.92792,0.17409 1.00039,1.20096 0.83381,-0.48352 0.6502,2.75679 -0.5049,0.0758 -1.04533,1.40237 0.12186,-1.35772 -1.0678,1.50595 -0.67928,0.41009 -0.47193,0.76196 0.98464,-0.76723 1.20834,-0.13976 0.8214,-1.13207 1.35486,-0.80015 -0.22367,1.7007 -0.44864,-0.21223 -0.82068,1.67886 0.57764,0.77996 -0.66813,0.92265 -0.63579,1.37998 -0.48789,-0.48306 0.627,-1.04074 -0.0477,-0.0132 -0.7959,0.45515 -0.70384,1.58657 -0.25443,-0.8699 0.52002,-1.06405 -1.04743,0.51548 -0.34979,0.71315 -1.14973,0.7648 1.09444,-0.45077 -0.67121,0.82821 0.64863,0.18283 0.8799,-0.8205 0.5615,1.00036 0.99351,-0.6316 0.70182,-1.17808 0.78004,0.1826 0.69498,-0.0983 -0.0128,-2.38249 0.61227,-0.12319 -0.48311,-0.73347 0.5999,-1.04366 1.05958,-1.48851 0.94737,-0.62717 -0.78999,-0.88535 0.0261,-1.35923 -0.6968,0.36643 0.40886,1.03651 -0.74085,-0.69429 0.19062,-1.15333 0.83222,0.22506 0.26449,-0.41135 -1.43157,-1.59819 -0.10601,-0.87142 0.66295,-0.13104 0.66156,0.88793 0.48785,-1.83763 0.2523,-0.93456 -0.92558,-0.60407 -0.64936,-1.90083 0.5649,-0.49231 6.44472,1.87697 5.89699,1.57712 5.15399,1.36512 7.97113,2.00079 4.18304,1.01109 5.02375,1.16872 2.59794,0.60342 6.46776,1.40297 8.68997,1.80165 4.36215,0.87155 12.3971,2.26119 6.1185,1.03631 3.50851,0.54504 8.33816,1.23025 8.35027,1.14466 7.05241,0.86886 7.1349,0.80848 7.0551,0.71552 6.75782,0.60385 7.43932,0.59369 6.15473,0.42404 3.5178,0.20805 8.82721,0.45152 4.4134,0.17801 3.5365,0.11608 7.05758,0.17845 4.84585,0.0811 5.53901,0.0519 7.28679,2.9e-4 1.1344,-0.009 -0.0343,-3.85171 1.31143,0.13011 0.88997,0.74625 1.00811,4.08663 -0.0362,1.06252 0.70403,0.59479 1.06689,0.14997 0.82027,-0.10765 0.57864,0.59883 2.54948,0.13399 0.39794,1.13765 2.19944,-0.35681 9e-5,-0.45263 1.72841,-0.55858 0.81242,0.12413 2.46415,0.80526 0.63054,-0.0543 -0.49717,0.81545 1.39688,0.1015 1.01581,2.22858 0.67321,-0.28973 0.007,-1.0713 1.40134,-0.10032 0.3708,0.92678 1.44481,0.56428 0.632,0.83164 1.0381,0.0402 -0.0259,0.65315 2.14777,-0.50919 1.42897,-1.13088 0.96289,-0.6198 1.06426,1.46272 4.13659,-0.41033 1.84415,1.1395 0.70292,-0.40945 1.404,0.20298 -2.7218,1.82262 -3.09916,1.18831 -1.94752,1.15912 -1.90702,1.72525 -2.96043,3.56726 -2.10911,1.96433 -2.01298,1.62573 -0.70953,1.32135 0.62074,-0.86503 0.76515,0.58745 1.26852,-0.13649 1.83805,-0.74565 2.0344,-0.94331 1.00259,-0.23199 1.61705,-1.14584 0.80704,0.60975 -0.82936,1.47655 0.25794,0.55734 -0.4606,1.17634 1.53127,-0.88686 1.10148,0.76323 0.93594,0.12532 2.66144,-1.27937 0.89298,-0.96557 0.6654,-0.58271 2.56087,-0.41853 1.18145,-0.72847 0.76976,-0.93185 1.25595,-0.46676 0.2647,-0.72954 1.68083,-1.40536 0.1033,0.97667 0.80183,0.14936 0.55498,1.67915 0.0353,1.89199 1.43137,-1.93378 1.37002,0.0842 1.59299,0.0774 1.33375,0.67503 0.50775,0.89035 1.88499,2.1089 1.4917,-0.13378 0.6273,-0.45389 1.52345,0.82618 0.41437,-0.45869 0.8533,0.59723 1.07953,-1.53904 2.12152,-1.43102 1.88001,-0.37231 2.66097,-0.19598 1.60499,-0.94148 1.94082,-0.35613 -0.42102,0.85888 0.20111,2.01782 1.46725,0.27326 1.34046,-0.56594 0.3415,0.67324 1.64143,-1.09651 0.65106,0.64279 0.76149,1.73954 -0.16566,0.91093 0.67867,-0.24132 0.45796,0.81049 1.33613,0.95596 -1.48915,0.19438 -0.70836,0.0608 -0.12029,0.0161 -3.04863,-0.3249 -0.44744,1.15534 0.0382,1.07081 -1.97741,-1.47587 -3.04919,-0.61583 -0.62711,0.16096 -0.81564,1.36511 -1.48152,0.15369 -0.28266,0.52172 -1.086,-0.3346 -1.70752,0.62901 -0.25864,1.3838 -0.62149,0.35779 -1.63333,1.25349 1.04093,-2.12992 -1.77056,0.0622 -0.48461,1.57313 -1.21297,-0.23413 -0.83618,0.89888 -0.56983,1.20797 -0.98301,2.69472 -1.10535,2.0586 0.0145,1.1836 -0.92963,0.27055 -0.8649,1.487 -0.49239,1.56622 -0.0205,0.003 -0.0257,0.003 -0.29473,1.17493 0.88146,0.21599 1.09921,-1.19789 0.15882,-0.34639 0.7436,-1.68794 1.39694,-0.82888 0.9665,-2.7476 0.8161,-0.34378 0.26739,-1.06189 0.59722,-0.0609 -1.14817,3.43458 -0.0249,0.9545 -0.73498,0.96595 -0.29506,1.15997 -0.62583,1.73551 -0.26718,1.89169 0.17532,1.70223 -0.68694,0.58017 -0.46215,2.24225 0.39897,2.04556 -0.5268,1.52827 -0.61174,2.97613 0.18722,0.64448 0.7889,3.50593 0.53921,0.54516 -0.23342,1.20901 0.16184,1.77971 -0.0516,1.94477 0.68598,1.48035 0.65023,0.73852 0.74954,2.30186 0.75503,1.32366 0.7151,0.49459 1.61313,0.15061 2.0845,-1.08058 0.75461,-0.58667 1.41577,-1.53661 0.7396,-2.25532 0.78372,-1.44722 0.48641,-1.85391 0.11765,-3.5781 -0.36232,-2.21954 -0.4721,-1.28534 -1.73863,-3.44263 -0.75871,-1.78708 0.62072,-1.74601 -0.81308,-2.17065 0.75631,-1.49215 0.7421,-2.02486 0.008,-1.51787 -0.22384,-1.8693 1.09518,-0.87411 -0.10015,-1.17741 0.87536,-0.8092 0.96975,0.014 1.05482,-2.48783 0.50939,1.23518 -0.36922,1.85862 0.15315,1.06875 0.33404,0.0467 0.62708,-2.328 -0.11426,2.46766 0.47806,-1.19696 0.27422,-2.60195 -0.28382,-0.94518 0.0799,-0.70927 1.0648,-0.99109 0.74072,-0.126 1.16053,-0.70865 -0.81524,-0.0359 -0.7432,-1.264 1.07168,-1.74441 1.3887,-0.78704 2.05823,1.12518 1.84402,0.0447 0.80926,1.11826 1.44901,0.0289 1.0543,0.66492 1.48283,0.42043 0.53939,-0.16552 0.92399,0.76844 0.0353,0.63154 0.73283,1.45981 -0.8018,0.0385 0.16262,1.33891 0.85285,0.60033 0.54834,1.41256 -0.0625,2.0716 0.0856,1.84569 -1.13108,0.73758 -0.25862,1.15597 0.061,1.16193 -0.6365,0.67332 -1.19091,0.13221 -0.36259,0.90107 0.26864,2.36822 1.65473,0.67146 1.12887,-1.63681 0.36713,0.0241 1.14672,-2.68743 1.45115,-0.5393 0.81046,-0.73463 1.45863,0.58456 0.99308,1.49661 0.40216,1.40383 0.85342,2.48273 0.64581,2.66189 0.89664,1.86359 -0.28633,0.92781 0.058,2.69048 -0.93475,0.0881 -0.52315,-0.49527 -0.73211,0.82303 -0.14179,1.72031 -0.11826,0.69828 -1.21675,0.90193 -0.45914,1.53724 -0.0451,1.39971 -1.62286,2.76343 -0.0786,0.57407 0.0159,-0.003 0.0796,-0.0139 0.0426,-0.006 0.0689,-0.0125 2.30048,0.81978 1.60237,0.84577 0.92372,-0.82292 0.90566,0.74685 -2.25917,0.7763 -0.13355,0.0205 -0.0401,0.006 1.23401,0.10596 1.45428,-0.54689 1.59236,0.61979 1.08793,-0.62209 2.37062,-1.2621 0.33923,0.0604 1.69058,-0.0706 1.68262,-1.74427 1.31106,-1.56198 1.93856,-1.23824 3.36486,-1.82468 1.2938,-0.81895 3.78302,-3.05389 1.41833,-1.22253 1.41703,-1.67772 1.20954,-0.91549 0.42299,-1.32571 1.24156,-1.22584 -0.73286,-1.61598 0.087,-0.71776 -1.45856,-0.37877 -0.28923,-1.78466 1.75195,-0.94118 2.3663,-0.92564 3.39456,-0.57986 1.74191,-0.0891 1.55861,0.74573 1.33798,-0.64411 1.61173,-0.46241 1.16366,0.0584 1.77936,-1.18824 0.59876,-0.92186 1.25955,-1.35505 1.24167,-0.32667 0.0594,-1.56891 -0.078,0.0104 -0.0442,0.006 -0.53718,-1.36708 -0.5008,-0.0596 1.08713,-0.82497 -0.73631,-0.69658 0.2938,-1.02552 -0.89254,0.81156 -1.042,-0.83567 0.43467,-0.99081 2.76623,-2.70921 0.41788,-1.25239 2.66007,-4.04033 1.88289,-1.82414 1.69452,-0.49956 4.86226,-1.13687 4.72315,-1.28595 1.04517,-0.28344 4.43764,-1.045 4.54636,-1.161 2.72607,-0.77 0.30234,-2.74283 0.44141,-0.46796 1.11044,0.33551 0.25675,-0.7498 0.4289,-0.53889 1.36491,0.352 -0.26101,-1.21601 1.3235,-0.16873 -0.92028,-1.09728 0.74918,-1.85041 0.96074,-0.96792 -0.37177,-0.51741 0.79424,-1.22422 -0.72224,-1.16574 0.18847,-1.38855 -0.49317,-0.33451 0.26548,-1.73373 0.71924,-0.90016 -0.20399,-1.59305 -0.15763,-1.22944 3.03808,-8.8716 1.29211,-0.0281 0.52592,1.75111 1.12601,0.37632 1.74281,-1.24001 0.0658,-0.44084 1.33892,-0.40173 -0.0969,-0.6781 0.84714,-0.26092 2.32007,0.96665 1.46152,0.91743 3.37757,10.82717 0.60752,2.5934 1.55989,0.31056 1.322,-0.1149 -0.25323,1.01524 0.77841,0.7906 -0.0679,1.18733 1.46672,1.20591 0.16998,-0.70272 0.93902,0.0106 1.48312,1.71245 0.84354,1.30121 -0.96603,2.01475 -2.14498,0.74678 -0.0854,1.15863 -0.72413,-0.13978 -0.1514,0.81855 -0.8324,-0.93589 -0.32172,0.54624 0.14663,1.7312 -0.92832,-0.84772 0.0181,1.79033 -0.71898,-1.29494 -1.69913,-0.14779 0.56769,0.50693 -0.94379,1.04236 -0.19779,-0.94291 -0.73139,1.18767 0.80195,1.62493 -2.5753,-1.14076 0.15225,-1.13144 -0.91501,-0.94147 0.032,-0.63192 -0.0155,0.0114 -0.1047,0.92477 0.54191,0.19579 0.13141,1.03297 -1.20829,0.68797 0.65825,0.61885 -0.25653,1.20218 -0.0339,1.8162 0.29561,0.24303 -0.655,1.42448 -1.15231,-0.0264 -0.0412,-0.51971 -0.39347,-0.5392 -0.16334,2.57701 -0.55071,-0.4739 -0.61764,0.63126 -0.3851,-1.611 -0.26679,0.88146 -0.23261,0.55611 0.65816,0.54195 -0.23626,0.70827 -0.0793,0.0173 -0.95669,-2.01164 0.0378,-0.46948 0.0294,-1.21394 -0.0188,2.4e-4 -0.0936,1.45607 -0.43668,1.00495 0.31071,-0.38697 0.17786,-0.29067 0.99398,2.11464 -0.41905,0.54574 -0.70573,-1.80906 0.18596,1.06382 -0.5746,-0.65382 -1.21349,1.03945 -0.43322,1.43665 0.71353,0.96315 -1.01905,0.59227 -0.11092,1.93616 -0.70445,0.5026 -0.1861,2.74386 -1.28298,-0.32343 -0.27746,0.62058 0.38772,-0.47603 0.96589,0.52431 -0.2954,1.88635 0.76178,1.50029 1.47671,0.32859 -0.30862,0.60401 -1.53839,0.99095 0.1538,0.77247 -0.55949,0.45205 -0.37329,0.51022 -0.16654,0.0685 0.12845,0.1905 -0.005,0.004 0.40735,0.80649 0.87611,0.13076 0.70998,-0.37251 0.36302,0.15445 1.44953,1.21942 -0.2903,0.93068 1.44784,0.46416 0.32496,1.13311 1.00505,0.39842 1.11228,-0.0974 1.75707,-1.34959 -1.5557,-2.16311 1.35087,0.83706 0.7569,1.63071 -0.28238,1.08533 -2.61767,1.21743 -0.50595,0.89474 -1.24794,0.57201 -0.20752,-2.23165 -0.6973,0.30676 -0.0324,0.87527 -0.56172,0.4097 -0.37471,1.05215 -1.27858,0.78599 -0.43682,0.54116 -0.58417,-2.14543 -0.32637,-0.31435 -0.0601,0.75763 -0.94949,-0.90968 -0.31511,-0.0338 0.0146,1.19186 0.54215,1.76494 -0.21141,1.09428 -2.5558,1.37309 0.015,-0.2655 -1.08501,0.51864 -1.30318,0.17195 -0.97782,0.72413 -1.13036,-1.25285 0.93169,1.39497 -1.37951,0.41284 0.0322,0.0281 0.0658,0.0281 -2.93114,0.6988 -1.03512,1.15858 -0.16569,-0.58359 -0.37179,0.76112 -1.58895,1.56598 -1.50263,1.02945 0.0317,0.16719 -0.77824,1.14807 0.12801,0.67919 -0.81789,0.39191 -0.49211,1.1344 0.22809,-1.93071 0.0183,-0.3841 -0.0527,-1.67337 -0.33591,-1.08716 -1.07608,-1.15926 -0.0452,0.0208 0.99921,1.63553 0.3677,1.4234 -0.19596,2.1197 -0.23992,1.49482 -0.51154,0.33234 -0.0181,-0.95164 -0.2027,0.54764 -0.14402,0.99339 -0.24317,1.17574 0.46859,0.28454 1.7396,0.01 0.4382,1.00927 0.0338,2.10977 -0.50814,-0.092 0.53231,0.11051 0.25053,2.98394 -0.40301,-1.16131 -0.25308,2.01213 0.37299,0.34286 -1.04287,1.694 -0.5384,0.17197 -0.0132,0.0414 0.50341,1.9067 -1.68913,1.17723 0.27157,0.32535 -0.60717,2.77675 -0.45565,0.73651 -0.81616,0.18519 0.19693,-1.63192 -0.29953,-0.83285 -2.06904,-0.13988 -1.71985,-0.76973 -0.39614,-0.29774 -0.0487,-0.014 -0.0374,-0.0277 -1.18875,-0.87891 0.0317,-0.0109 -0.37773,-1.06525 -0.0722,-0.22637 0.657,-1.76269 1.99807,-1.48699 0.34764,-1.19052 -0.0408,-0.0179 -0.40062,1.1815 -0.51379,0.31115 -1.41575,0.97226 -1.02692,2.22427 0.51724,0.45793 0.022,1.0514 0.76572,0.84683 1.08049,0.88287 0.49355,1.96891 0.86721,0.9319 1.28517,1.25297 0.74533,-0.13646 0.35425,1.79032 0.74438,1.62486 -0.15674,0.0351 -0.12099,0.0271 -0.0493,0.55453 -0.008,1.59781 -0.74527,0.62019 -0.47705,2.0782 -0.39524,1.30641 0.36196,0.0728 -1.03581,2.14189 0.13145,1.33974 -1.16142,0.97206 -0.55146,2.13832 -0.0105,2.00345 -0.72737,-1.33299 0.1189,-3.0799 0.70262,-0.19252 -0.80453,0.0981 0.69231,-2.30783 0.66418,-0.84208 0.185,-1.70125 -0.0203,-0.013 -1.94841,1.19041 -0.002,-1.5345 -0.21877,-1.00323 -0.63875,0.58359 0.90076,-1.64886 -0.70121,0.54245 -0.22255,-0.60592 0.323,-1.45051 -0.63524,1.94814 -1.75985,-0.37256 -0.57561,-0.14379 -0.99571,-1.11688 0.46198,-0.78565 -0.29072,-0.64294 0.80023,-0.30649 1.04654,0.3923 0.56779,-1.32508 -0.61967,-0.66864 0.4036,-0.52711 -0.47985,0.84207 0.56569,0.40291 -0.33158,1.07136 -1.33128,-0.82848 -1.45161,-0.35277 0.37552,-1.14436 0.91059,0.83739 -0.38475,-0.89731 0.48774,-0.92776 -0.55664,0.57477 -0.23666,-0.87586 0.20399,-1.27716 0.8644,-1.83583 -0.72533,1.57623 -0.51087,-0.21551 -0.19613,0.94933 -0.57485,-0.8584 0.78431,-2.50051 2.10285,-0.47786 -1.60608,0.17912 0.17738,-1.80362 -0.77114,0.32278 0.0288,1.12404 -0.99618,0.92114 0.0129,-1.05682 -0.87466,0.96033 0.30421,0.515 -0.40824,1.46238 -0.87127,-0.17678 -0.34012,0.41928 0.0502,0.009 0.33173,-0.0896 1.0709,1.00775 -0.71696,0.31147 1.11252,0.41964 -0.56115,0.43236 0.20483,0.69477 -0.3647,1.55011 0.31529,0.52445 0.46456,1.77928 1.34812,1.26061 -0.16463,0.72891 -1.98061,-1.1178 -0.85687,-1.89812 0.23288,1.22848 0.099,0.45276 2.02707,1.41825 1.60982,1.5532 0.15907,0.89516 -1.1794,-0.88072 -2.22661,-0.85408 -0.19174,0.63868 -1.28674,-1.42863 0.47559,1.18623 -0.69534,-0.10199 -1.22261,-1.35887 -1.09897,1.09938 -0.76231,-1.12366 1.09629,-2.385 0.22341,-1.28867 -0.81111,-0.85948 0.50455,0.5882 0.0795,0.52109 0.20353,0.69545 -0.7192,0.96713 -0.70585,-0.16147 -0.11746,1.73896 0.14667,1.71755 0.70226,-0.0864 1.34178,-0.98336 0.37937,1.30641 1.67506,0.74698 1.79039,-0.21287 0.9181,0.89919 -0.39074,0.37664 0.80298,-0.16238 2.07266,0.94 -0.45313,2.00363 0.16805,0.80126 -1.5043,-0.0955 -0.93943,-1.33559 -0.7005,-0.0192 -1.86248,-1.3684 -0.47987,-0.85157 -1.14025,-0.62445 -0.0191,0.0196 0.17658,0.53123 1.06861,0.18286 0.259,0.93182 1.12749,0.59978 1.12008,1.07428 1.50481,1.34276 1.93041,0.16304 -0.87215,0.65128 -1.09535,-0.34789 0.97814,0.38696 0.55384,-0.23759 1.04424,0.66475 0.0641,1.31691 -1.58651,-1.12997 0.81746,1.78623 -0.86508,0.35496 -1.9713,-1.70587 -1.00294,-1.252 -1.29475,0.32905 1.19129,0.10408 0.67875,0.82382 0.83569,0.75749 0.56084,0.53734 2.01474,0.7546 -0.0716,0.58208 0.36586,-0.32397 -0.0591,0.54306 0.91974,0.0924 -0.71439,1.14072 -2.1526,-0.98558 0.0497,-0.43973 -0.36512,-0.43528 -1.8295,0.10653 -0.31076,-1.25124 0.19993,1.08052 -1.16972,-0.29347 -1.90294,0.30599 -0.0585,-0.64286 -0.51716,0.0674 0.13447,0.77772 0.52075,0.0646 1.20897,-0.39105 0.81988,0.60233 1.68687,-0.0594 1.12487,0.45998 0.37351,0.97238 1.48786,0.56509 -0.20182,0.54107 0.0775,0.68425 0.86385,-0.76553 0.29615,0.52978 -0.0914,0.28049 0.82226,-0.3458 0.37913,-0.10061 0.14922,-0.0601 0.12539,0.008 -1.01111,-0.21791 -0.1785,-0.89207 1.22404,0.17345 1.51183,-0.22155 1.75595,3.40267 1.42666,3.0295 2.41562,3.33238 -1.72477,-1.49963 -0.70968,-1.82363 -0.47997,-0.518 -1.1229,-2.4787 -0.75127,-1.5883 z m 0.39606,-0.0835 -0.0442,-0.0821 0.37742,0.009 z m -0.39606,0.0835 0.72931,-0.1566 -0.72931,0.1566 z m 0.39606,-0.0835 -0.14159,0.0292 0.14159,-0.0292 z m -339.78861,-130.60866 -0.0118,1.30623 -0.68033,-0.59014 z m -1.57036,-1.19964 0.68474,0.85082 -0.41856,0.95525 -0.52424,-0.58205 z m 1.87032,-0.39746 0.86809,0.81213 -1.5086,0.22475 -0.24833,-0.66581 z m 1.11695,3.64521 0.30365,1.08148 -1.02404,-0.12093 -0.67163,0.39888 0.77079,0.41336 -0.0998,1.98797 0.32894,-0.74754 0.80631,0.87741 -0.35904,1.23349 -1.1675,-1.63446 0.30447,-1.2272 -0.83371,-0.946 1.19107,-1.50433 z m -1.5693,6.83534 0.0501,1.19505 -0.58991,-0.3056 z m -0.15054,3.00273 -0.77169,0.42971 0.81849,-1.50211 z m 374.72146,28.69147 0.47262,1.02062 -0.81254,-0.41287 z m 2.00695,-2.37312 0.98833,0.39238 -0.61008,1.77207 -0.89917,-0.68923 z m -145.19455,-1.95235 0.53871,-0.88229 1.35546,-0.91604 2.49858,-0.4653 1.01607,0.6404 -1.66859,0.2929 0.16102,0.40404 -1.86888,1.63137 -1.08606,2.32719 -0.24931,-1.1522 -1.28213,-0.23108 -0.14701,-0.99336 z m -1.61324,-8.40517 1.50985,-0.70046 -1.66757,1.99685 -2.06066,1.12087 0.36968,0.2707 -1.38538,0.66243 -0.46961,-0.84692 z m 37.35922,18.4772 -2.01303,-0.1588 1.13511,-0.87845 -0.38945,-0.62484 0.95125,-0.006 0.89816,0.93617 z m -5.17612,-5.57271 0.48575,0.005 -0.27607,1.20883 -0.74809,-0.66535 z m -1.65742,7.51328 1.51302,0.27952 -0.9298,0.48494 z m -6.74732,1.45245 0.47112,1.39247 -0.87582,0.36352 z m -2.26838,7.24251 -0.71777,-0.30635 0.42748,-0.56223 z m -34.1228,-15.58359 0.31152,0.24855 -1.44469,1.04169 z m 86.97699,28.50947 0.81129,0.2557 -0.20024,0.73107 z m 45.95271,15.72135 0.0325,0.12249 -0.0325,-0.12249 z m -2.52826,0.64225 0.12658,-0.21174 -0.86869,0.0686 0.0156,0.69359 -1.26314,0.0182 0.2782,-1.39199 0.24294,-0.62094 1.23844,-0.1804 0.0263,-0.94665 0.97653,-0.71674 0.89453,0.3749 -0.39978,-0.57642 2.07416,-0.33156 0.3129,-0.71388 2.83753,-0.67547 0.95285,-0.40617 1.97779,-2.18823 -0.77869,1.80376 -0.79308,0.98466 0.82091,0.004 0.74064,-1.27741 1.27983,-0.83444 0.67908,0.40429 1.21159,-1.30967 0.30179,0.27629 -3.60185,2.97955 -0.57059,-0.12271 -0.85567,1.1234 -0.65716,-0.0311 -0.95611,0.99253 -1.04354,0.20277 -0.80684,0.73208 -0.67732,-0.0336 -1.26939,0.9301 -2.17637,1.18138 z m -0.51122,0.0483 0.0266,0.13573 -0.0266,-0.13573 z m -1.86891,0.20923 0.025,1.00427 -0.93786,0.81122 0.13727,-1.56735 z m 23.51855,-14.43748 1.25139,0.75838 -1.97943,0.69247 0.0295,-1.05434 z m 4.54982,-0.19753 0.58908,0.8861 -1.07717,0.41444 z m -9.53558,-0.41864 0.1726,1.53726 -0.61898,-0.1211 z m -382.09995,76.56164 0.42581,1.11369 -1.33166,0.15308 -0.64271,-1.36773 z m 1.29627,-0.0619 2.62833,1.48385 -1.43123,0.035 -1.02227,-0.33651 z m 1.01147,8.57482 0.67558,0.71518 -0.8805,-0.21256 z m 7.09455,4.42911 1.35051,2.32517 -1.03394,-0.38486 z m 0.9529,-4.47023 1.76927,1.17901 0.0914,1.14549 -1.01975,-0.48122 -0.17109,-1.19343 z m 340.36708,-49.6764 -0.46487,1.46474 0.1066,-1.94534 z m 9.87124,7.87153 0.14273,-0.0502 -0.14273,0.0502 z m -5.9006,2.03751 0.0576,-0.0156 -0.0576,0.0156 z m 0.30532,-0.0646 -0.15718,-0.17924 0.0864,-0.0841 0.15698,0.24609 z m -0.18069,0.0369 0.0235,-0.21612 0.0291,0.20434 z m 8.10944,27.11522 1.68141,-1.17027 -0.25122,-3.18877 -0.32338,-0.88678 0.35412,0.75365 0.24472,3.81801 -1.6799,0.72358 z m -15.13731,16.2161 0.0173,0.0424 -0.0173,-0.0424 z m -4.95283,1.63174 0.0632,0.0451 -0.0632,-0.0451 z m -135.70883,55.83464 0.0376,-0.0238 -0.0376,0.0238 z m 2.16954,3.43078 -0.52547,0.54334 -2.82893,1.97701 2.32309,-2.11587 z m -18.61552,12.44698 0.36677,-0.79746 0.72327,-0.0626 1.00142,-0.89633 1.73219,-0.628 -3.91865,2.58191 z m -2.07187,2.40135 -0.0473,0.19338 0.0473,-0.19338 z m 1.6824,-2.00867 -1.06404,1.46497 0.13378,-0.78746 z m -4.61254,11.76828 -0.15121,-2.59643 0.17558,-0.89883 0.1056,-0.34136 0.0429,-0.95517 1.02322,-2.08661 0.22581,0.0538 -1.17503,2.99018 -0.28878,1.7764 z m 1.93197,-8.30854 0.81615,-1.04094 -1.13366,2.13708 z m -1.50037,11.29352 0.0393,0.001 -0.0393,-0.001 z m 0.55377,0.94448 -0.0777,-0.0701 -0.61262,-0.47252 0.2249,-0.40009 -0.22834,-0.75468 0.245,0.25716 0.16335,0.49836 z m -0.44876,-1.44024 -0.45042,-0.75846 -0.18866,-1.63716 0.10247,-0.0936 z m 0.55416,2.40102 0.11807,0.002 -0.11807,-0.002 z m 151.28543,-80.43513 0.25147,0.10205 -0.25147,-0.10205 z m -10.43406,10.80711 0.55462,0.47806 -1.02167,1.25278 z m 0.23348,-2.38746 0.80742,-0.0477 0.97787,0.68473 -0.79772,0.67856 -0.34465,1.05338 -0.59136,-0.98918 z m -0.82746,-0.2678 0.53875,0.0871 0.5033,2.22016 -0.96063,-0.63944 -0.53335,-0.96891 z m -54.98284,30.01306 -0.004,-0.045 0.004,0.045 z m 52.89331,-22.60066 0.78432,0.21817 -0.64214,1.07758 -0.5243,-0.87779 z m 0.64264,-2.33543 0.78971,0.49484 -0.55569,0.62477 z m -0.46078,3.90246 -0.18571,1.45481 -0.28741,-1.07464 z m -1.10762,4.17463 0.0596,-0.0192 0.44539,0.86834 -0.73076,0.96668 -0.44045,-0.63796 0.20737,-1.16956 z m 0.78934,-2.49065 -0.42515,1.6954 -0.58175,-0.92468 z m -0.85459,6.33706 -0.31556,2.09607 -0.47649,-1.43984 z m -68.71149,20.90338 -0.32684,-0.24537 0.12588,0.083 z m 0,0 -0.0362,-0.0199 0.0362,0.0199 z m -0.0362,-0.0199 -0.16479,-0.14248 0.16479,0.14248 z m -20.97671,1.18998 1.63589,0.74322 -1.14487,0.80148 -1.6299,-0.82017 z m 13.29963,3.617 0.004,0.0727 -0.004,-0.0727 z m 6.03245,-2.07428 0.39795,0.68446 -1.26355,0.0103 z m -13.41363,0.86726 0.69327,0.47273 -0.28559,1.00435 -1.01177,-0.80265 z m 38.03937,-13.13739 -1.02182,0.25783 -0.003,-0.0352 1.02289,-0.27874 z m 46.65629,-4.48939 -0.22853,-1.43795 0.64549,1.36625 1.14311,2.93869 z m 4.08188,7.82446 -1.34529,-2.28644 0.0405,-0.006 1.34836,2.2848 z m -35.31435,2.1454 0.20813,0.53836 -1.14341,-0.33001 z m 21.87722,12.67621 0.0286,-0.005 -0.0286,0.005 z m 23.27779,2.70983 0.0988,-0.0175 -0.0988,0.0175 z m -20.34717,4.83869 0.0354,-0.004 -0.0354,0.004 z m 21.92259,-2.09731 0.0898,-0.0145 -0.0898,0.0145 z m -18.88325,6.17436 0.0225,-0.004 -0.0225,0.004 z m 20.51738,-3.46372 0.0128,-0.002 -0.0128,0.002 z m -19.38109,4.88956 0.0355,-0.006 -0.0355,0.006 z m 1.15982,0.68409 1.20185,1.93937 -0.31545,0.12946 z m 7.89262,7.97087 0.0424,-0.007 -0.0424,0.007 z m 11.35921,2.78859 -0.92574,2.56036 -1.01381,1.26426 1.39056,-2.267 z m -239.93025,-13.351 0.93111,0.14733 1.92724,0.1909 -1.55488,1.02723 -1.79136,-0.54549 -2.3506,-0.008 0.55049,-1.23154 z m 11.08103,9.18312 2.52785,1.48341 1.24128,0.20403 1.68057,0.79199 1.91145,1.71852 -0.0773,1.13057 0.83364,-0.0134 0.19955,0.94057 1.69579,1.22444 -1.6104,1.75918 -1.47217,0.7566 -1.54959,0.11121 -2.07527,1.36735 -1.37853,2.10175 -2.16344,-1.14257 -0.36129,-0.81364 0.29959,-2.28989 -1.01509,-2.94533 -0.67958,-0.92762 1.17517,-1.23159 1.0822,-1.81157 -0.6484,-0.95847 -0.0766,-1.08969 z m -33.63464,-19.77969 0.78042,0.44456 -0.19014,2.22799 -1.08308,0.91981 -1.80436,-0.47996 -1.14906,-0.65358 -0.2284,-0.87823 0.57982,-0.83805 1.33207,-0.71769 z m -6.51674,2.24265 0.0734,0.96741 -0.79676,0.35853 -0.4393,0.85896 -0.24524,-1.05622 z m 29.34677,10.91401 0.83992,0.15817 0.83389,1.05909 -0.28322,0.4652 -1.1957,0.28869 -0.88456,-1.79824 z m 3.9385,3.27173 0.15502,0.6738 -1.19987,0.32644 0.0267,-0.52268 z m -0.3144,-4.31339 1.16643,1.33769 1.49083,-0.4905 0.89839,0.18825 1.10292,1.03164 1.06349,0.32102 0.1263,0.84199 -0.55151,0.55378 -2.4316,0.7208 -1.33387,-0.22014 -0.19169,-1.74105 -1.56509,-0.33081 -0.58496,-0.71607 0.19984,-1.24013 z m -13.08497,-6.84111 1.38238,1.856 -0.0635,0.65769 0.72902,-0.009 1.06889,1.63984 -1.37507,0.42002 -0.92468,-0.76876 -1.97505,0.37297 -1.66987,-2.82548 1.48492,-0.0848 z m -133.50015,23.80378 0.50854,0.46022 -0.001,0.18609 0.32754,0.68318 -0.36472,-0.40507 -0.1288,-0.40753 -0.50978,-0.57911 z m 5.34412,1.47191 -0.0398,0.31847 -0.1642,-0.19027 z m 5.24231,1.83792 -0.15975,0.40044 -0.23324,-0.0669 0.0817,-0.39287 z m 0.22369,0.005 0.27567,0.24136 -0.19149,0.12861 -0.23294,-0.15827 z m 0.43357,0.042 -0.0174,0.23991 -0.26863,-0.24278 z m -4.32663,-1.59137 0.25911,0.10373 0.006,0.23252 0.51594,0.34071 -0.38822,-0.0292 -0.19173,0.32172 -0.3689,0.0275 -0.13499,-0.31287 0.39993,-0.068 -0.43013,-0.51047 z m 1.56687,1.37058 -0.17506,0.0566 -0.17788,-0.27446 -0.66001,-0.16761 0.91229,0.0819 0.23647,-0.0622 0.13761,-0.34083 0.28482,0.20431 -0.24689,0.1508 -0.0982,0.32163 z m -8.44163,-4.44465 0.16455,0.23436 -0.24101,0.0707 z m 10.08834,3.93729 -0.29114,0.53171 0.41444,0.13578 -0.20868,0.32659 -0.50675,-0.0403 -0.25619,0.13295 -0.003,-0.3457 -0.36236,0.36163 -0.0348,-0.25011 0.36129,-0.19918 -0.0295,-0.24793 0.40465,0.21608 -0.0546,-0.53773 z m -7.68124,-3.05204 0.17123,0.27171 -0.37399,0.22647 -0.22739,-0.18385 0.038,-0.31322 z m 8.72953,3.01053 0.21579,0.2434 -0.18248,0.16772 -0.27166,-0.0713 z m -12.65929,-5.13758 0.004,0.24425 -0.33966,0.1766 -0.10357,0.23251 -0.40918,-0.16884 -0.19975,0.22424 -0.1216,-0.32025 0.46878,-0.10945 0.22209,0.0765 z m 18.13701,6.76727 -0.10136,0.0966 0.38199,0.23371 0.39918,0.032 0.43599,0.18344 -1.07949,-0.15299 -0.47263,-0.2361 -0.33148,0.0198 -0.32087,-0.32073 0.30066,-0.056 0.14166,0.18755 z m 2.511,-0.12623 0.20999,0.26843 -0.28459,0.11329 -0.43083,-0.0344 0.15828,-0.30744 z m -3.53724,-1.1713 0.22574,0.44178 -0.25161,0.26169 -0.31497,0.0133 0.16066,0.25792 -0.67999,-0.0475 -0.80723,0.0631 -0.27157,-0.2204 -0.7409,-0.10752 0.88115,-0.07 0.50388,0.13513 0.64523,-0.0705 0.31013,-0.22127 -0.21311,-0.22541 0.27712,-0.23783 z m -24.06265,-10.37866 -0.29641,0.46467 -0.14497,-0.23434 -0.48381,-0.29151 0.63238,-0.05 z m 31.57457,11.48739 0.18786,0.13666 -0.14858,0.2253 -0.441,0.11086 0.0233,-0.34412 z m 2.04298,-0.19262 0.12583,0.28987 -0.16213,0.11955 -0.46714,-0.4056 z m -34.53565,-13.74373 0.50216,0.30435 0.0802,0.55818 0.29337,0.20769 -0.58291,-0.0682 -0.14529,-0.2455 -0.43899,0.11008 -0.23929,-0.319 0.26337,-0.21658 -0.37908,-0.13508 0.1561,-0.16098 -0.3709,-0.18907 0.51303,-0.0521 z m 35.90298,14.27764 0.87494,-0.69992 -0.009,-0.28851 0.48432,-0.31611 0.55798,0.11051 -0.16852,-0.19841 0.13468,-0.32102 0.45307,-0.29249 0.4804,-0.0222 0.41215,0.27583 -0.20961,0.41607 -0.99504,0.30559 -0.52809,0.55745 z m 6.92848,-2.20997 -0.37481,0.4072 -0.0957,-0.29136 z m -1.03832,-0.80683 0.0389,0.64334 0.46197,-0.4409 0.28056,0.0763 -0.0118,0.34922 -0.24548,0.0296 -0.47923,0.43063 0.47605,-0.16136 0.0782,0.32312 -0.53046,0.0677 -0.17068,0.26498 -0.18537,-0.14974 -0.0333,0.35642 -0.28881,-0.10725 -1.50472,0.3918 -0.40149,0.18394 -0.43729,-0.33246 0.8792,-0.29363 0.86024,-0.0593 -0.10144,-0.36098 0.35945,0.006 -0.0566,-0.30036 0.7102,0.0497 -0.62628,-0.22433 -0.17664,-0.42913 0.32235,-0.26583 z m -4.12139,-10.3299 0.50056,0.17142 -0.24857,0.17443 z m -0.18188,-2.31937 -0.38596,0.29534 -0.20735,-0.27574 z m 7.78017,12.82888 0.0572,0.22421 -0.40542,-0.0623 -0.0749,-0.15655 z m -1.8541,-0.62294 0.47961,0.40691 -0.48465,0.25708 -0.34728,-0.0922 0.005,-0.45914 z m 0.96606,-0.0935 -0.17167,0.25618 0.25905,0.0572 -0.34357,0.29912 -0.17395,-0.45057 0.17202,-0.20393 z m 5.5896,0.16164 0.46721,0.34653 -0.47462,-0.0551 z m 1.23005,-1.60878 0.0764,0.37203 -0.19141,0.17315 -0.1762,-0.35587 z m -2.92647,-0.64435 0.45731,0.0642 0.14876,0.3229 0.1347,0.80503 0.28121,-0.0445 0.11853,0.30031 -0.35472,-0.0594 -0.0647,-0.18819 -0.23096,0.29805 -0.35132,0.0991 -0.43161,-0.14824 -0.6125,-0.0234 -0.5141,0.22536 -0.0821,0.22756 -0.62752,0.16475 -0.40094,-0.16023 -0.1354,-0.43627 0.0937,-0.24434 0.45594,-0.12692 0.41501,-0.70075 0.28895,-0.15896 0.36611,0.15649 0.77955,-0.36101 z m 3.98247,0.0835 0.33403,0.29084 -0.22448,0.15997 -0.28655,-0.4197 z m 4.65304,0.29388 -0.003,0.32391 -0.33676,0.2794 z m -0.67765,-0.1731 -0.0919,0.5776 -0.53595,0.34402 0.0674,-0.61881 0.27132,0.16963 0.10419,-0.46176 z m -0.962,-0.4566 -0.0258,0.42078 -0.3513,-0.3 z m -0.71828,-0.21375 0.031,0.36138 0.19924,-0.022 0.20274,0.46243 -0.15405,0.19414 -0.6391,-0.33474 0.0772,-0.46476 z m 0.9279,-0.11538 0.14131,0.23072 -0.34139,-0.0994 z m 3.09457,-4.75891 -0.0178,0.24173 0.52082,0.19261 -0.0847,-0.77413 0.16582,-0.3008 0.6363,-0.75963 0.45645,-0.26324 0.30639,-0.36056 0.41671,-0.29383 0.28591,0.37172 -0.0516,-0.55947 -0.17103,0.03 -4.8e-4,-0.39357 0.26561,-1.27057 0.14697,-0.27715 0.22808,-0.021 -0.24846,-0.57319 0.16772,-0.52914 0.415,-0.43814 0.40138,-0.39227 0.16148,-0.5736 -0.0689,-0.24229 -0.24856,0.32873 -0.73611,0.33909 -1.10914,0.43246 -0.31285,-0.15274 -0.0489,-0.27187 -0.37159,-0.29218 0.1781,-0.68634 -0.24577,0.28788 -0.29673,0.0849 -0.0844,0.53078 -0.49653,-0.41563 0.31299,0.29325 0.20233,0.72318 0.10577,0.29355 -0.38817,0.30826 -0.2759,-0.19169 -0.52955,-1.19826 -0.44023,-0.32181 0.0747,-0.33021 -0.20426,0.0624 -0.15839,0.37633 -0.21207,0.0798 -0.15116,-0.38405 -0.42681,-0.0851 -0.0115,-0.46111 -0.17439,-0.13505 -0.90707,0.58097 -0.35659,0.0632 -0.0732,0.0552 -0.51791,0.25345 -0.12133,0.26856 -0.73737,0.28164 -0.0341,-0.25262 -0.66759,-0.16648 0.59016,-0.16018 0.44018,-0.26562 -0.19728,-0.0537 0.002,-0.61145 0.48981,-0.40423 -0.46496,-0.0844 -0.15486,0.15606 -0.18021,-0.58015 0.19156,-0.53384 0.48914,-0.36716 -0.22495,-0.50426 -0.10448,-0.60546 -0.18414,-0.30542 -0.17383,-0.73867 0.11202,-0.20516 -0.4044,-0.65074 0.27534,-0.20748 0.26648,-0.69653 -0.0666,-0.1192 -0.34962,0.7623 -0.29285,0.15518 0.13136,0.50501 -0.11759,0.56986 -0.28037,0.17251 -1.08805,0.32476 -0.98206,0.0231 -0.6137,-0.24491 -0.10193,-0.41893 0.18047,-0.0551 -0.4179,-0.44317 -0.33968,-0.65141 -0.0187,-0.2308 0.28546,-0.26307 -0.0283,-0.2543 0.25618,-0.0325 -0.0684,-0.29288 0.22474,0.0259 0.21725,-0.27016 0.26088,-0.0256 0.1915,-0.30951 0.42507,0.0867 -0.0997,0.61269 0.26767,-0.007 0.44175,-0.41837 -0.19329,-0.32926 -0.61781,-0.25407 0.38856,0.0295 0.27039,-0.15395 -0.35752,-0.10378 -0.33116,0.21026 0.0231,-0.67079 -0.33042,0.3037 0.0808,0.26521 -0.77434,-0.0112 -0.0848,-0.3077 -0.34628,0.065 -0.077,-0.19214 -0.46607,0.0106 -0.0676,-0.22693 0.42787,-0.0888 -0.57845,-0.71832 -0.078,0.40835 -0.30785,-0.0889 -0.0563,-0.50785 0.0972,-0.1475 -0.34825,-0.17262 -0.0511,-0.42147 0.28866,-0.17846 -0.23951,-0.31345 -0.36463,0.16361 0.0347,-0.50712 0.66346,-0.0336 -0.29133,-0.1688 -0.17803,-0.40613 0.83341,0.0375 -0.15737,-0.61448 0.23152,-0.45334 0.81695,-0.88237 0.42509,-0.33471 0.32506,0.0769 0.65868,-0.66205 0.44529,0.24315 0.44034,0.84541 0.009,-0.88285 -0.20948,-0.378 0.0403,-0.22493 0.50311,-0.0476 0.0928,-0.31901 0.46142,-0.27678 0.26021,0.30697 0.45518,-0.0263 0.41537,-0.45788 0.4095,-0.18695 0.44315,-0.59399 0.10936,-0.29706 0.44578,0.25527 -0.24334,0.15434 0.98992,0.0486 0.62795,-0.12137 0.67452,-0.88173 -0.17025,-1.12862 0.0153,-0.53647 -0.37136,-0.56883 -0.39403,-0.0835 0.11964,-0.38423 0.58754,0.11193 0.46034,-0.369 0.0673,-0.37383 -0.13456,-0.38982 -0.34209,-0.35811 0.21148,-0.0465 -0.23641,-0.0137 -0.36925,0.51573 -0.48158,-0.0706 -0.3531,0.22882 -0.39211,0.0286 -0.13313,0.20664 -0.4929,0.24783 -0.20271,0.47999 -0.27226,0.19334 -0.007,-0.61057 -0.44098,-0.60558 -0.27836,0.18011 0.32726,0.33715 -0.0418,0.339 -0.66396,-0.64645 -1.09026,-0.15339 -1.15881,0.24611 -0.4075,-0.24342 -1.28814,-0.57625 -0.26948,-0.59136 0.20064,-0.24994 -0.006,-0.28103 -0.33279,-0.40455 -0.21634,-0.59362 0.32998,0.1669 0.34634,-0.17679 0.22176,-0.31198 0.43115,0.23044 0.21785,0.60093 0.25254,0.10754 0.38237,-0.19276 -0.1745,-0.1906 -0.42876,-0.11403 -0.11134,0.11733 -0.26205,-0.54639 -0.95633,-0.49426 -0.77868,-0.24958 -0.62559,-0.67761 -0.22016,-0.1365 0.49992,-0.36831 0.29725,0.0579 0.0615,-0.2964 0.49801,-0.23552 0.13179,0.20277 0.59773,-0.36224 0.28131,-0.31044 0.58803,-0.21139 0.29052,0.25215 0.62053,0.0929 0.18775,-0.11773 -0.47566,-0.38442 0.31621,-0.29903 0.40175,-0.15916 0.56905,-1.5e-4 0.0331,0.13617 0.51564,-0.45986 0.43598,-0.0583 0.79737,0.0829 0.0298,0.49437 -0.19071,0.20677 1.5e-4,0.41812 -0.16299,0.17269 0.0599,0.34742 0.26832,0.2692 0.20704,-0.0734 0.57018,0.16549 0.51194,-0.0648 0.13537,0.24324 0.3386,0.0741 0.52234,-0.0878 0.23588,0.41186 0.14278,-0.3742 0.49093,-0.6147 0.3864,0.22604 0.32241,-0.0661 -0.21506,-0.38582 -0.73693,-0.2777 -0.38129,0.19776 0.17122,-0.59747 -0.34303,-0.70358 -0.40052,-0.20085 -0.15086,-0.48051 0.22978,-0.2721 0.22153,0.0227 0.36435,0.63563 -0.13338,0.46102 0.18096,0.3871 0.42875,0.42129 0.601,-0.28247 0.48275,0.65108 0.77368,0.0133 0.099,-0.32818 -0.12931,-0.42429 -0.47324,-0.0157 -0.20848,-0.25737 -0.44997,0.002 -0.16564,0.3372 -0.36752,0.0131 -0.47693,-0.7268 0.18458,-0.5612 0.46626,-0.23546 -0.446,-0.37887 -0.57911,0.13472 -0.51197,-0.0358 -0.16208,-0.25989 -0.27503,0.0708 -1.05532,-0.49798 -0.0415,-1.05727 -0.22663,-0.71861 -0.46554,-0.47088 -0.94304,-1.25483 -0.72963,-0.53376 -0.10268,-0.31534 -0.5228,-0.6053 0.27406,-0.10242 0.29364,-0.53953 0.21259,-1.04296 1.0935,0.27568 1.36735,-0.0242 0.44436,-0.13526 0.63631,-0.45981 0.64979,-0.73349 0.39035,-1.06458 -0.13049,-0.1405 0.63045,-0.57246 0.21702,-0.42221 0.41839,-0.33642 0.34442,-0.44364 0.19157,0.32132 -0.42617,0.1294 0.26312,0.0575 0.31432,-0.28918 0.36163,0.036 0.75222,-0.37295 0.69744,-0.58676 0.38801,-0.063 -0.19227,0.67782 0.15373,0.5051 0.0304,-0.64624 0.17912,-0.16624 -0.17287,-0.47096 -0.23134,-0.0292 0.59327,-0.55973 0.60112,-0.17688 -0.2377,0.16909 0.16434,0.17227 1.42421,-0.16305 0.6257,-0.35963 0.31609,-0.34413 0.59375,-0.82711 0.17675,-0.14291 0.25245,0.26816 0.37963,0.1005 0.0418,0.25089 0.54464,0.0326 0.0577,0.29434 -0.25775,0.33266 -0.54248,0.22011 0.25583,0.0806 -0.17836,0.24042 0.55579,0.0255 0.19714,-0.10826 -0.0356,-0.31229 0.30328,-0.24825 0.12609,-0.31293 0.10066,0.24416 0.30064,-0.16814 0.28456,0.32934 -0.11892,0.36625 0.5843,0.4115 0.29651,-0.39012 0.51553,-0.0185 0.41805,-0.13316 0.41591,0.14817 0.12745,0.47742 0.1178,-0.50222 0.42671,0.18918 -0.22866,0.47503 0.009,0.28584 0.43792,0.086 -0.63736,0.14333 1.06843,-0.0616 -0.20272,0.43262 0.6768,0.0462 0.15049,0.19582 0.091,-0.3042 0.55207,-0.0765 -0.0607,0.46946 0.37803,-0.31406 0.36019,-0.1183 0.27167,-0.29035 0.85291,0.022 0.40822,0.28782 0.29708,-0.033 0.14522,0.27211 0.4623,-0.12693 0.41787,0.36161 0.93274,0.20391 0.61161,-0.21427 0.67453,0.11629 0.1745,-0.14113 0.79238,0.50938 0.7875,-0.0352 0.13355,-0.19115 1.4284,-0.57248 0.64872,0.14623 0.55081,0.31567 0.21867,0.2471 0.59055,0.0927 0.60112,0.4504 0.16699,-0.19523 0.28212,0.0649 0.78004,3.93897 1.81847,9.17464 2.72022,13.72053 1.04379,5.26801 0.059,0.29758 0.88757,0.13487 0.043,-0.32956 0.91067,0.26667 0.37726,-0.63936 1.04053,-0.29581 -0.004,0.9646 0.32303,0.26734 0.66744,0.16853 0.25213,0.44389 2.21537,1.38069 0.41378,0.84317 0.0221,0.28421 1.00049,-1.19035 0.42263,-0.13435 0.0786,-0.3669 -0.16983,-0.7131 0.29877,-0.0764 0.0244,-0.35661 -0.23459,-0.0847 0.63148,-0.40413 0.33119,-0.33892 0.34749,-0.35481 0.52051,0.22706 0.48313,0.34966 0.0121,0.50086 0.20258,0.24158 0.18788,0.18723 0.48049,-0.0243 0.0945,0.18227 0.40243,0.10425 0.43002,0.48494 0.2417,0.31613 0.86849,0.22077 0.35749,0.3242 0.77609,0.43095 -0.10157,0.1923 0.7672,0.6297 0.34877,0.45688 0.53613,0.42509 0.94934,0.96955 0.50053,0.3851 0.37628,0.38841 -0.0838,0.47753 0.64273,-0.0447 0.0533,0.62529 0.53757,0.069 0.30877,0.66998 0.45243,-0.2069 1.1913,0.3629 0.57038,-0.0681 0.41485,0.22592 0.31577,-0.0264 0.20261,0.30908 0.38825,0.0263 0.22972,-0.18607 0.32936,0.31083 0.12549,0.33408 -0.0999,0.57263 0.27658,0.59787 0.66303,0.8835 -0.13116,0.38746 0.001,0.49083 -0.12224,0.59454 -0.41769,0.70174 -0.27218,-0.29162 -0.0634,0.4401 -0.22776,-0.0514 -0.41343,-0.69878 0.22605,-0.42339 -0.33637,0.21836 -0.23293,-0.31024 0.25696,-0.53188 -0.53583,-1.31647 -0.92407,-0.69762 -0.29544,0.20013 -0.10348,-0.13902 -0.48301,0.66016 -0.25994,0.11395 0.33495,0.21678 -0.0396,1.07849 -0.50334,-0.16253 -0.25337,-0.48617 0.22705,-0.35434 -0.13018,-0.49797 0.13334,-0.0539 -0.25006,-0.70635 0.34431,-0.24524 -0.34302,0.0128 -0.2591,-0.35184 -0.38099,-0.0144 -0.12588,-0.2149 -0.37444,-0.15282 0.009,-0.52922 -0.32786,0.12326 -0.15844,-0.22215 -0.61764,-0.14067 -0.4797,-0.43308 0.27008,0.0331 -0.20265,-0.42884 -0.0279,0.26806 -0.81092,-0.0443 -0.4883,-0.10052 -0.11376,-0.32997 0.65996,-0.34117 -0.54762,0.0511 -0.35058,-0.43546 -0.005,-0.31052 -0.41263,-0.0848 0.0538,-0.38239 0.90638,0.2643 -0.61584,-0.34491 -0.3191,-0.0429 -0.11207,-0.40858 0.039,-0.11755 0.0199,-0.0596 -0.11801,0.35873 -0.12922,0.19175 -0.38285,-0.43812 -0.54091,-0.38001 -0.21279,-0.60861 0.15255,-0.18945 -0.16294,-0.25547 -0.15685,0.77674 -0.69455,-0.35209 -0.39436,0.0507 -0.29649,-0.4749 -0.37635,-0.39398 -0.31513,-1.05191 -0.0169,0.003 0.12518,0.20937 -0.006,0.63702 -0.31302,-0.30016 -0.1886,-0.44115 -0.67267,-1.16343 -0.0676,-0.0247 0.0326,0.45071 -0.23946,0.009 0.46079,0.39671 0.0991,0.46474 0.80293,1.06767 0.01,0.19937 0.40517,0.66992 0.0494,0.4033 -0.32507,0.10578 -0.29436,-0.24827 -0.35333,-0.55015 0.1512,0.41252 -0.30957,-0.10232 -0.4809,0.30859 0.007,-0.41005 -0.41538,-0.68456 -0.3094,-0.30895 0.50225,-0.39274 -0.52607,0.0389 -0.39662,-0.47047 0.34388,0.67032 -0.0178,0.40742 -0.63994,-0.13838 -0.18675,-0.43624 -0.10232,0.32508 -0.50077,-0.13234 -0.19154,0.27479 0.50359,-0.0419 0.49445,0.14795 -0.19438,0.14971 0.57019,0.15861 -0.21085,0.40727 0.30105,-0.24917 0.24219,0.0351 0.51005,0.71061 -0.35044,0.33335 -0.0535,-0.1653 -0.34164,0.31616 -0.24515,-0.14541 0.15662,0.47588 -0.59253,-0.36876 -0.43608,0.0508 -1.13717,-0.51248 -0.77087,-0.54469 -0.12965,-0.32622 -0.55617,-0.36375 -0.5813,-0.11435 0.0386,-0.29837 -0.33181,0.20241 -1.50751,-0.5942 -0.33508,-0.0373 -0.57119,-0.2581 0.25258,-0.23066 0.0752,0.0762 0.2311,-0.56024 -0.40935,-0.61458 0.13902,-0.34726 0.43388,0.39871 0.095,-0.0561 -0.40812,-0.4243 -0.25653,-0.10703 -0.0307,0.37278 -0.19721,0.48155 -0.82197,0.64542 -0.99452,0.0603 -1.11541,-0.3122 0.25348,-0.45527 -0.34378,-0.54687 -0.20227,0.20495 0.32988,0.25121 -0.34275,0.31276 -1.79794,-0.12095 -1.66012,0.41344 -0.55061,0.27734 -0.71604,-0.41644 0.007,-0.15052 -0.62433,0.0971 -0.21741,-0.28754 -0.43605,-0.0215 0.1473,-0.62613 -0.0582,-0.49879 -0.33671,0.34816 -0.0735,0.28006 -0.3591,0.43754 -0.32028,-0.24825 -0.46838,-0.14678 -0.34675,0.1119 0.4931,-0.7929 -0.66938,0.23005 0.12058,-0.34009 -0.5346,0.3638 0.2804,-0.43747 -0.60186,0.24146 -0.41913,0.0353 -0.0741,-0.14575 0.60293,-0.25204 0.24823,-0.24355 -0.62744,0.20787 -0.35571,-0.31275 0.12602,-0.63147 0.64029,-0.0842 -0.12764,-0.15875 -0.44671,0.10549 -0.60994,0.71787 -0.24859,-0.24776 -0.0885,0.29092 -0.33824,0.24865 -0.23895,-0.0547 -0.0604,-0.66051 -0.14555,0.27133 0.0761,0.55804 -0.24303,0.10439 -0.18079,0.0434 -0.39643,-0.36189 0.1542,-0.51093 0.27085,-0.4251 0.0422,-0.33822 -0.40613,0.71367 -0.092,0.30538 -0.1877,-0.22038 -0.18069,0.86228 -0.54972,0.42644 0.0166,0.2137 0.39728,-0.43628 0.0253,0.57263 0.19981,-0.49656 0.1944,0.49528 -0.21683,0.30276 -0.27188,-0.13311 -0.27917,0.29354 -0.004,0.14349 0.33711,-0.33858 0.33894,0.16673 0.29372,-0.38675 0.19987,0.24036 0.0519,0.36397 -0.57312,0.60087 0.39617,0.16293 -0.4144,0.46079 -0.0932,0.5211 -0.39387,0.11286 -0.80013,-0.093 0.13198,-0.29217 -0.23236,0.0492 -0.21612,0.40568 -0.17964,-0.69614 0.0141,0.45785 -0.28339,0.33834 -0.0872,0.3374 -0.14943,-0.49179 -0.0598,1.0234 -0.57953,-0.60678 -0.007,0.29606 0.27555,0.13649 -0.22341,0.22477 -0.0251,0.30173 -0.39825,0.18699 0.0919,-0.74003 -0.37692,1.01779 -0.24714,-0.26926 0.0339,0.39763 -0.24955,0.0163 -0.45224,0.78826 -0.0659,-0.40066 -0.20656,0.43556 -0.43415,-0.16077 -0.10638,0.16812 -0.51091,0.18814 -0.0197,-0.1998 -0.40733,-0.12355 0.11687,-0.52743 0.34338,-0.24126 0.46234,-0.0214 -1e-5,-0.25156 0.4652,-0.20293 -0.0484,-0.15894 0.463,-0.58013 -0.23709,0.006 -0.75952,0.59833 -0.24937,-0.0379 -0.41705,-0.42074 0.26167,-0.94148 0.47138,-0.66364 0.0506,-0.52105 0.1403,-0.0964 0.0406,-0.58004 -0.28047,-0.60572 0.58803,-0.26425 0.58741,-0.56286 0.50098,-0.37646 0.33698,0.35951 0.27991,0.0511 0.47655,-0.23071 0.22248,0.14143 0.9276,0.10521 0.13218,0.11392 -0.29444,-0.34819 -0.27881,0.0788 -0.67147,-0.27431 -0.58061,-0.43726 0.39468,-0.60767 0.64884,-0.56899 0.27968,-0.0774 -0.2512,-0.0975 -0.43868,0.11754 -0.38115,0.41132 -0.14082,0.50695 -0.81444,0.0222 -0.2203,-0.40277 0.005,0.28991 -0.62854,0.34336 -0.3016,0.52099 -0.53901,0.1573 -0.52821,0.57827 0.18079,0.42548 -0.24973,1.5e-4 -0.3323,0.26639 -0.0884,0.25159 -0.35408,0.31687 -0.12582,0.72988 -0.29194,0.28912 -0.65168,-0.0661 0.45056,0.26858 0.20136,0.33442 -0.23119,0.56134 -0.17926,0.13328 -0.7298,0.0632 -0.0984,0.19005 0.50706,-0.007 -0.0984,0.42634 -0.2872,0.20759 -0.3617,-0.0526 0.14408,-0.25237 -0.21812,-0.26757 0.0242,0.37882 -0.25141,0.49392 -0.43008,0.0395 0.17945,0.37494 -0.6796,0.32557 -0.0404,0.52787 -0.17032,0.0927 0.10581,0.54655 0.18024,-0.20023 0.66817,-0.008 0.27049,0.31951 0.39662,0.21916 0.0404,0.23507 0.10417,-0.004 -0.16747,0.0333 -0.17947,0.49091 -0.42418,0.35035 -0.40529,0.0185 -0.11462,0.4225 -0.22725,0.008 0.0693,0.45907 -0.25704,0.12347 0.14286,0.16221 -0.404,0.42271 -0.0335,0.26461 -0.23623,-0.34106 0.0341,0.30073 -0.21799,-0.0542 -0.32323,0.33453 -0.53252,-0.0523 -0.0814,0.43017 -0.55953,0.37447 -0.092,0.19605 -0.40258,-0.17773 0.0359,0.44911 -0.27144,0.10373 -0.002,0.28724 -0.52497,-0.0881 -0.0373,0.46315 -0.34995,-0.13601 -0.63455,0.49741 -0.0227,0.20017 0.39749,-0.14061 -0.14801,0.35781 0.0907,0.19358 -0.39007,0.60194 -0.33626,-0.20252 -0.21594,0.49551 -0.10458,-0.24313 -0.6396,0.68277 -0.33852,-0.36813 -0.0808,0.32774 -0.30532,0.26387 0.19389,0.24341 -0.33473,0.034 -0.1893,-0.2412 -0.59995,0.23892 -0.1806,0.23607 0.58852,-0.0637 -0.0845,0.28385 -0.52978,-0.20114 0.0196,0.20389 -0.40605,-0.0885 -0.75808,0.72301 0.53082,-0.23404 0.44866,0.23068 -0.69852,1.03665 -0.22156,-0.48823 -0.0289,0.45413 -0.39613,-0.13607 -0.16571,0.30515 -0.84412,0.10937 -0.17327,0.30075 -0.0557,-0.38534 -0.15172,0.0195 0.0325,0.44449 -0.17471,0.43193 -0.10071,-0.69348 -0.32244,-0.121 -0.18298,0.23839 -0.15222,-0.11749 -0.12259,0.33147 -0.70535,0.30769 -0.40718,0.45 -0.10768,-0.38598 -0.15507,0.41432 -0.23251,0.007 -0.25244,-0.28172 -0.18343,0.2775 -0.67278,0.21966 -0.37654,-0.0589 0.11854,-0.39935 0.26824,-0.37868 -0.4422,-0.146 -0.25932,0.27908 -0.0249,0.44493 -0.45933,0.60405 -0.29773,-0.0926 0.12062,0.42376 -0.2522,0.15218 -0.20114,-0.31295 -0.20082,0.45339 -0.43088,-0.16483 7.5e-4,-0.71806 -0.25378,-0.21594 -0.16324,0.16383 0.18147,0.30625 -0.001,0.78499 -0.19097,-0.35715 -0.10391,0.30304 -0.42391,-0.0366 -0.10284,-0.4728 -0.37636,-0.23655 -0.0831,0.35872 0.34757,0.33103 -0.72879,0.39514 0.25807,-0.76111 -0.0176,-0.28772 0.23671,-0.15458 0.68082,0.0321 0.21719,-0.4323 0.30231,-0.20225 0.28172,0.057 -0.0461,-0.35232 0.70415,-0.72022 0.96329,-0.57994 0.87591,-0.12919 0.542,0.0342 0.46433,-0.0868 -0.34303,0.33142 0.41312,0.65586 0.21343,0.12988 -0.12529,-0.68903 0.46539,0.10096 0.084,0.28277 0.42868,0.13997 0.0799,-0.24658 -0.53426,-0.41986 -0.0811,-0.23453 0.50965,-0.93158 1.11685,-0.8393 1.01362,-0.36491 0.89047,-0.67652 z m 53.18819,-1.87321 0.43891,0.21267 0.0472,0.70755 -0.44656,-0.53898 z m 0.47677,-2.17137 0.46536,0.29997 0.49831,0.61161 0.1824,0.73515 0.0146,0.54583 -0.20051,0.32589 -0.61783,-0.16971 0.15068,-0.68166 -0.25788,0.71278 -0.74535,-0.29384 0.19161,-0.65465 -0.22719,-0.0651 -0.11729,-0.29739 0.27196,-0.34808 -0.21982,-0.30746 z m -56.44275,-3.08433 -0.42515,0.76243 -0.36193,0.0659 0.0904,-0.5296 z m 5.91509,8.35648 0.47298,0.12644 -0.65206,0.0107 z m 3.1908,3.0184 -0.35643,-0.15048 0.39,-0.24529 z m 3.35483,-2.81583 -0.14253,0.20742 -0.35517,0.003 z m -1.17615,-0.13 -0.17658,0.3824 -0.36878,0.31945 0.14154,-0.43771 z m 0.79225,0.0697 -0.30593,0.3255 -0.2534,-0.18378 0.26189,-0.24822 z m 1.66064,-2.20866 0.44881,0.0465 0.12658,0.21415 -0.51431,0.12223 -0.25054,0.36776 -0.14959,-0.40618 z m -0.48746,-2.69869 0.31703,0.20925 0.15202,0.37411 -0.48415,-0.28852 z m 0.35719,-0.11761 0.5106,0.30043 0.0939,-0.15437 0.27352,0.16639 -0.20926,0.30523 0.33568,-0.002 0.17361,-0.36101 0.59105,0.33088 -0.42824,0.37259 0.17344,8.9e-4 0.003,0.42447 0.59466,-0.08 -0.33906,0.70606 -0.33341,-0.032 -0.43495,-0.24982 -0.13613,0.12388 0.35664,0.22521 -0.13929,0.46289 -0.21056,0.0388 -0.3674,-0.25502 -0.17108,0.10623 0.29604,0.17538 -0.25074,0.17583 -0.36594,-0.0386 -0.43391,0.56394 -0.30936,-0.0644 0.22419,0.31892 -0.68511,0.8035 -0.48147,0.083 0.14652,-0.33901 0.42038,-0.43259 -0.22274,0.0236 0.0999,-0.37584 -0.29976,0.31722 -0.12776,-0.0834 0.30812,-0.43443 -0.47612,-0.15222 -0.46185,0.12691 0.0816,0.27162 0.2377,-0.21521 0.39552,-0.0394 -0.36202,0.74553 -0.46327,-0.29026 -0.0191,-0.71035 -0.40707,-0.35424 0.0626,-0.46239 0.17923,-0.31647 0.51753,-0.46044 0.66043,-0.0178 0.0442,0.35513 0.4291,0.85076 -0.10114,-0.3933 0.0522,-0.53349 -0.14007,-0.29618 0.48003,0.0452 -0.62959,-0.33963 0.004,-0.28057 0.39661,-0.29858 0.28444,0.22087 0.0504,0.46574 0.11356,-0.47359 0.53193,0.16788 -0.0645,-0.37795 0.35768,0.26873 -0.42422,-0.49762 z m 0.11235,-0.3793 0.20025,0.0438 0.264,0.37813 -0.5224,-0.23703 -0.35182,-0.0285 0.28904,-0.30832 z m 1.62831,-1.16092 0.14228,0.28184 0.26539,-0.12232 -0.0899,0.37595 0.33569,-0.23387 -0.0307,0.41427 -0.16882,0.21433 -0.46494,-0.31495 0.12239,0.39332 -0.3175,-0.008 -0.21853,0.2001 -0.0357,-0.47354 -0.1018,0.503 -0.28071,0.0488 0.003,0.25176 -0.71872,-0.39875 -0.0819,-0.34838 0.39543,0.0443 -0.20607,-0.21623 0.10077,-0.18204 0.47977,0.0832 -0.0551,-0.43458 0.2701,-0.27669 0.32937,0.056 0.23854,0.47581 z m -0.64321,-0.51664 0.56591,-0.23932 -0.23538,0.58456 -0.27686,-0.0839 z m 32.8942,-3.92558 0.0816,0.21232 0.50469,-0.17466 0.1815,0.0862 0.0103,-0.008 0.23731,-0.18014 -0.0561,0.15243 0.91455,0.89187 0.14383,0.40615 -0.14307,0.0262 -0.91888,-1.12785 0.15593,0.33234 -0.19368,-0.0426 0.66014,0.79447 0.45344,0.30113 0.15493,0.38025 -0.35207,0.0657 0.55054,0.28806 -0.11892,0.33146 -0.44176,-0.19608 0.22649,0.61218 -0.2261,0.21225 -0.0479,0.30302 -0.28937,0.34176 -0.2417,-0.34642 -0.10394,-0.47034 0.19396,-0.22567 -0.0892,-0.28537 -0.77441,-0.95522 -0.0668,-0.39137 -0.41308,-0.70963 0.0423,-0.1562 -0.0567,-0.32612 0.0295,0.32387 -0.31449,-0.26012 -0.31821,-0.7059 z m 0.18843,-0.49854 0.61974,0.31984 -0.69062,0.0572 -0.15681,-0.14473 z m 2.99723,8.1182 0.28676,-0.0993 -0.22984,0.33154 z m -2.30837,-2.35364 -0.28421,0.11219 -0.0258,-0.27789 -0.35532,0.0543 -0.16473,-0.41916 0.20858,-0.39366 -0.38358,-0.13217 -0.0831,-0.53213 -0.29706,0.12192 -0.40867,-0.30733 0.38318,-0.12093 -0.25909,-0.0932 -0.008,-0.39266 0.38203,-0.22163 0.0136,0.23381 0.24439,-0.12183 0.45399,0.20045 0.32208,-0.0965 0.076,0.45349 0.68074,1.16761 0.41656,0.85182 0.2972,1.32992 0.0874,0.29415 -0.3409,-0.16915 -0.76044,-0.84302 0.0986,-0.3563 -0.27987,0.15528 z m 5.33957,-0.21122 0.19783,0.34825 0.64677,0.24611 -0.1868,0.18979 0.29916,0.32077 -0.36628,0.28649 -0.27779,-0.15608 0.0983,-0.1775 -0.40812,-0.12801 -0.14733,0.18778 -0.29436,-0.5199 0.19286,-0.14696 0.005,-0.34717 z m -0.68644,-0.19589 0.23482,0.14969 0.0531,0.41769 -0.34649,0.27311 -0.47411,-0.22233 0.014,-0.36693 z m 1.27469,0.57814 -0.44011,-0.2208 -0.0852,-0.41467 -0.19836,-0.27366 0.29857,0.0553 0.32679,0.2991 0.20478,-0.11002 0.36712,0.42956 -0.19506,0.38087 z m -2.04437,-1.65724 0.93454,0.52854 -0.41194,0.47131 -0.2561,0.0309 -0.0997,-0.44063 -0.28217,-0.52957 z m -1.69635,0.77151 -0.10662,-0.18725 0.3283,0.009 -0.0239,0.99647 0.0874,0.92336 0.11761,-0.11566 0.10564,0.6861 -0.16735,-0.0708 -0.28065,-0.64154 0.23399,1.086 -0.25846,-0.17169 -0.2946,-0.63568 -0.0655,-0.56207 0.35017,-0.11777 -0.24697,-0.34286 -0.41377,0.0591 0.0132,-0.19602 -0.34425,-0.33737 -0.15391,-0.43716 0.26726,0.0697 -1.1e-4,-0.43599 0.43157,0.0756 z m -0.40843,-1.17419 0.93462,0.0239 0.5992,-0.17014 0.3125,0.19051 0.38,0.86 -0.0655,0.2484 -0.44468,-0.24122 -0.43112,-0.49803 0.39684,0.76125 0.2749,-0.0124 0.12118,0.25931 -0.11516,0.37596 -0.49944,-0.046 0.0608,0.16009 -0.3941,0.18698 -0.39457,-0.78053 -0.008,-0.44106 -0.20696,0.0414 -0.18413,-0.2784 -0.55831,-0.31505 z m -4.23235,-2.25751 -0.12126,0.25278 0.24032,-0.002 0.25973,-0.54327 0.18446,-0.13889 0.73078,0.0543 0.17004,0.21313 -0.0662,0.33952 -0.46386,-0.0988 0.63754,0.36366 -0.47556,0.23744 -0.3655,-0.16254 -1.06561,-0.25328 1.13562,0.41347 0.35397,0.26201 0.17316,-0.25281 0.32562,-0.0989 0.44619,0.89227 -0.43186,0.19435 -0.22932,-0.14335 -1.41421,-0.51714 0.63916,0.47372 0.15671,0.46785 -0.20643,0.38109 -0.26274,-0.0123 -0.42986,-0.39312 0.43562,0.19372 -0.8192,-0.50956 0.0155,-0.16067 -0.43557,-0.26246 -0.11609,-0.1203 -0.0732,0.0215 -0.0433,0.0129 -0.0432,-0.60855 0.74957,0.3972 0.003,-0.0178 -0.93902,-0.61097 -0.004,-0.44215 0.26159,0.08 0.12607,-0.24492 0.29631,-0.0436 0.1963,-0.3536 0.69517,0.22029 z m -1.50435,0.22996 0.362,0.21753 -0.0565,0.62212 -0.24279,-0.17531 z m 1.65852,-1.27709 -0.007,-0.0228 0.007,0.0228 z m 0.39444,3.49162 0.37238,0.33402 0.21726,0.42432 -0.0335,0.29865 -0.38329,0.18362 -0.32229,-1.18019 z m -51.66481,-16.02633 0.42524,0.17227 -0.57899,0.44255 0.0351,-0.65442 z m 0.6486,-0.75454 0.438,0.49773 -0.0114,0.368 0.19084,0.44833 -0.072,0.32483 -0.3354,-0.51841 -0.97077,-0.45205 0.10848,-0.33513 0.32381,-0.3921 z m 0.75063,-0.71741 0.48256,0.26066 0.27207,0.36035 -0.45103,0.28517 -0.25767,0.40242 -0.32222,-0.0485 -0.33419,-0.51554 -0.32824,-0.20905 0.0472,-0.24307 0.42054,-0.27323 z m 1.3788,11.11967 0.13203,0.26392 -0.18419,0.10498 z m -6.51685,-1.78103 0.0437,0.38729 0.37083,-0.003 0.31508,0.2403 -0.22535,0.81618 0.20007,0.50146 -0.83102,0.0764 -0.37815,0.34327 -0.35792,-0.45588 -0.31342,-0.0344 -0.55968,-0.62898 -0.20465,-0.0234 -0.3389,-0.37438 -0.0446,-0.43766 0.20103,-0.12588 0.76955,0.27502 0.0816,-0.23357 0.69768,-0.27612 0.55032,0.13957 z m -11.30641,-3.33504 -0.0178,0.34234 0.36703,0.5355 0.36172,0.13977 0.19924,0.32733 -0.61818,-0.18876 -0.43617,-0.73977 -0.17265,-0.12508 z m 13.72799,1.96168 0.0476,0.22202 0.40811,-0.0473 -0.10551,0.26972 0.39582,0.0555 0.2966,0.20283 0.031,0.36999 -0.35055,0.29968 -0.27793,0.0592 0.0919,0.26766 -0.24908,0.0707 -0.28332,0.50476 -0.25661,-0.0681 -0.40348,-0.53474 0.33222,-0.32777 -0.40024,0.0827 -0.36026,-0.25538 0.86103,-0.43035 -0.0781,-0.27629 0.26236,-0.0703 z m 35.80006,3.63219 -0.51499,0.73868 0.0128,-0.19403 z m -6.33249,0.46061 -0.0823,0.34757 -0.26007,0.10228 z m -0.36166,0.12149 0.10178,-0.4312 0.16376,0.16935 z m -0.0344,-0.53857 -0.17808,0.61327 -0.22782,-0.20377 z m 1.53061,-0.68502 0.22534,-0.0209 -0.12129,0.3053 0.30138,-0.15424 -0.45074,0.56362 -0.43794,0.79798 0.12317,0.22607 -0.40003,0.30609 -0.43602,0.0886 0.0559,-0.28888 0.71022,-0.89439 0.3733,-0.60474 z m -1.52062,0.006 -0.013,0.35777 -0.21578,-0.13744 z m 2.50411,-0.62041 0.32489,0.0333 -0.006,0.24611 0.40204,-0.14328 0.0932,0.12587 -0.56027,0.32929 -0.30123,0.31608 -0.15487,-0.14196 0.33824,-0.33892 -0.39743,0.11692 -0.0336,-0.16794 z m -2.30688,1.04939 0.0876,-0.65888 0.37994,0.0204 -0.16818,0.9746 z m 3.54049,-1.57302 0.007,0.10401 -0.66207,0.47862 -0.16509,-0.21281 z m -2.86728,-0.0394 0.24679,0.0859 -0.30122,0.17789 z m -2.09338,0.19348 0.003,0.0268 -0.003,-0.0268 z m 0.77278,-0.3173 0.20572,0.33527 -0.26962,-0.0913 z m 0.2191,-0.60978 0.235,0.38472 -0.37915,0.089 z m -9.1784,5.82893 0.15296,0.21079 -0.37275,0.0813 z m 5.03067,-0.094 -0.16018,0.40469 0.0361,-0.4583 z m -2.38859,-3.60314 -0.20406,0.24274 0.12513,-0.50765 z m 0.47443,-35.5773 -0.0662,0.27569 -0.18343,-0.24725 z m -17.34483,23.43482 0.0372,0.29771 -0.50116,-0.13769 z m -14.08267,-3.33135 -0.0119,0.37538 0.85621,0.65637 0.8805,-0.26867 0.27662,0.11546 0.20913,0.34248 -0.018,0.43617 0.55397,0.33974 0.10881,0.28259 0.80799,0.25335 0.46852,0.25154 -0.36747,0.47454 -0.67614,-0.28604 -0.55172,0.44505 0.029,0.18839 -0.35291,-0.007 0.13524,-0.26339 -0.23158,-0.45515 -0.51677,-0.27884 0.12601,-0.2806 -0.437,-0.55367 -0.37126,-0.32478 -0.71959,0.10642 -0.28637,0.17398 -0.41433,-0.3276 -0.0553,-0.45686 z m 12.14661,-7.33263 -0.2151,0.12078 -0.90706,0.17439 z m 57.70637,35.56109 0.2487,0.11982 0.0195,0.38557 -0.43976,-0.42836 z m 2.76506,-1.23087 0.20197,0.25502 -0.22645,0.30612 -0.37852,-0.1489 z m -3.25426,0.41321 0.44709,0.45926 -0.0903,0.1633 -0.31558,-0.0698 0.0986,-0.24495 z m -0.59608,-0.002 0.30985,0.32963 0.0453,0.30959 0.93194,0.73072 0.17032,0.24932 -0.33722,0.0718 -0.69549,-0.59391 -0.51907,-0.53624 -0.11722,-0.48285 z m 3.09687,-1.06939 0.32426,0.1989 0.15101,0.49999 -0.53073,0.12557 0.0838,-0.46006 -0.21658,-0.17855 z m -3.67831,0.87082 0.31933,0.18652 -0.0114,0.19574 -0.33136,0.13047 -0.11888,-0.40252 z m -0.48126,-0.0969 0.23074,0.0466 -0.30781,0.43263 z m 0.16253,-0.32544 -0.30651,0.23888 0.0913,-0.31672 z m -0.61915,-0.053 0.29262,-0.026 -0.0611,0.38172 -0.25863,-0.12073 z m 0.68711,-0.27459 0.2068,0.18952 -0.0908,0.21866 -0.26247,-0.21986 z m -0.69678,-0.76483 0.52784,0.0731 -0.41216,0.10465 0.12112,0.26971 -0.41406,-0.19606 z m 0.43377,-0.42863 0.23323,0.44423 -0.27264,-0.17818 z m 3.47407,-1.30799 -0.32268,0.19318 0.26248,-0.35277 z m -3.98813,0.54263 0.2744,-0.0361 0.13642,0.45557 -0.18167,-0.0154 -0.40375,0.37969 -0.094,0.27167 -0.21434,-0.0742 0.17376,-0.66935 z m -0.54439,-0.5471 0.33663,0.009 0.4979,-0.17174 0.42266,0.42128 -0.0423,0.30845 0.36662,0.24532 0.27757,-0.14467 0.4403,0.20744 0.46744,0.36992 0.22656,0.56609 0.13616,-0.19343 0.23528,0.31446 0.35819,0.22377 -0.70496,-0.17226 -0.28933,0.3847 0.43147,-0.26213 0.25181,0.38572 0.17395,-0.15683 0.47596,0.39916 -0.26237,0.27488 0.33404,-0.0431 0.0492,-0.31471 0.25581,0.54554 -0.2457,0.25059 0.30517,-0.002 0.22402,0.42666 -0.27172,0.10492 0.36447,0.11489 0.0278,0.4892 -0.46934,0.0194 -0.57661,-0.67608 -0.38683,0.13674 0.0197,-0.53618 -0.18496,0.2041 -0.018,-0.35958 -0.17723,0.15976 -0.63309,-0.2423 -0.51547,0.11504 -0.0943,-0.35933 0.35424,-0.11081 -0.34518,-0.22141 -0.005,-0.56261 -0.24834,0.25565 -0.35337,-0.0457 0.23286,-0.78167 -0.24773,-0.21174 -0.40323,-0.90285 -0.56523,0.11935 -0.23461,-0.30113 z"
     class="us-bg"
     style="marker-end:" />
  <circle
     cy="350.33545"
     cx="183.03397"
     id="circle37"
     r="100.43327"
     style="opacity:0.6;fill:#2c3e50" />
  <circle
     cy="403.73285"
     cx="800.56512"
     id="circle39"
     r="71.910034"
     style="opacity:0.6;fill:#f1c40f" />
  <path
     class="arrow"
     d="m 353.14858,420.57369 c 60.08004,-67.01037 184.84423,-53.61492 251.8546,6.46511"
     style="stroke:#3498db;stroke-width:3;marker-end:url(#sf-to-ny-marker-primary)"
     id="path43"
     inkscape:connector-curvature="0" />
  <path
     class="arrow"
     d="m 627.31932,550.75607 c -60.08003,67.01037 -182.64782,93.89303 -249.65819,33.813"
     style="stroke:#2ecc71;stroke-width:9;marker-end:url(#sf-to-ny-marker-secondary)"
     id="path45"
     inkscape:connector-curvature="0" />
  <path
     class="arrow"
     d="m 696.09988,606.08986 c 139.56017,78.24933 126.02789,-169.9092 -4.19605,-76.94832"
     style="stroke:#2ecc71;stroke-width:21;marker-end:url(#sf-to-ny-marker-secondary)"
     id="path47"
     inkscape:connector-curvature="0" />
  <path
     class="arrow"
     d="M 282.39475,510.35353 C 142.83458,432.10419 158.03123,710.78441 288.25517,617.82354"
     style="stroke:#3498db;stroke-width:27;marker-end:url(#sf-to-ny-marker-primary)"
     id="path49"
     inkscape:connector-curvature="0" />
  <g
     id="g51"
     class="labels"
     transform="translate(0,100.59924)">
    <text
       id="text53"
       transform="translate(670.52935,202.08739)"
       style="text-anchor:middle">New York</text>
    <text
       id="text55"
       transform="translate(298.08862,250.92012)"
       style="text-anchor:middle">California</text>
    <text
       id="text57"
       transform="translate(853.29268,100.21086)"
       style="font-family:STIXGeneral-Italic">1  p = 0.7</text>
    <text
       id="text59"
       transform="translate(501.3187,198.98247)"
       style="font-family:STIXGeneral-Italic;text-anchor:middle">p = 0.3</text>
    <text
       id="text61"
       transform="translate(490.88058,34.429763)"
       style="font-family:STIXGeneral-Italic;text-anchor:middle">q = 0.1</text>
    <text
       id="text63"
       transform="translate(85.286856,142.09126)"
       style="font-family:STIXGeneral-Italic;text-anchor:end">1  q = 0.9</text>
    <text
       id="text65"
       transform="translate(298.08862,136.48685)"
       style="text-anchor:middle">38.33m</text>
    <text
       id="text67"
       transform="translate(670.52935,116.17736)"
       style="text-anchor:middle">19.65m</text>
  </g>
  <g
     id="g69"
     class="nobs"
     transform="translate(0,100.59924)">
    <g
       id="g71"
       transform="translate(398.52189,130.48685)"
       class="nob">
      <circle
         cy="0"
         cx="0"
         id="circle73"
         r="24.254999"
         class="nob" />
    </g>
    <g
       id="g75"
       transform="translate(742.43938,110.17736)"
       class="nob">
      <circle
         cy="0"
         cx="0"
         id="circle77"
         r="24.26"
         class="nob" />
    </g>
    <g
       id="g79"
       transform="translate(501.3187,218.98247)"
       class="nob">
      <circle
         cy="0"
         cx="0"
         id="circle81"
         r="24.26"
         class="nob" />
    </g>
    <g
       id="g83"
       transform="translate(490.88058,14.429763)"
       class="nob">
      <circle
         cy="0"
         cx="0"
         id="circle85"
         r="24.26"
         class="nob" />
    </g>
    <g
       id="g87"
       transform="translate(853.29268,100.21086)"
       class="nob">
      <circle
         cy="0"
         cx="0"
         id="circle89"
         r="24.26"
         class="nob" />
    </g>
    <g
       id="g91"
       transform="translate(85.286856,142.09126)"
       class="nob">
      <circle
         cy="0"
         cx="0"
         id="circle93"
         r="24.26"
         class="nob" />
    </g>
  </g>
</svg>
