<?xml version="1.0" encoding="UTF-8" standalone="no"?>
<!-- Created with Inkscape (http://www.inkscape.org/) -->

<svg
   width="200mm"
   height="200mm"
   viewBox="0 0 200 200.00001"
   version="1.1"
   id="svg48174"
   inkscape:version="1.2.2 (b0a8486541, 2022-12-01)"
   sodipodi:docname="artgins4.svg"
   inkscape:export-filename="artgins4.png"
   inkscape:export-xdpi="96"
   inkscape:export-ydpi="96"
   xmlns:inkscape="http://www.inkscape.org/namespaces/inkscape"
   xmlns:sodipodi="http://sodipodi.sourceforge.net/DTD/sodipodi-0.dtd"
   xmlns="http://www.w3.org/2000/svg"
   xmlns:svg="http://www.w3.org/2000/svg">
  <sodipodi:namedview
     id="namedview48176"
     pagecolor="#ffffff"
     bordercolor="#666666"
     borderopacity="1.0"
     inkscape:showpageshadow="2"
     inkscape:pageopacity="0.0"
     inkscape:pagecheckerboard="0"
     inkscape:deskcolor="#d1d1d1"
     inkscape:document-units="mm"
     showgrid="false"
     inkscape:zoom="0.70555556"
     inkscape:cx="358.58268"
     inkscape:cy="246.61417"
     inkscape:window-width="1920"
     inkscape:window-height="992"
     inkscape:window-x="0"
     inkscape:window-y="0"
     inkscape:window-maximized="1"
     inkscape:current-layer="layer1" />
  <defs
     id="defs48171" />
  <g
     inkscape:label="Layer 1"
     inkscape:groupmode="layer"
     id="layer1"
     transform="translate(-51.65075,-83.246349)">
    <path
       style="fill:#f57900;fill-opacity:1;stroke:#000000;stroke-width:0;stroke-linecap:butt;stroke-linejoin:miter;stroke-dasharray:none;stroke-opacity:1"
       d="m 166.40544,201.90504 c -2.67407,-0.53782 -5.28063,-0.68455 -7.84759,-0.58413 0.52779,-3.01217 1.04888,-6.02489 1.58168,-9.03594 0.28008,-1.5828 -0.78275,-3.17062 -2.37391,-3.35305 -1.59228,-0.18244 -3.11036,1.13367 -3.39043,2.7717 -0.58302,3.41108 -1.16046,6.82383 -1.74013,10.23602 -3.892,0.62318 -7.73322,1.58056 -11.61908,2.35996 0.48204,-2.85149 0.96575,-5.70353 1.44723,-8.55558 0.28063,-1.66816 -0.78443,-2.88329 -2.37559,-2.7784 -1.59228,0.10489 -3.10813,1.44778 -3.38876,3.08693 -0.52834,3.07409 -1.06394,6.14763 -1.59507,9.22172 -2.83866,0.33642 -5.72418,0.44856 -8.69283,0.14171 -1.61627,-0.395 -2.92681,0.34312 -2.92681,1.95939 0,1.61627 1.31054,3.49811 2.92681,3.89367 2.60935,0.26947 5.15511,0.21703 7.66069,-0.0284 -0.56572,3.25988 -1.13591,6.51864 -1.70665,9.7774 -2.58481,0.10489 -5.21034,-0.0396 -7.90394,-0.58134 -1.61627,-0.58079 -2.92681,-0.0151 -2.92681,1.60009 0,1.61627 1.31054,3.67218 2.92681,4.25241 2.33486,0.46976 4.61839,0.63825 6.86901,0.60756 -0.52611,2.98707 -1.04608,5.97524 -1.57777,8.96175 -0.28063,1.5694 0.78219,3.20632 2.37391,3.44733 1.59172,0.24046 3.1098,-1.03436 3.38987,-2.66514 0.58525,-3.41219 1.16381,-6.8255 1.74627,-10.2388 3.90036,-0.56461 7.74326,-1.50469 11.62298,-2.31088 -0.48482,2.87548 -0.97188,5.75208 -1.45559,8.62867 -0.28007,1.66928 0.78108,2.87883 2.37336,2.75218 1.59172,-0.1272 3.11036,-1.50245 3.39043,-3.14997 0.52723,-3.09306 1.06394,-6.18501 1.59451,-9.27696 3.15276,-0.43015 6.35852,-0.60924 9.66694,-0.2678 1.61572,0.39612 2.92681,-0.34311 2.92681,-1.95939 0,-1.61627 -1.31054,-3.4981 -2.92681,-3.89366 -2.94856,-0.30462 -5.81679,-0.19527 -8.63703,0.13668 0.56572,-3.27996 1.13591,-6.55825 1.70721,-9.83654 2.89891,-0.1869 5.84692,-0.0781 8.88028,0.53225 1.61683,0.58023 2.92681,0.0151 2.92681,-1.60065 0,-1.6146 -1.30998,-3.66995 -2.92681,-4.25073 z m -16.49801,16.12701 c -3.88642,0.77829 -7.72876,1.73622 -11.6202,2.36276 0.56907,-3.34692 1.13759,-6.69383 1.70443,-10.04075 3.89366,-0.74425 7.73545,-1.71 11.61851,-2.38842 -0.56795,3.35584 -1.13646,6.71057 -1.70274,10.06641 z"
       id="path23935" />
    <path
       style="fill:#008000;fill-opacity:1;stroke:#008000;stroke-width:0;stroke-linecap:butt;stroke-linejoin:miter;stroke-dasharray:none;stroke-opacity:1"
       d="m 59.305309,172.80834 c -0.387274,1.05426 -0.72076,1.44152 -1.667431,1.55986 l -1.828795,0.16136 v 4.49669 h 12.823081 v -4.72259 l -3.334862,-0.16137 1.667431,-4.88396 h 12.984446 l 1.161822,3.44244 c 0.387274,1.21561 -0.161364,1.54909 -1.323187,1.66743 l -2.119251,0.16136 v 4.49669 h 14.329148 v -4.72259 l -3.173497,-0.16137 h -0.05379 L 77.453411,142.11686 H 64.737906 v 4.49669 l 3.496226,0.33348 z m 14.146268,-24.47358 h 0.172121 l 4.991536,15.8137 H 68.298678 Z m 24.086307,24.47358 c 0,1.38774 -0.548633,1.72122 -1.602887,1.8288 l -1.828793,0.17213 v 4.21698 h 14.867026 v -4.38911 l -4.83017,-0.21515 v -12.87687 c 0,-3.21653 2.05471,-5.60472 5.05608,-5.60472 0.61319,0 1.00046,0.0537 1.4953,0.2797 0.44107,0.21515 0.55941,0.72076 0.55941,1.38773 v 2.54955 l 5.16365,-0.38726 v -8.27262 c -1.83955,-0.88212 -3.50698,-1.21561 -5.33578,-1.21561 -3.65758,0 -6.60518,2.21607 -7.87457,4.99154 v -4.1632 h -9.380644 v 4.49668 l 2.32365,0.16137 c 1.054244,0.0646 1.387728,0.45182 1.387728,1.66743 z m 28.367836,-27.58253 c -1.17258,3.16274 -2.49577,6.16412 -6.39003,6.4976 l -0.54863,4.04487 h 3.93728 v 14.824 c 0,3.88349 -0.0538,9.20852 8.6061,9.20852 2.60334,0 5.37881,-0.77455 7.04624,-1.93638 l -1.66743,-4.28152 c -0.88213,0.55939 -2.26986,1.17257 -3.77593,1.17257 -2.26985,0 -3.6038,-1.00046 -3.6038,-4.3891 v -14.59809 h 6.8311 l 0.54863,-4.65805 h -7.37973 v -5.88442 z m 44.22457,20.86978 c 0,-1.33394 0.45182,-1.72122 1.61364,-1.82879 l 1.28016,-0.11834 v -4.43213 h -13.82354 v 4.71183 l 4.27077,0.17212 h 0.0646 v 8.26186 c -1.1188,0.72076 -3.72213,1.33394 -5.88441,1.33394 -6.77731,0 -9.66035,-5.27123 -9.66035,-13.9849 0,-8.27261 3.27032,-13.26415 10.71459,-13.26415 1.60289,0 3.04441,0.10758 4.09865,0.44106 1.00046,0.33349 1.17258,0.78531 1.17258,1.83956 v 4.32456 l 5.65851,-0.38728 v -9.43442 c -3.3241,-1.55986 -7.15381,-2.28062 -10.87596,-2.28062 -7.9929,0 -17.70703,4.83017 -17.70703,19.20234 0,12.87687 6.27168,19.04099 16.3193,19.04099 5.16366,0 9.71413,-1.44152 12.75854,-3.55001 z m 16.15794,-14.98536 h -9.94003 v 4.60426 l 1.94712,0.11833 c 1.05425,0 1.38774,0.38728 1.38774,1.60289 v 15.42643 c 0,1.33394 -0.61319,1.66742 -1.61365,1.775 l -1.8288,0.17213 v 4.21698 h 13.21036 v -4.44289 l -3.16274,-0.16137 z m -8.16503,-7.71322 c 0,2.33441 1.66743,4.04487 4.21699,4.04487 2.50652,0 4.28153,-1.71046 4.28153,-4.04487 0,-2.33439 -1.77501,-4.16319 -4.21699,-4.16319 -2.6141,0 -4.28153,1.8288 -4.28153,4.16319 z m 14.21081,12.15612 2.3344,0.16136 c 1.00046,0.0537 1.38774,0.50561 1.38774,1.72122 v 15.37263 c 0,1.38774 -0.55939,1.72122 -1.61365,1.8288 l -1.82879,0.17213 v 4.21698 h 13.21036 v -4.44289 l -3.16274,-0.16137 v -13.43626 c 0,-2.88305 2.0547,-5.60473 5.7123,-5.60473 3.77591,0 4.55047,2.33441 4.55047,5.992 v 11.43534 c 0,1.38774 -0.54865,1.72122 -1.60289,1.8288 l -1.83955,0.17213 v 4.21698 h 13.21035 v -4.44289 l -3.16274,-0.16137 v -14.49052 c 0,-6.54063 -3.27032,-9.64958 -8.82125,-9.64958 -3.66834,0 -7.04623,1.65668 -8.99336,4.43215 v -3.60381 h -9.38065 z m 48.17262,-0.22592 c 1.00046,0.38728 1.28015,0.82835 1.28015,1.88259 v 2.3344 l 4.99154,-0.38727 v -6.65897 c -2.16228,-1.05424 -5.4326,-2.21607 -9.20852,-2.21607 -5.83063,0 -10.71459,3.04441 -10.71459,8.82125 0,6.16412 4.49669,7.55185 8.6061,8.6061 2.99061,0.77454 5.43259,1.26939 5.43259,3.93728 0,2.33441 -1.60288,3.38866 -4.37835,3.38866 -1.33394,0 -2.6141,-0.17213 -3.66834,-0.55941 -1.00046,-0.38726 -1.26941,-0.82833 -1.26941,-1.88258 v -2.66789 l -5.00228,0.38728 v 7.71321 c 2.33439,1.16182 6.72351,1.72122 10.21973,1.72122 5.9382,0 10.70383,-3.10895 10.70383,-8.87504 0,-6.05653 -4.76563,-7.44427 -9.10094,-8.65988 -2.60335,-0.72076 -5.27124,-1.4953 -5.27124,-4.05562 0,-2.21607 1.77501,-3.32411 4.1632,-3.32411 1.33395,0 2.16228,0.10759 3.21653,0.49485 z"
       id="path23931" />
  </g>
</svg>
