<?xml version="1.0" encoding="UTF-8" standalone="no"?>
<!-- Created with Inkscape (http://www.inkscape.org/) -->

<svg
   width="443.21957mm"
   height="297.87418mm"
   viewBox="0 0 443.2196 297.87417"
   version="1.1"
   id="svg22898"
   inkscape:version="1.2.2 (b0a8486541, 2022-12-01)"
   sodipodi:docname="artgins2.svg"
   xmlns:inkscape="http://www.inkscape.org/namespaces/inkscape"
   xmlns:sodipodi="http://sodipodi.sourceforge.net/DTD/sodipodi-0.dtd"
   xmlns="http://www.w3.org/2000/svg"
   xmlns:svg="http://www.w3.org/2000/svg">
  <sodipodi:namedview
     id="namedview22900"
     pagecolor="#ffffff"
     bordercolor="#666666"
     borderopacity="1.0"
     inkscape:showpageshadow="2"
     inkscape:pageopacity="0.0"
     inkscape:pagecheckerboard="0"
     inkscape:deskcolor="#d1d1d1"
     inkscape:document-units="mm"
     showgrid="false"
     inkscape:zoom="0.70555556"
     inkscape:cx="815.66929"
     inkscape:cy="497.48031"
     inkscape:window-width="1920"
     inkscape:window-height="992"
     inkscape:window-x="0"
     inkscape:window-y="0"
     inkscape:window-maximized="1"
     inkscape:current-layer="layer1" />
  <defs
     id="defs22895" />
  <g
     inkscape:label="Layer 1"
     inkscape:groupmode="layer"
     id="layer1"
     transform="translate(152.61229,43.182291)">
    <path
       style="fill:none;stroke:#000000;stroke-width:0.8441px;stroke-linecap:butt;stroke-linejoin:miter;stroke-opacity:1"
       d="m 256.82098,124.46024 -0.45621,-0.0319 c -1.7451,-0.24885 -2.95422,-1.86633 -2.70857,-3.61143 l 6.38061,-44.66424 c 0.24884,-1.74191 1.8759,-2.95422 3.61142,-2.70538 1.7451,0.24884 2.95741,1.86314 2.70857,3.60823 l -6.38061,44.66425 c -0.22651,1.59515 -1.59196,2.74047 -3.15521,2.74047 z m -19.14182,0 -0.45621,-0.0319 c -1.74191,-0.24885 -2.95422,-1.86633 -2.70538,-3.61143 l 6.38061,-44.66424 c 0.24884,-1.7451 1.85037,-2.95741 3.61142,-2.70538 1.74191,0.24884 2.95422,1.86633 2.70538,3.61142 l -6.38061,44.66425 c -0.2297,1.59196 -1.59196,2.73728 -3.15521,2.73728 z m 35.09015,-31.90303 h -41.47394 c -1.76105,0 -3.19031,-1.42926 -3.19031,-3.19031 0,-1.76104 1.42926,-3.1903 3.19031,-3.1903 h 41.47394 c 1.76424,0 3.1903,1.42926 3.1903,3.1903 0,1.76105 -1.42606,3.19031 -3.1903,3.19031 z m -3.1903,19.14182 h -41.47395 c -1.76105,0 -3.1903,-1.42607 -3.1903,-3.19031 0,-1.76423 1.42925,-3.1903 3.1903,-3.1903 h 41.47395 c 1.76423,0 3.1903,1.42607 3.1903,3.1903 0,1.76424 -1.42607,3.19031 -3.1903,3.19031 z"
       id="path23859" />
    <path
       style="fill:none;stroke:#000000;stroke-width:0.264583px;stroke-linecap:butt;stroke-linejoin:miter;stroke-opacity:1"
       d="m 127.755,205.175 1.5,-0.31 -11.15,26.2 q -0.36,0.98 -1.1,1.53 -0.75,0.54 -1.63,0.54 v 0 q -1.39,0 -2.06,-0.78 -0.67,-0.77 -0.67,-1.9 v 0 q 0,-0.47 0.15,-0.98 v 0 l 12.85,-30.86 q 0.41,-1.03 1.26,-1.6 0.85,-0.56 1.83,-0.46 v 0 q 0.93,0 1.73,0.54 0.8,0.54 1.16,1.52 v 0 l 12.69,30.24 q 0.26,0.67 0.26,1.23 v 0 q 0,1.4 -0.9,2.22 -0.91,0.83 -1.99,0.83 v 0 q -0.93,0 -1.68,-0.57 -0.74,-0.57 -1.16,-1.55 v 0 z m 9.7,19.6 h -17.75 l 2.84,-5.93 h 13.93 z m 14.09,8.1 v 0 q -1.35,0 -2.22,-0.9 -0.88,-0.91 -0.88,-2.25 v 0 -21.3 q 0,-1.35 0.88,-2.25 0.87,-0.9 2.22,-0.9 v 0 q 1.34,0 2.21,0.9 0.88,0.9 0.88,2.25 v 0 4.85 l -0.36,-3.46 q 0.57,-1.24 1.47,-2.19 0.9,-0.96 2.04,-1.6 1.13,-0.65 2.42,-0.96 1.29,-0.31 2.58,-0.31 v 0 q 1.55,0 2.61,0.88 1.06,0.88 1.06,2.06 v 0 q 0,1.71 -0.88,2.45 -0.88,0.75 -1.91,0.75 v 0 q -0.98,0 -1.78,-0.36 -0.8,-0.36 -1.83,-0.36 v 0 q -0.93,0 -1.89,0.44 -0.95,0.44 -1.75,1.37 -0.8,0.92 -1.29,2.29 -0.49,1.37 -0.49,3.23 v 0 12.22 q 0,1.34 -0.88,2.25 -0.87,0.9 -2.21,0.9 z m 19.6,-27.09 v 0 h 12.23 q 1.23,0 2.06,0.83 0.83,0.83 0.83,2.06 v 0 q 0,1.19 -0.83,1.99 -0.83,0.8 -2.06,0.8 v 0 h -12.23 q -1.24,0 -2.06,-0.83 -0.83,-0.82 -0.83,-2.06 v 0 q 0,-1.19 0.83,-1.99 0.82,-0.8 2.06,-0.8 z m 5.52,-6.44 v 0 q 1.34,0 2.19,0.9 0.85,0.9 0.85,2.24 v 0 22.96 q 0,0.72 0.29,1.19 0.28,0.46 0.77,0.67 0.49,0.2 1.06,0.2 v 0 q 0.62,0 1.13,-0.23 0.52,-0.23 1.19,-0.23 v 0 q 0.72,0 1.32,0.67 0.59,0.67 0.59,1.86 v 0 q 0,1.44 -1.57,2.37 -1.58,0.93 -3.38,0.93 v 0 q -1.09,0 -2.4,-0.18 -1.32,-0.18 -2.48,-0.88 -1.16,-0.69 -1.93,-2.14 -0.78,-1.44 -0.78,-3.97 v 0 -23.22 q 0,-1.34 0.91,-2.24 0.9,-0.9 2.24,-0.9 z m 32.81,34.05 v 0 q -3.92,0 -7.32,-1.45 -3.41,-1.44 -5.99,-4 -2.58,-2.55 -4.05,-5.9 -1.47,-3.36 -1.47,-7.23 v 0 q 0,-3.87 1.47,-7.22 1.47,-3.35 4.05,-5.91 2.58,-2.55 5.99,-3.99 3.4,-1.45 7.32,-1.45 v 0 q 2.43,0 4.7,0.52 2.27,0.51 4.18,1.54 v 0 q 0.77,0.42 1.16,1.11 0.38,0.7 0.38,1.42 v 0 q 0,1.24 -0.82,2.22 -0.83,0.98 -2.12,0.98 v 0 q -0.41,0 -0.85,-0.1 -0.44,-0.11 -0.85,-0.31 v 0 q -1.29,-0.57 -2.73,-0.88 -1.45,-0.31 -3.05,-0.31 v 0 q -3.35,0 -6.11,1.68 -2.76,1.67 -4.39,4.49 -1.62,2.81 -1.62,6.21 v 0 q 0,3.36 1.62,6.19 1.63,2.84 4.39,4.52 2.76,1.68 6.11,1.68 v 0 q 1.55,0 3.41,-0.31 1.85,-0.31 3.04,-0.83 v 0 l -0.46,1.55 v -8.82 l 0.87,0.77 h -5.72 q -1.34,0 -2.25,-0.88 -0.9,-0.87 -0.9,-2.22 v 0 q 0,-1.34 0.9,-2.21 0.91,-0.88 2.25,-0.88 v 0 h 8.46 q 1.34,0 2.22,0.9 0.87,0.9 0.87,2.25 v 0 10.93 q 0,1.03 -0.49,1.71 -0.49,0.67 -1.11,1.08 v 0 q -2.37,1.44 -5.18,2.29 -2.81,0.86 -5.91,0.86 z m 24.2,-24.97 v 21.3 q 0,1.34 -0.88,2.25 -0.88,0.9 -2.22,0.9 v 0 q -1.34,0 -2.22,-0.9 -0.87,-0.91 -0.87,-2.25 v 0 -21.3 q 0,-1.35 0.87,-2.25 0.88,-0.9 2.22,-0.9 v 0 q 1.34,0 2.22,0.9 0.88,0.9 0.88,2.25 z m -3.15,-6.5 v 0 q -1.75,0 -2.48,-0.57 -0.72,-0.57 -0.72,-2.01 v 0 -0.98 q 0,-1.5 0.8,-2.04 0.8,-0.54 2.45,-0.54 v 0 q 1.81,0 2.53,0.56 0.72,0.57 0.72,2.02 v 0 0.98 q 0,1.49 -0.77,2.03 -0.78,0.55 -2.53,0.55 z m 24.25,2.83 v 0 q 3.82,0 5.8,1.6 1.99,1.6 2.74,4.26 0.74,2.66 0.74,5.91 v 0 13.2 q 0,1.34 -0.87,2.25 -0.88,0.9 -2.22,0.9 v 0 q -1.34,0 -2.22,-0.9 -0.88,-0.91 -0.88,-2.25 v 0 -13.2 q 0,-1.71 -0.43,-3.07 -0.44,-1.37 -1.58,-2.2 -1.13,-0.82 -3.25,-0.82 v 0 q -2.06,0 -3.48,0.82 -1.42,0.83 -2.17,2.2 -0.75,1.36 -0.75,3.07 v 0 13.2 q 0,1.34 -0.87,2.25 -0.88,0.9 -2.22,0.9 v 0 q -1.34,0 -2.22,-0.9 -0.88,-0.91 -0.88,-2.25 v 0 -21.3 q 0,-1.35 0.88,-2.25 0.88,-0.9 2.22,-0.9 v 0 q 1.34,0 2.22,0.9 0.87,0.9 0.87,2.25 v 0 2.21 l -0.77,-0.15 q 0.46,-0.88 1.34,-1.88 0.88,-1.01 2.07,-1.89 1.18,-0.87 2.68,-1.42 1.49,-0.54 3.25,-0.54 z m 14.39,23.84 v 0 q -0.51,-0.72 -0.46,-1.86 0.05,-1.13 1.34,-1.96 v 0 q 0.82,-0.52 1.75,-0.44 0.93,0.08 1.81,0.96 v 0 q 1.5,1.49 3.15,2.32 1.65,0.82 4.12,0.82 v 0 q 0.78,-0.05 1.71,-0.23 0.92,-0.18 1.62,-0.82 0.7,-0.65 0.7,-1.99 v 0 q 0,-1.14 -0.78,-1.81 -0.77,-0.67 -2.03,-1.13 -1.27,-0.47 -2.82,-0.88 v 0 q -1.6,-0.46 -3.27,-1.03 -1.68,-0.57 -3.07,-1.47 -1.39,-0.9 -2.27,-2.4 -0.88,-1.5 -0.88,-3.77 v 0 q 0,-2.58 1.45,-4.38 1.44,-1.81 3.74,-2.79 2.29,-0.98 4.82,-0.98 v 0 q 1.6,0 3.35,0.39 1.76,0.39 3.36,1.24 1.6,0.85 2.68,2.24 v 0 q 0.57,0.78 0.67,1.86 0.1,1.08 -0.98,1.96 v 0 q -0.77,0.62 -1.81,0.54 -1.03,-0.08 -1.7,-0.69 v 0 q -0.88,-1.14 -2.35,-1.81 -1.47,-0.67 -3.37,-0.67 v 0 q -0.78,0 -1.68,0.18 -0.9,0.18 -1.58,0.77 -0.67,0.6 -0.67,1.89 v 0 q 0,1.18 0.78,1.88 0.77,0.7 2.09,1.13 1.31,0.44 2.81,0.86 v 0 q 1.55,0.41 3.15,0.98 1.6,0.56 2.94,1.49 1.34,0.93 2.16,2.4 0.83,1.47 0.83,3.74 v 0 q 0,2.63 -1.55,4.49 -1.55,1.86 -3.87,2.81 -2.32,0.96 -4.74,0.96 v 0 q -3.05,0 -6.09,-1.06"
       id="path23925" />
    <path
       style="fill:none;stroke:#000000;stroke-width:0.264583px;stroke-linecap:butt;stroke-linejoin:miter;stroke-opacity:1"
       d="m 28.28,85.67 h -5.31 l -0.57,3.22 h 4.65 v 4.87 h -5.56 l -1.41,7.49 h -5.14 l 1.4,-7.49 h -3.22 l -1.36,7.49 H 6.64 L 8.02,93.76 H 3.71 V 88.89 H 8.96 L 9.55,85.67 H 4.99 v -4.98 h 5.5 l 1.38,-7.46 h 5.14 l -1.42,7.46 h 3.18 l 1.38,-7.46 h 5.14 l -1.4,7.46 h 4.39 z m -13.63,0 -0.57,3.22 h 3.16 l 0.59,-3.22 z m 42.84,15.58 H 49.21 L 47.83,96 h -9.11 l -1.41,5.25 h -8.32 l 9.14,-28.13 h 10.1 z M 40.3,89.79 h 5.96 l -1.21,-4.6 q -0.42,-1.53 -1.03,-3.97 -0.6,-2.43 -0.79,-3.49 v 0 q -0.17,0.98 -0.68,3.22 -0.51,2.25 -2.25,8.84 z M 73.18,79.15 v 0 q 0.98,0 1.86,0.16 v 0 l 0.42,0.07 -0.67,7.07 q -0.92,-0.23 -2.55,-0.23 v 0 q -2.45,0 -3.56,1.13 -1.11,1.12 -1.11,3.22 v 0 10.68 h -7.5 V 79.54 h 5.58 L 66.82,83 h 0.36 q 0.94,-1.72 2.62,-2.78 1.68,-1.07 3.38,-1.07 z m 15.95,16.56 v 0 q 1.51,0 3.62,-0.75 v 0 5.47 q -1.51,0.65 -2.88,0.93 -1.37,0.27 -3.21,0.27 v 0 q -3.78,0 -5.45,-1.85 -1.66,-1.85 -1.66,-5.68 v 0 -8.95 H 76.92 V 82.1 l 3.34,-2.35 1.93,-4.56 h 4.91 v 4.35 h 5.33 v 5.61 H 87.1 v 8.45 q 0,2.11 2.03,2.11 z m 19.11,-5.02 v -5.85 h 12.09 v 15.11 q -4.93,1.68 -10.83,1.68 v 0 q -6.48,0 -10.01,-3.75 -3.54,-3.76 -3.54,-10.72 v 0 q 0,-6.78 3.87,-10.56 3.87,-3.77 10.85,-3.77 v 0 q 2.65,0 4.99,0.5 2.35,0.49 4.09,1.26 v 0 l -2.39,5.94 q -3.03,-1.49 -6.65,-1.49 v 0 q -3.32,0 -5.13,2.15 -1.81,2.16 -1.81,6.17 v 0 q 0,3.92 1.64,5.98 1.64,2.06 4.72,2.06 v 0 q 1.69,0 3.11,-0.32 v 0 -4.39 z m 24.89,-11.15 v 21.71 h -7.49 V 79.54 Z m -7.68,-5.41 v 0 q 0,-1.69 0.94,-2.51 0.93,-0.82 3.02,-0.82 v 0 q 2.09,0 3.05,0.84 0.96,0.84 0.96,2.49 v 0 q 0,3.3 -4.01,3.3 v 0 q -3.96,0 -3.96,-3.3 z m 34.11,27.12 h -7.49 V 89.41 q 0,-2.17 -0.63,-3.27 -0.62,-1.1 -2,-1.1 v 0 q -1.9,0 -2.74,1.51 -0.84,1.51 -0.84,5.19 v 0 9.51 h -7.5 V 79.54 h 5.66 l 0.94,2.68 h 0.44 q 0.96,-1.53 2.65,-2.3 1.7,-0.77 3.9,-0.77 v 0 q 3.61,0 5.61,2.09 2,2.09 2,5.89 v 0 z m 21.87,-6.67 v 0 q 0,3.49 -2.38,5.27 -2.37,1.78 -6.82,1.78 v 0 q -2.42,0 -4.2,-0.26 -1.78,-0.25 -3.64,-0.94 v 0 -6 q 1.74,0.76 3.82,1.26 2.08,0.5 3.71,0.5 v 0 q 2.44,0 2.44,-1.11 v 0 q 0,-0.58 -0.68,-1.03 Q 173,93.6 169.72,92.3 v 0 q -2.99,-1.23 -4.18,-2.79 -1.19,-1.56 -1.19,-3.96 v 0 q 0,-3.02 2.34,-4.71 2.34,-1.69 6.61,-1.69 v 0 q 2.15,0 4.04,0.47 1.88,0.47 3.92,1.37 v 0 l -2.04,4.83 q -1.49,-0.67 -3.16,-1.14 -1.67,-0.47 -2.72,-0.47 v 0 q -1.84,0 -1.84,0.9 v 0 q 0,0.56 0.64,0.95 0.64,0.39 3.71,1.6 v 0 q 2.28,0.94 3.4,1.84 1.12,0.9 1.65,2.12 0.53,1.22 0.53,2.96 z"
       id="path23927" />
    <path
       style="fill:none;stroke:#000000;stroke-width:0.264583px;stroke-linecap:butt;stroke-linejoin:miter;stroke-opacity:1"
       d="m 16.715,169.5 1.87,-9.68 h -7.65 l -1.86,9.68 h -5.89 l 1.87,-9.68 h -4.4 v -5.22 h 5.39 l 1.6,-8.31 h -6.99 v -5.17 h 7.98 l 1.87,-9.74 h 5.88 l -1.87,9.74 h 7.65 l 1.87,-9.74 h 5.88 l -1.87,9.74 h 4.46 v 5.17 h -5.45 l -1.59,8.31 h 7.04 v 5.22 h -8.04 l -1.86,9.68 z m -3.19,-23.21 -1.6,8.31 h 7.65 l 1.6,-8.31 z m 58.85,23.21 h -7.48 q -0.77,-2.25 -1.6,-4.46 -0.82,-2.2 -1.59,-4.5 v 0 h -16.06 q -0.77,2.3 -1.57,4.53 -0.79,2.23 -1.56,4.43 v 0 h -7.21 q 2.15,-6.11 4.07,-11.28 1.93,-5.17 3.77,-9.79 1.84,-4.61 3.65,-8.79 1.82,-4.19 3.74,-8.26 v 0 h 6.55 q 1.93,4.07 3.74,8.26 1.82,4.18 3.66,8.79 1.84,4.62 3.79,9.79 1.96,5.17 4.1,11.28 z m -18.7,-30.75 v 0 q -1.27,2.92 -2.89,7.1 -1.62,4.18 -3.38,9.08 v 0 h 12.54 q -1.76,-4.9 -3.41,-9.14 -1.65,-4.23 -2.86,-7.04 z m 40.76,2.37 -1.16,5.61 q -0.82,-0.28 -2.28,-0.58 -1.46,-0.3 -3.38,-0.3 v 0 q -1.1,0 -2.34,0.22 -1.24,0.22 -1.73,0.38 v 0 23.05 h -6.66 v -27.39 q 1.93,-0.72 4.81,-1.35 2.89,-0.63 6.41,-0.63 v 0 q 0.66,0 1.54,0.08 0.88,0.08 1.76,0.22 0.88,0.14 1.71,0.33 0.82,0.19 1.32,0.36 z m 4.28,16.94 v -24.91 l 6.66,-1.1 v 8.68 h 10.23 v 5.56 h -10.23 v 11.72 q 0,3.46 1.1,4.95 1.1,1.48 3.74,1.48 v 0 q 1.82,0 3.22,-0.39 1.4,-0.38 2.22,-0.71 v 0 l 1.1,5.28 q -1.15,0.49 -3.02,1.02 -1.87,0.52 -4.4,0.52 v 0 q -3.08,0 -5.14,-0.83 -2.07,-0.82 -3.27,-2.39 -1.22,-1.57 -1.71,-3.79 -0.5,-2.23 -0.5,-5.09 z m 41.47,-21.45 v 0 q -5.88,0 -8.99,3.66 -3.1,3.66 -3.1,10.14 v 0 q 0,3.09 0.74,5.64 0.74,2.56 2.2,4.38 1.45,1.81 3.63,2.83 2.17,1.02 5.09,1.02 v 0 q 1.81,0 3.13,-0.14 1.32,-0.14 2.09,-0.36 v 0 -13.69 h 6.93 v 18.31 q -1.43,0.55 -4.84,1.21 -3.41,0.66 -7.87,0.66 v 0 q -4.12,0 -7.53,-1.32 -3.41,-1.32 -5.8,-3.85 -2.4,-2.53 -3.72,-6.22 -1.32,-3.68 -1.32,-8.47 v 0 q 0,-4.78 1.46,-8.46 1.46,-3.69 3.99,-6.25 2.53,-2.55 5.94,-3.87 3.41,-1.32 7.26,-1.32 v 0 q 2.64,0 4.7,0.35 2.06,0.36 3.55,0.8 1.48,0.44 2.45,0.93 0.96,0.5 1.34,0.72 v 0 l -2.08,5.67 q -1.65,-1 -4.1,-1.68 -2.45,-0.69 -5.15,-0.69 z m 26.13,4.12 v 28.77 h -6.66 v -28.77 z m 0.72,-8.41 v 0 q 0,1.87 -1.22,2.97 -1.2,1.1 -2.85,1.1 v 0 q -1.71,0 -2.92,-1.1 -1.21,-1.1 -1.21,-2.97 v 0 q 0,-1.92 1.21,-3.02 1.21,-1.1 2.92,-1.1 v 0 q 1.65,0 2.85,1.1 1.22,1.1 1.22,3.02 z m 7.75,37.18 v -27.83 q 1.93,-0.55 5.01,-1.05 3.08,-0.49 6.82,-0.49 v 0 q 3.52,0 5.88,0.96 2.37,0.96 3.77,2.7 1.4,1.73 1.98,4.18 0.58,2.44 0.58,5.36 v 0 16.17 h -6.66 v -15.13 q 0,-2.3 -0.3,-3.93 -0.3,-1.62 -0.99,-2.64 -0.69,-1.01 -1.87,-1.48 -1.18,-0.47 -2.89,-0.47 v 0 q -1.26,0 -2.64,0.17 -1.37,0.16 -2.04,0.27 v 0 23.21 z m 39.38,-4.79 v 0 q 2.64,0 3.85,-0.63 1.21,-0.63 1.21,-2.17 v 0 q 0,-1.43 -1.29,-2.37 -1.29,-0.93 -4.26,-2.03 v 0 q -1.82,-0.66 -3.33,-1.4 -1.51,-0.74 -2.61,-1.74 -1.1,-0.98 -1.74,-2.39 -0.63,-1.4 -0.63,-3.44 v 0 q 0,-3.95 2.92,-6.24 2.91,-2.28 7.92,-2.28 v 0 q 2.53,0 4.84,0.47 2.31,0.46 3.46,0.9 v 0 l -1.21,5.4 q -1.1,-0.5 -2.8,-0.91 -1.71,-0.42 -3.96,-0.42 v 0 q -2.04,0 -3.3,0.69 -1.27,0.69 -1.27,2.12 v 0 q 0,0.71 0.25,1.27 0.25,0.55 0.85,1.01 0.61,0.47 1.6,0.94 0.99,0.46 2.42,0.96 v 0 q 2.36,0.88 4.01,1.73 1.65,0.86 2.72,1.93 1.08,1.07 1.57,2.44 0.5,1.38 0.5,3.3 v 0 q 0,4.13 -3.06,6.25 -3.05,2.11 -8.71,2.11 v 0 q -3.8,0 -6.11,-0.63 -2.31,-0.63 -3.24,-1.02 v 0 l 1.15,-5.55 q 1.49,0.61 3.55,1.16 2.06,0.54 4.7,0.54 z"
       id="path23929" />
    <path
       style="fill:none;stroke:#000000;stroke-width:0.264583px;stroke-linecap:butt;stroke-linejoin:miter;stroke-opacity:1"
       d="m 112.26,45.97 c -0.36,0.98 -0.67,1.34 -1.55,1.45 l -1.7,0.15 v 4.18 h 11.92 v -4.39 l -3.1,-0.15 1.55,-4.54 h 12.07 l 1.08,3.2 c 0.36,1.13 -0.15,1.44 -1.23,1.55 l -1.97,0.15 v 4.18 h 13.32 v -4.39 l -2.95,-0.15 h -0.05 L 129.13,17.44 h -11.82 v 4.18 l 3.25,0.31 z m 13.15,-22.75 h 0.16 l 4.64,14.7 h -9.59 z m 22.39,22.75 c 0,1.29 -0.51,1.6 -1.49,1.7 l -1.7,0.16 v 3.92 h 13.82 v -4.08 l -4.49,-0.2 V 35.5 c 0,-2.99 1.91,-5.21 4.7,-5.21 0.57,0 0.93,0.05 1.39,0.26 0.41,0.2 0.52,0.67 0.52,1.29 v 2.37 l 4.8,-0.36 v -7.69 c -1.71,-0.82 -3.26,-1.13 -4.96,-1.13 -3.4,0 -6.14,2.06 -7.32,4.64 V 25.8 h -8.72 v 4.18 l 2.16,0.15 c 0.98,0.06 1.29,0.42 1.29,1.55 z m 26.37,-25.64 c -1.09,2.94 -2.32,5.73 -5.94,6.04 l -0.51,3.76 h 3.66 v 13.78 c 0,3.61 -0.05,8.56 8,8.56 2.42,0 5,-0.72 6.55,-1.8 l -1.55,-3.98 c -0.82,0.52 -2.11,1.09 -3.51,1.09 -2.11,0 -3.35,-0.93 -3.35,-4.08 V 30.13 h 6.35 l 0.51,-4.33 h -6.86 v -5.47 z m 41.11,19.4 c 0,-1.24 0.42,-1.6 1.5,-1.7 l 1.19,-0.11 V 33.8 h -12.85 v 4.38 l 3.97,0.16 h 0.06 v 7.68 c -1.04,0.67 -3.46,1.24 -5.47,1.24 -6.3,0 -8.98,-4.9 -8.98,-13 0,-7.69 3.04,-12.33 9.96,-12.33 1.49,0 2.83,0.1 3.81,0.41 0.93,0.31 1.09,0.73 1.09,1.71 v 4.02 l 5.26,-0.36 v -8.77 c -3.09,-1.45 -6.65,-2.12 -10.11,-2.12 -7.43,0 -16.46,4.49 -16.46,17.85 0,11.97 5.83,17.7 15.17,17.7 4.8,0 9.03,-1.34 11.86,-3.3 z M 230.3,25.8 h -9.24 v 4.28 l 1.81,0.11 c 0.98,0 1.29,0.36 1.29,1.49 v 14.34 c 0,1.24 -0.57,1.55 -1.5,1.65 l -1.7,0.16 v 3.92 h 12.28 v -4.13 l -2.94,-0.15 z m -7.59,-7.17 c 0,2.17 1.55,3.76 3.92,3.76 2.33,0 3.98,-1.59 3.98,-3.76 0,-2.17 -1.65,-3.87 -3.92,-3.87 -2.43,0 -3.98,1.7 -3.98,3.87 z m 13.21,11.3 2.17,0.15 c 0.93,0.05 1.29,0.47 1.29,1.6 v 14.29 c 0,1.29 -0.52,1.6 -1.5,1.7 l -1.7,0.16 v 3.92 h 12.28 v -4.13 l -2.94,-0.15 V 34.98 c 0,-2.68 1.91,-5.21 5.31,-5.21 3.51,0 4.23,2.17 4.23,5.57 v 10.63 c 0,1.29 -0.51,1.6 -1.49,1.7 l -1.71,0.16 v 3.92 h 12.28 V 47.62 L 261.2,47.47 V 34 c 0,-6.08 -3.04,-8.97 -8.2,-8.97 -3.41,0 -6.55,1.54 -8.36,4.12 V 25.8 h -8.72 z m 44.78,-0.21 c 0.93,0.36 1.19,0.77 1.19,1.75 v 2.17 l 4.64,-0.36 v -6.19 c -2.01,-0.98 -5.05,-2.06 -8.56,-2.06 -5.42,0 -9.96,2.83 -9.96,8.2 0,5.73 4.18,7.02 8,8 2.78,0.72 5.05,1.18 5.05,3.66 0,2.17 -1.49,3.15 -4.07,3.15 -1.24,0 -2.43,-0.16 -3.41,-0.52 -0.93,-0.36 -1.18,-0.77 -1.18,-1.75 v -2.48 l -4.65,0.36 v 7.17 c 2.17,1.08 6.25,1.6 9.5,1.6 5.52,0 9.95,-2.89 9.95,-8.25 0,-5.63 -4.43,-6.92 -8.46,-8.05 -2.42,-0.67 -4.9,-1.39 -4.9,-3.77 0,-2.06 1.65,-3.09 3.87,-3.09 1.24,0 2.01,0.1 2.99,0.46 z"
       id="path23931" />
    <path
       style="fill:none;stroke:#000000;stroke-width:0.264583px;stroke-linecap:butt;stroke-linejoin:miter;stroke-opacity:1"
       d="m 26.72,-15.2 h -7.89 l 1.98,-10.21 h 7.9 z m 11.52,5.45 1.08,-5.45 h -6.58 l 1.98,-10.21 h 6.58 l 1.05,-5.45 h -6.58 l 1.85,-9.56 h -5.98 l -1.86,9.56 h -7.89 l 1.85,-9.56 H 17.7 l -1.86,9.56 H 9.27 l -1.05,5.45 h 6.55 L 12.78,-15.2 H 6.23 l -1.07,5.45 h 6.58 L 9.86,0 h 6.01 l 1.91,-9.75 h 7.89 L 23.77,0 h 6.01 l 1.88,-9.75 z M 76.3,0 c 0,0 -6.8,-36.82 -7.47,-40.39 H 62.28 L 39.1,0 h 7.41 l 4.97,-8.73 H 66.9 L 68.51,0 Z M 55,-15.15 c 0,0 6.36,-11.84 8.54,-16 h 0.19 c 0.91,5.77 2.31,15.95 2.31,15.95 z m 47.64,-13.45 c -1.15,-0.89 -2.9,-1.37 -4.13,-1.26 -3.33,0.32 -5.32,2.23 -7.42,4.43 l 0.27,-3.92 H 85.7 L 79.98,0 h 6.66 l 3.62,-18.61 c 1.96,-3.04 3.9,-4.81 6.58,-4.81 0.62,0 1.5,0.27 2.82,0.78 z m 17.81,4.7 1.04,-5.48 h -6.15 l 1.67,-8.84 -7.22,2.48 -1.24,6.36 h -4.54 l -1.07,5.48 h 4.54 l -3.2,16.41 c -0.78,4.03 -0.16,7.87 6.77,7.87 1.29,0 2.49,-0.3 4.59,-0.94 l 0.13,-4.97 c -1.58,0.24 -2.06,0.4 -2.71,0.4 -1.93,0 -2.28,-1.05 -1.99,-2.58 l 3.17,-16.19 z m 30.5,23.9 4.11,-21.27 h -15.2 l -1.15,6.02 h 8.27 l -0.83,4.27 c -2.61,2.76 -6.42,4.96 -9.7,4.96 -6.6,0 -8.24,-5.61 -6.58,-14.2 1.4,-7.12 5.64,-13.89 12.65,-13.89 2.93,0 5.83,1 8.09,5.27 l 6.01,-3.76 c -2.12,-5.7 -8.03,-8.3 -12.92,-8.3 -13.37,0 -19.28,10.96 -21.1,20.33 -2.13,10.9 -0.14,21.32 12.32,21.32 3.06,0 6.8,-1.45 10.58,-4.62 L 145.07,0 Z m 14.37,0 5.75,-29.35 h -9.7 l -1.07,5.48 h 3.03 L 158.66,0 Z m -0.56,-38.4 c -0.51,2.57 1.31,4.62 3.7,4.62 2.39,0 5.03,-2.05 5.54,-4.62 0.48,-2.58 -1.32,-4.65 -3.74,-4.65 -2.39,0 -5.02,2.07 -5.5,4.65 z m 12.97,9.05 L 172.04,0 h 6.82 l 3.57,-18.4 c 1.77,-2.55 4.4,-5.15 7.2,-5.15 3.43,0 4.11,2.5 3.46,5.8 L 189.63,0 h 6.79 l 3.47,-17.72 c 1.26,-6.53 0.21,-12.65 -7.55,-12.12 -3.12,0.22 -5.8,1.51 -8.86,4.54 l 0.53,-4.05 z m 24.38,23.31 c 2.02,4.78 6.07,6.77 10.91,6.77 5.72,0 11.14,-2.96 12.3,-8.92 1.85,-9.59 -13.51,-8.65 -12.57,-13.16 0.4,-1.96 2.55,-2.66 4.38,-2.66 2.2,0 4.24,1.4 5.66,3.3 l 4.78,-2.9 c -1.53,-3.86 -5.9,-6.23 -9.83,-6.23 -5.69,0 -10.17,2.53 -11.3,8.33 -1.83,9.34 13.29,8.43 12.32,13.05 -0.48,2.36 -3.43,3.22 -5.47,3.22 -2.98,0 -4.97,-1.8 -6.05,-3.97 z"
       id="path23933" />
    <path
       style="fill:none;stroke:#000000;stroke-width:0.264583px;stroke-linecap:butt;stroke-linejoin:miter;stroke-opacity:1"
       d="m -19.285,187.47 c -4.793,-0.964 -9.465,-1.227 -14.066,-1.047 0.946,-5.399 1.88,-10.799 2.835,-16.196 0.502,-2.837 -1.403,-5.683 -4.255,-6.01 -2.854,-0.327 -5.575,2.032 -6.077,4.968 -1.045,6.114 -2.08,12.231 -3.119,18.347 -6.976,1.117 -13.861,2.833 -20.826,4.23 0.864,-5.111 1.731,-10.223 2.594,-15.335 0.503,-2.99 -1.406,-5.168 -4.258,-4.98 -2.854,0.188 -5.571,2.595 -6.074,5.533 -0.947,5.51 -1.907,11.019 -2.859,16.529 -5.088,0.603 -10.26,0.804 -15.581,0.254 -2.897,-0.708 -5.246,0.615 -5.246,3.512 0,2.897 2.349,6.27 5.246,6.979 4.677,0.483 9.24,0.389 13.731,-0.051 -1.014,5.843 -2.036,11.684 -3.059,17.525 -4.633,0.188 -9.339,-0.071 -14.167,-1.042 -2.897,-1.041 -5.246,-0.027 -5.246,2.868 0,2.897 2.349,6.582 5.246,7.622 4.185,0.842 8.278,1.144 12.312,1.089 -0.943,5.354 -1.875,10.71 -2.828,16.063 -0.503,2.813 1.402,5.747 4.255,6.179 2.853,0.431 5.574,-1.854 6.076,-4.777 1.049,-6.116 2.086,-12.234 3.13,-18.352 6.991,-1.012 13.879,-2.697 20.833,-4.142 -0.869,5.154 -1.742,10.31 -2.609,15.466 -0.502,2.992 1.4,5.16 4.254,4.933 2.853,-0.228 5.575,-2.693 6.077,-5.646 0.945,-5.544 1.907,-11.086 2.858,-16.628 5.651,-0.771 11.397,-1.092 17.327,-0.48 2.896,0.71 5.246,-0.615 5.246,-3.512 0,-2.897 -2.349,-6.27 -5.246,-6.979 -5.285,-0.546 -10.426,-0.35 -15.481,0.245 1.014,-5.879 2.036,-11.755 3.06,-17.631 5.196,-0.335 10.48,-0.14 15.917,0.954 2.898,1.04 5.246,0.027 5.246,-2.869 0,-2.894 -2.348,-6.578 -5.246,-7.619 z m -29.571,28.906 c -6.966,1.395 -13.853,3.112 -20.828,4.235 1.02,-5.999 2.039,-11.998 3.055,-17.997 6.979,-1.334 13.865,-3.065 20.825,-4.281 -1.018,6.015 -2.037,12.028 -3.052,18.043 z"
       id="path23935" />
    <path
       style="fill:none;stroke:#000000;stroke-width:0.264583px;stroke-linecap:butt;stroke-linejoin:miter;stroke-opacity:1"
       d="m 93.762708,205.77771 c 1.825631,-1.36162 3.993955,-1.99698 5.999999,-3.00001 0.250003,-0.12499 0.517433,-0.21995 0.750003,-0.37499 0.14709,-0.0981 0.21688,-0.29595 0.375,-0.375 0.1118,-0.0559 0.28661,0.0884 0.375,0 0.0884,-0.0884 0,-0.25 0,-0.375"
       id="path23937" />
    <path
       style="fill:none;stroke:#000000;stroke-width:0.264583px;stroke-linecap:butt;stroke-linejoin:miter;stroke-opacity:1"
       d="m -137.38,25.195 1.49,-0.31 -11.13,26.19 q -0.36,0.98 -1.11,1.52 -0.75,0.54 -1.62,0.54 v 0 q -1.39,0 -2.06,-0.78 -0.67,-0.77 -0.67,-1.9 v 0 q 0,-0.47 0.15,-0.98 v 0 l 12.84,-30.83 q 0.41,-1.03 1.26,-1.59 0.85,-0.57 1.83,-0.47 v 0 q 0.93,0 1.72,0.54 0.8,0.54 1.16,1.52 v 0 l 12.68,30.21 q 0.26,0.67 0.26,1.24 v 0 q 0,1.39 -0.9,2.21 -0.9,0.83 -1.98,0.83 v 0 q -0.93,0 -1.68,-0.57 -0.75,-0.57 -1.16,-1.55 v 0 z m 9.69,19.59 h -17.73 l 2.83,-5.93 h 13.92 z m 14.07,8.09 v 0 q -1.34,0 -2.22,-0.9 -0.87,-0.9 -0.87,-2.24 v 0 -21.29 q 0,-1.34 0.87,-2.25 0.88,-0.9 2.22,-0.9 v 0 q 1.34,0 2.22,0.9 0.87,0.91 0.87,2.25 v 0 4.84 l -0.36,-3.45 q 0.57,-1.24 1.47,-2.19 0.9,-0.96 2.04,-1.6 1.13,-0.64 2.42,-0.95 1.29,-0.31 2.58,-0.31 v 0 q 1.54,0 2.6,0.87 1.06,0.88 1.06,2.07 v 0 q 0,1.7 -0.88,2.44 -0.87,0.75 -1.91,0.75 v 0 q -0.97,0 -1.77,-0.36 -0.8,-0.36 -1.83,-0.36 v 0 q -0.93,0 -1.88,0.44 -0.96,0.44 -1.76,1.36 -0.8,0.93 -1.29,2.3 -0.49,1.36 -0.49,3.22 v 0 12.22 q 0,1.34 -0.87,2.24 -0.88,0.9 -2.22,0.9 z m 19.59,-27.06 v 0 h 12.22 q 1.23,0 2.06,0.82 0.82,0.83 0.82,2.06 v 0 q 0,1.19 -0.82,1.99 -0.83,0.8 -2.06,0.8 v 0 h -12.22 q -1.24,0 -2.06,-0.83 -0.83,-0.82 -0.83,-2.06 v 0 q 0,-1.18 0.83,-1.98 0.82,-0.8 2.06,-0.8 z m 5.51,-6.45 v 0 q 1.34,0 2.2,0.91 0.85,0.9 0.85,2.24 v 0 22.94 q 0,0.72 0.28,1.18 0.28,0.47 0.77,0.67 0.49,0.21 1.06,0.21 v 0 q 0.62,0 1.13,-0.23 0.52,-0.23 1.19,-0.23 v 0 q 0.72,0 1.31,0.67 0.6,0.67 0.6,1.85 v 0 q 0,1.44 -1.58,2.37 -1.57,0.93 -3.37,0.93 v 0 q -1.08,0 -2.4,-0.18 -1.31,-0.18 -2.47,-0.88 -1.16,-0.69 -1.94,-2.14 -0.77,-1.44 -0.77,-3.96 v 0 -23.2 q 0,-1.34 0.9,-2.24 0.9,-0.91 2.24,-0.91 z m 32.79,34.03 v 0 q -3.92,0 -7.32,-1.45 -3.4,-1.44 -5.98,-3.99 -2.58,-2.55 -4.05,-5.9 -1.47,-3.36 -1.47,-7.22 v 0 q 0,-3.87 1.47,-7.22 1.47,-3.35 4.05,-5.9 2.58,-2.55 5.98,-3.99 3.4,-1.45 7.32,-1.45 v 0 q 2.42,0 4.69,0.52 2.27,0.51 4.17,1.54 v 0 q 0.78,0.42 1.16,1.11 0.39,0.7 0.39,1.42 v 0 q 0,1.24 -0.82,2.22 -0.83,0.98 -2.12,0.98 v 0 q -0.41,0 -0.85,-0.11 -0.44,-0.1 -0.85,-0.31 v 0 q -1.29,-0.56 -2.73,-0.87 -1.44,-0.31 -3.04,-0.31 v 0 q -3.35,0 -6.11,1.67 -2.76,1.68 -4.38,4.49 -1.63,2.81 -1.63,6.21 v 0 q 0,3.35 1.63,6.18 1.62,2.84 4.38,4.51 2.76,1.68 6.11,1.68 v 0 q 1.54,0 3.4,-0.31 1.86,-0.31 3.04,-0.82 v 0 l -0.46,1.54 v -8.81 l 0.87,0.77 h -5.72 q -1.34,0 -2.24,-0.88 -0.9,-0.87 -0.9,-2.21 v 0 q 0,-1.34 0.9,-2.22 0.9,-0.87 2.24,-0.87 v 0 h 8.46 q 1.34,0 2.21,0.9 0.88,0.9 0.88,2.24 v 0 10.93 q 0,1.03 -0.49,1.7 -0.49,0.67 -1.11,1.08 v 0 q -2.37,1.44 -5.18,2.29 -2.81,0.86 -5.9,0.86 z m 24.17,-24.95 v 21.29 q 0,1.34 -0.87,2.24 -0.88,0.9 -2.22,0.9 v 0 q -1.34,0 -2.22,-0.9 -0.87,-0.9 -0.87,-2.24 v 0 -21.29 q 0,-1.34 0.87,-2.25 0.88,-0.9 2.22,-0.9 v 0 q 1.34,0 2.22,0.9 0.87,0.91 0.87,2.25 z m -3.14,-6.5 v 0 q -1.75,0 -2.48,-0.56 -0.72,-0.57 -0.72,-2.02 v 0 -0.97 q 0,-1.5 0.8,-2.04 0.8,-0.54 2.45,-0.54 v 0 q 1.8,0 2.53,0.57 0.72,0.56 0.72,2.01 v 0 0.97 q 0,1.5 -0.78,2.04 -0.77,0.54 -2.52,0.54 z m 24.23,2.84 v 0 q 3.81,0 5.79,1.6 1.99,1.59 2.74,4.25 0.74,2.65 0.74,5.9 v 0 13.2 q 0,1.34 -0.87,2.24 -0.88,0.9 -2.22,0.9 v 0 q -1.34,0 -2.22,-0.9 -0.87,-0.9 -0.87,-2.24 v 0 -13.2 q 0,-1.7 -0.44,-3.07 -0.44,-1.36 -1.57,-2.19 -1.14,-0.82 -3.25,-0.82 v 0 q -2.06,0 -3.48,0.82 -1.42,0.83 -2.16,2.19 -0.75,1.37 -0.75,3.07 v 0 13.2 q 0,1.34 -0.88,2.24 -0.87,0.9 -2.21,0.9 v 0 q -1.34,0 -2.22,-0.9 -0.88,-0.9 -0.88,-2.24 v 0 -21.29 q 0,-1.34 0.88,-2.25 0.88,-0.9 2.22,-0.9 v 0 q 1.34,0 2.21,0.9 0.88,0.91 0.88,2.25 v 0 2.21 l -0.77,-0.15 q 0.46,-0.88 1.34,-1.88 0.87,-1.01 2.06,-1.88 1.18,-0.88 2.68,-1.42 1.49,-0.54 3.25,-0.54 z m 14.38,23.81 v 0 q -0.52,-0.72 -0.47,-1.85 0.05,-1.14 1.34,-1.96 v 0 q 0.83,-0.52 1.76,-0.44 0.92,0.08 1.8,0.95 v 0 q 1.5,1.5 3.14,2.32 1.65,0.83 4.13,0.83 v 0 q 0.77,-0.05 1.7,-0.23 0.93,-0.19 1.62,-0.83 0.7,-0.64 0.7,-1.98 v 0 q 0,-1.14 -0.77,-1.81 -0.78,-0.67 -2.04,-1.13 -1.26,-0.47 -2.81,-0.88 v 0 q -1.6,-0.46 -3.27,-1.03 -1.68,-0.57 -3.07,-1.47 -1.39,-0.9 -2.27,-2.4 -0.87,-1.49 -0.87,-3.76 v 0 q 0,-2.58 1.44,-4.38 1.44,-1.8 3.74,-2.78 2.29,-0.98 4.82,-0.98 v 0 q 1.59,0 3.35,0.38 1.75,0.39 3.35,1.24 1.59,0.85 2.68,2.24 v 0 q 0.56,0.78 0.67,1.86 0.1,1.08 -0.98,1.96 v 0 q -0.78,0.62 -1.81,0.54 -1.03,-0.08 -1.7,-0.7 v 0 q -0.87,-1.13 -2.34,-1.8 -1.47,-0.67 -3.38,-0.67 v 0 q -0.77,0 -1.67,0.18 -0.91,0.18 -1.58,0.77 -0.67,0.6 -0.67,1.88 v 0 q 0,1.19 0.78,1.89 0.77,0.69 2.08,1.13 1.32,0.44 2.81,0.85 v 0 q 1.55,0.41 3.15,0.98 1.6,0.57 2.94,1.49 1.34,0.93 2.16,2.4 0.83,1.47 0.83,3.74 v 0 q 0,2.63 -1.55,4.48 -1.55,1.86 -3.87,2.81 -2.32,0.96 -4.74,0.96 v 0 q -3.04,0 -6.08,-1.06 -3.04,-1.06 -5.05,-3.74 z"
       id="path23939" />
  </g>
</svg>
