<?xml version="1.0" encoding="UTF-8" standalone="no"?>
<!-- Created with Inkscape (http://www.inkscape.org/) -->

<svg
   width="230.3138mm"
   height="50.420033mm"
   viewBox="0 0 230.3138 50.420033"
   version="1.1"
   id="svg26009"
   inkscape:version="1.2.2 (b0a8486541, 2022-12-01)"
   sodipodi:docname="artgins3.svg"
   inkscape:export-filename="artgins3.png"
   inkscape:export-xdpi="96"
   inkscape:export-ydpi="96"
   xmlns:inkscape="http://www.inkscape.org/namespaces/inkscape"
   xmlns:sodipodi="http://sodipodi.sourceforge.net/DTD/sodipodi-0.dtd"
   xmlns="http://www.w3.org/2000/svg"
   xmlns:svg="http://www.w3.org/2000/svg">
  <sodipodi:namedview
     id="namedview26011"
     pagecolor="#ffffff"
     bordercolor="#666666"
     borderopacity="1.0"
     inkscape:showpageshadow="2"
     inkscape:pageopacity="0.0"
     inkscape:pagecheckerboard="0"
     inkscape:deskcolor="#d1d1d1"
     inkscape:document-units="mm"
     showgrid="false"
     inkscape:zoom="0.70555556"
     inkscape:cx="303.30709"
     inkscape:cy="273.54331"
     inkscape:window-width="1920"
     inkscape:window-height="992"
     inkscape:window-x="0"
     inkscape:window-y="0"
     inkscape:window-maximized="1"
     inkscape:current-layer="layer1" />
  <defs
     id="defs26006" />
  <g
     inkscape:label="Layer 1"
     inkscape:groupmode="layer"
     id="layer1"
     transform="translate(-3.6634993,-75.938632)">
    <path
       style="fill:#f57900;fill-opacity:1;stroke:#000000;stroke-width:0;stroke-linecap:butt;stroke-linejoin:miter;stroke-dasharray:none;stroke-opacity:1"
       d="m 48.534694,88.928695 c -2.674073,-0.537827 -5.280638,-0.684558 -7.847592,-0.584134 0.527785,-3.012167 1.048875,-6.024892 1.581681,-9.035943 0.280072,-1.582797 -0.782751,-3.170615 -2.373916,-3.353052 -1.592281,-0.182437 -3.11036,1.133677 -3.390431,2.771707 -0.583018,3.411075 -1.160457,6.823823 -1.740128,10.236013 -3.891995,0.623185 -7.733219,1.580563 -11.619077,2.359966 0.482036,-2.851487 0.965746,-5.703533 1.447224,-8.55558 0.28063,-1.668157 -0.784424,-2.883289 -2.375589,-2.778402 -1.592281,0.104888 -3.108129,1.447782 -3.388758,3.086928 -0.528343,3.074095 -1.063939,6.147633 -1.595071,9.221726 -2.838657,0.336421 -5.724178,0.448561 -8.6928279,0.14171 -1.6162712,-0.395002 -2.9268066,0.343116 -2.9268066,1.959387 0,1.616271 1.3105354,3.498109 2.9268066,3.893668 2.6093549,0.269472 5.1551079,0.217028 7.6606909,-0.02845 -0.565723,3.259881 -1.135909,6.518641 -1.706653,9.777401 -2.584807,0.10489 -5.2103411,-0.0396 -7.9039405,-0.58134 -1.6162713,-0.58079 -2.9268067,-0.0151 -2.9268067,1.60009 0,1.61627 1.3105354,3.67218 2.9268067,4.25241 2.334862,0.46976 4.6183965,0.63825 6.8690135,0.60756 -0.526111,2.98707 -1.046085,5.97524 -1.577775,8.96175 -0.28063,1.5694 0.782192,3.20632 2.373915,3.44733 1.591723,0.24046 3.109802,-1.03436 3.389874,-2.66514 0.58525,-3.41219 1.163805,-6.8255 1.746265,-10.2388 3.900363,-0.56461 7.743261,-1.50469 11.622982,-2.31088 -0.484826,2.87548 -0.971883,5.75208 -1.455593,8.62867 -0.280072,1.66928 0.781077,2.87883 2.373358,2.75218 1.591723,-0.1272 3.11036,-1.50245 3.390432,-3.14997 0.527227,-3.09306 1.063938,-6.18501 1.594513,-9.27696 3.152761,-0.43015 6.358523,-0.60924 9.666942,-0.2678 1.615713,0.39612 2.926807,-0.34311 2.926807,-1.95939 0,-1.61627 -1.310536,-3.4981 -2.926807,-3.89366 -2.948565,-0.30462 -5.816791,-0.19527 -8.637037,0.13668 0.565723,-3.27996 1.135909,-6.558249 1.707211,-9.83654 2.898911,-0.186901 5.846919,-0.07811 8.880287,0.532248 1.616829,0.580228 2.926806,0.01506 2.926806,-1.60065 0,-1.614597 -1.309977,-3.669945 -2.926806,-4.25073 z M 32.036676,105.0557 c -3.886416,0.77829 -7.728756,1.73622 -11.620193,2.36276 0.569071,-3.34692 1.137583,-6.69383 1.704422,-10.040747 3.893668,-0.744254 7.73545,-1.71 11.618518,-2.388421 -0.567954,3.355841 -1.136466,6.710568 -1.702747,10.066408 z"
       id="path23935" />
    <path
       style="fill:#008000;stroke:#008000;stroke-width:0;stroke-linecap:butt;stroke-linejoin:miter;stroke-opacity:1;fill-opacity:1;stroke-dasharray:none"
       d="m 58.905,115.855 c -0.36,0.98 -0.67,1.34 -1.55,1.45 l -1.7,0.15 v 4.18 h 11.92 v -4.39 l -3.1,-0.15 1.55,-4.54 h 12.07 l 1.08,3.2 c 0.36,1.13 -0.15,1.44 -1.23,1.55 l -1.97,0.15 v 4.18 h 13.32 v -4.39 l -2.95,-0.15 h -0.05 l -10.52,-29.77 h -11.82 v 4.18 l 3.25,0.31 z m 13.15,-22.75 h 0.16 l 4.64,14.7 h -9.59 z m 22.39,22.75 c 0,1.29 -0.51,1.6 -1.49,1.7 l -1.7,0.16 v 3.92 h 13.82 v -4.08 l -4.49,-0.2 v -11.97 c 0,-2.99 1.91,-5.21 4.7,-5.21 0.57,0 0.93,0.05 1.39,0.26 0.41,0.2 0.52,0.67 0.52,1.29 v 2.37 l 4.8,-0.36 v -7.69 c -1.71,-0.82 -3.26,-1.13 -4.96,-1.13 -3.4,0 -6.14,2.06 -7.32,4.64 v -3.87 h -8.72 v 4.18 l 2.16,0.15 c 0.98,0.06 1.29,0.42 1.29,1.55 z m 26.37,-25.64 c -1.09,2.94 -2.32,5.73 -5.94,6.04 l -0.51,3.76 h 3.66 v 13.78 c 0,3.61 -0.05,8.56 8,8.56 2.42,0 5,-0.72 6.55,-1.8 l -1.55,-3.98 c -0.82,0.52 -2.11,1.09 -3.51,1.09 -2.11,0 -3.35,-0.93 -3.35,-4.08 v -13.57 h 6.35 l 0.51,-4.33 h -6.86 v -5.47 z m 41.11,19.4 c 0,-1.24 0.42,-1.6 1.5,-1.7 l 1.19,-0.11 v -4.12 h -12.85 v 4.38 l 3.97,0.16 h 0.06 v 7.68 c -1.04,0.67 -3.46,1.24 -5.47,1.24 -6.3,0 -8.98,-4.9 -8.98,-13 0,-7.69 3.04,-12.33 9.96,-12.33 1.49,0 2.83,0.1 3.81,0.41 0.93,0.31 1.09,0.73 1.09,1.71 v 4.02 l 5.26,-0.36 v -8.77 c -3.09,-1.45 -6.65,-2.12 -10.11,-2.12 -7.43,0 -16.46,4.49 -16.46,17.85 0,11.97 5.83,17.7 15.17,17.7 4.8,0 9.03,-1.34 11.86,-3.3 z m 15.02,-13.93 h -9.24 v 4.28 l 1.81,0.11 c 0.98,0 1.29,0.36 1.29,1.49 v 14.34 c 0,1.24 -0.57,1.55 -1.5,1.65 l -1.7,0.16 v 3.92 h 12.28 v -4.13 l -2.94,-0.15 z m -7.59,-7.17 c 0,2.17 1.55,3.76 3.92,3.76 2.33,0 3.98,-1.59 3.98,-3.76 0,-2.17 -1.65,-3.87 -3.92,-3.87 -2.43,0 -3.98,1.7 -3.98,3.87 z m 13.21,11.3 2.17,0.15 c 0.93,0.05 1.29,0.47 1.29,1.6 v 14.29 c 0,1.29 -0.52,1.6 -1.5,1.7 l -1.7,0.16 v 3.92 h 12.28 v -4.13 l -2.94,-0.15 v -12.49 c 0,-2.68 1.91,-5.21 5.31,-5.21 3.51,0 4.23,2.17 4.23,5.57 v 10.63 c 0,1.29 -0.51,1.6 -1.49,1.7 l -1.71,0.16 v 3.92 h 12.28 v -4.13 l -2.94,-0.15 v -13.47 c 0,-6.08 -3.04,-8.97 -8.2,-8.97 -3.41,0 -6.55,1.54 -8.36,4.12 v -3.35 h -8.72 z m 44.78,-0.21 c 0.93,0.36 1.19,0.77 1.19,1.75 v 2.17 l 4.64,-0.36 v -6.19 c -2.01,-0.98 -5.05,-2.06 -8.56,-2.06 -5.42,0 -9.96,2.83 -9.96,8.2 0,5.73 4.18,7.02 8,8 2.78,0.72 5.05,1.18 5.05,3.66 0,2.17 -1.49,3.15 -4.07,3.15 -1.24,0 -2.43,-0.16 -3.41,-0.52 -0.93,-0.36 -1.18,-0.77 -1.18,-1.75 v -2.48 l -4.65,0.36 v 7.17 c 2.17,1.08 6.25,1.6 9.5,1.6 5.52,0 9.95,-2.89 9.95,-8.25 0,-5.63 -4.43,-6.92 -8.46,-8.05 -2.42,-0.67 -4.9,-1.39 -4.9,-3.77 0,-2.06 1.65,-3.09 3.87,-3.09 1.24,0 2.01,0.1 2.99,0.46 z"
       id="path23931" />
  </g>
</svg>
