<?xml version="1.0" encoding="UTF-8" standalone="no"?>
<!-- Created with Inkscape (http://www.inkscape.org/) -->

<svg
   width="115.86053mm"
   height="21.782312mm"
   viewBox="0 0 115.86053 21.782313"
   version="1.1"
   id="svg338"
   inkscape:version="1.2.2 (b0a8486541, 2022-12-01)"
   sodipodi:docname="artgins.svg"
   xmlns:inkscape="http://www.inkscape.org/namespaces/inkscape"
   xmlns:sodipodi="http://sodipodi.sourceforge.net/DTD/sodipodi-0.dtd"
   xmlns="http://www.w3.org/2000/svg"
   xmlns:svg="http://www.w3.org/2000/svg">
  <sodipodi:namedview
     id="namedview340"
     pagecolor="#ffffff"
     bordercolor="#666666"
     borderopacity="1.0"
     inkscape:showpageshadow="2"
     inkscape:pageopacity="0.0"
     inkscape:pagecheckerboard="0"
     inkscape:deskcolor="#d1d1d1"
     inkscape:document-units="mm"
     showgrid="false"
     inkscape:zoom="1.9956125"
     inkscape:cx="150.32979"
     inkscape:cy="46.101134"
     inkscape:window-width="1920"
     inkscape:window-height="992"
     inkscape:window-x="0"
     inkscape:window-y="0"
     inkscape:window-maximized="1"
     inkscape:current-layer="layer1" />
  <defs
     id="defs335" />
  <g
     inkscape:label="Layer 1"
     inkscape:groupmode="layer"
     id="layer1"
     transform="translate(-37.850945,-106.29934)">
    <path
       d="m 66.509135,109.54069 h 3.968754 l 1.245747,16.4593 h -3.230124 l -0.154341,-4.06797 h -4.409726 l -1.78594,4.06797 h -3.296271 z m 1.708769,9.71242 -0.220487,-6.69176 -2.910419,6.69176 z"
       style="font-style:italic;font-weight:bold;font-size:22.5778px;line-height:1.25;font-family:Hack;-inkscape-font-specification:'Hack Bold Italic';display:inline;fill:#008000;fill-opacity:1;stroke-width:0.264583"
       id="path622" />
    <path
       d="m 77.467305,113.65276 h 2.91042 l -0.06615,1.91823 q 0.683508,-1.05834 1.763891,-1.6316 1.080383,-0.58429 2.392276,-0.58429 1.400089,0 2.414326,0.62839 l -0.584289,3.03168 q -1.04731,-0.92604 -2.65686,-0.92604 -1.807988,0 -2.811201,1.00321 -0.992189,0.99219 -1.422137,3.2191 l -1.102432,5.68855 H 75.05298 Z"
       style="font-style:italic;font-weight:bold;font-size:22.5778px;line-height:1.25;font-family:Hack;-inkscape-font-specification:'Hack Bold Italic';display:inline;fill:#008000;fill-opacity:1;stroke-width:0.264583"
       id="path624" />
    <path
       d="m 95.073138,126.05511 q -2.116669,0 -3.130906,-0.62838 -1.003213,-0.63941 -1.003213,-1.98438 0,-0.54019 0.198438,-1.56545 l 1.113456,-5.74367 h -3.163979 l 0.474045,-2.48047 h 3.163979 l 0.672484,-3.50574 h 3.230125 l -0.683508,3.50574 h 4.222311 l -0.474043,2.48047 h -4.222314 l -1.157553,5.93108 q -0.07717,0.41893 -0.07717,0.60634 0,0.47404 0.363802,0.69453 0.363803,0.20946 1.168578,0.20946 h 2.480471 l -0.474046,2.48047 z"
       style="font-style:italic;font-weight:bold;font-size:22.5778px;line-height:1.25;font-family:Hack;-inkscape-font-specification:'Hack Bold Italic';display:inline;fill:#008000;fill-opacity:1;stroke-width:0.264583"
       id="path626" />
    <path
       d="m 107.60779,126.3197 q -1.41112,0 -2.43638,-0.41893 -1.01423,-0.41892 -1.70877,-1.16857 -0.7717,-0.83785 -1.12448,-1.99541 -0.34175,-1.15755 -0.34175,-2.55764 0,-1.05833 0.18741,-2.24896 0.19844,-1.20165 0.60634,-2.39227 0.35278,-1.03629 0.88195,-2.01745 0.54019,-0.98117 1.24574,-1.78594 0.4961,-0.56224 1.11346,-1.03629 0.62839,-0.48507 1.40009,-0.82682 1.44418,-0.62839 3.09783,-0.62839 0.90399,0 1.77492,0.19844 0.35277,0.0882 0.80477,0.23151 0.452,0.14332 0.90399,0.3638 l -0.7276,3.61598 q -0.56224,-0.74966 -1.32292,-1.12448 -0.79375,-0.38585 -1.64262,-0.38585 -0.42995,0 -0.80478,0.0882 -0.37482,0.0882 -0.69453,0.23151 -0.33073,0.15434 -0.65043,0.38585 -0.30868,0.22049 -0.62839,0.57327 -0.25356,0.2756 -0.452,0.57326 -0.19843,0.29766 -0.38585,0.63941 -0.17639,0.31971 -0.34175,0.69453 -0.16537,0.37483 -0.31971,0.84888 -0.35277,1.05833 -0.54019,2.08359 -0.18741,1.06936 -0.18741,1.86311 0,0.904 0.19844,1.51033 0.20946,0.59532 0.50712,0.95912 0.37482,0.46302 0.88194,0.66146 0.51814,0.19844 1.11346,0.19844 0.4079,0 0.73863,-0.0992 0.13229,-0.0331 0.28663,-0.0882 0.15434,-0.0551 0.3197,-0.17639 l 0.62839,-3.20807 h -2.27101 l 0.54019,-2.73403 h 5.07119 l -1.53238,7.81624 q -0.78273,0.65043 -1.85209,1.00321 -1.11345,0.35278 -2.33715,0.35278 z"
       style="font-style:italic;font-weight:bold;font-size:22.5778px;line-height:1.25;font-family:Hack;-inkscape-font-specification:'Hack Bold Italic';display:inline;fill:#008000;fill-opacity:1;stroke-width:0.264583"
       id="path628" />
    <path
       d="m 121.24487,111.41482 q -0.30868,0 -0.30868,-0.28663 l 0.62838,-3.18603 q 0.0551,-0.29766 0.35278,-0.29766 h 2.56867 q 0.30868,0 0.30868,0.28664 l -0.62839,3.18602 q -0.0441,0.29766 -0.35278,0.29766 z m 1.28984,14.67337 q -2.14974,0 -3.14193,-0.62839 -0.99219,-0.62839 -0.99219,-1.9954 0,-0.62839 0.20947,-1.55443 l 1.32291,-5.77674 h -2.60174 l 0.47405,-2.48047 h 5.82084 l -1.83004,8.41155 q -0.0992,0.39688 -0.0992,0.67248 0,0.87093 1.54341,0.87093 h 3.06476 l -0.4961,2.48047 z"
       style="font-style:italic;font-weight:bold;font-size:22.5778px;line-height:1.25;font-family:Hack;-inkscape-font-specification:'Hack Bold Italic';display:inline;fill:#008000;fill-opacity:1;stroke-width:0.264583"
       id="path630" />
    <path
       d="M 131.1006,113.65276 H 134 v 1.85208 q 0.50712,-1.02526 1.43316,-1.5875 0.93707,-0.56224 2.10564,-0.56224 1.37804,0 2.11667,0.7717 0.74966,0.77171 0.74966,2.18282 0,0.63941 -0.19844,1.66467 l -1.55443,8.0257 h -3.23012 l 1.46623,-7.51858 q 0.11024,-0.59531 0.11024,-1.04731 0,-1.43316 -1.19062,-1.43316 -0.91502,0 -1.58751,0.8158 -0.67248,0.80477 -0.94809,2.24896 l -1.33394,6.93429 h -3.23012 z"
       style="font-style:italic;font-weight:bold;font-size:22.5778px;line-height:1.25;font-family:Hack;-inkscape-font-specification:'Hack Bold Italic';display:inline;fill:#008000;fill-opacity:1;stroke-width:0.264583"
       id="path632" />
    <path
       d="m 147.06382,126.3197 q -2.17179,0 -4.42075,-0.7717 l 0.56224,-2.82223 q 1.98437,1.2678 4.05695,1.2678 1.20165,0 1.88515,-0.42995 0.69454,-0.42995 0.69454,-1.19063 0,-0.46302 -0.34176,-0.71658 -0.44097,-0.35278 -1.79696,-0.73863 l -0.97014,-0.26458 q -2.60174,-0.71658 -2.60174,-3.175 0,-1.88516 1.49931,-2.99862 1.51033,-1.12448 4.21129,-1.12448 0.95911,0 1.89618,0.16537 0.94809,0.15434 1.97335,0.51814 l -0.55121,2.80018 q -1.7198,-1.17961 -3.627,-1.17961 -1.11346,0 -1.75287,0.39688 -0.63941,0.38585 -0.63941,1.02526 0,0.49609 0.41892,0.80478 0.46302,0.3197 1.80799,0.70555 l 0.8158,0.23151 q 1.40009,0.39688 2.05052,1.1796 0.66146,0.77171 0.66146,2.01745 0,2.00643 -1.5434,3.15296 -1.54341,1.14653 -4.28846,1.14653 z"
       style="font-style:italic;font-weight:bold;font-size:22.5778px;line-height:1.25;font-family:Hack;-inkscape-font-specification:'Hack Bold Italic';display:inline;fill:#008000;fill-opacity:1;stroke-width:0.264583"
       id="path634" />
    <path
       style="fill:#008000;fill-opacity:1;stroke:none;stroke-width:0.709777"
       d="m 138.69547,67.5 c 0.17461,-0.682087 2.18764,-10.886811 4.47339,-22.677165 l 4.15591,-21.437008 h 5.1762 5.1762 v 3.524658 3.524658 l 3.05964,-3.059644 c 4.96805,-4.968052 12.70492,-6.743644 18.78463,-4.311025 l 2.7391,1.09597 -1.0282,5.167305 -1.0282,5.167304 -2.55506,-1.302644 c -3.52633,-1.797829 -11.30314,-1.77728 -14.86235,0.03927 -5.42183,2.767188 -7.05672,6.290735 -10.06377,21.689582 -1.21779,6.23622 -2.37671,11.896653 -2.57537,12.57874 -0.30538,1.048472 -1.24288,1.240158 -6.0654,1.240158 -5.08106,0 -5.66951,-0.135476 -5.38672,-1.240159 z"
       id="path994"
       transform="matrix(0.26458333,0,0,0.26458333,38.548003,107.6445)" />
    <path
       style="fill:#f57900;fill-opacity:1;stroke:#000000;stroke-width:0;stroke-linecap:butt;stroke-linejoin:miter;stroke-dasharray:none;stroke-opacity:1"
       d="m 57.236,111.91125 c -1.155241,-0.23234 -2.281319,-0.29574 -3.390283,-0.25236 0.228012,-1.3013 0.453131,-2.60285 0.683312,-3.90367 0.120994,-0.6838 -0.338161,-1.36976 -1.02557,-1.44857 -0.687889,-0.0788 -1.343724,0.48977 -1.464718,1.19741 -0.251874,1.47365 -0.501335,2.94801 -0.751763,4.42214 -1.681402,0.26922 -3.340871,0.68281 -5.019622,1.01953 0.208247,-1.23188 0.417219,-2.46402 0.625224,-3.69614 0.121237,-0.72068 -0.338885,-1.24563 -1.026292,-1.20032 -0.687892,0.0453 -1.342761,0.62547 -1.463995,1.3336 -0.228253,1.32806 -0.45964,2.65587 -0.689096,3.98393 -1.226345,0.14534 -2.472935,0.1938 -3.755437,0.0612 -0.698254,-0.17065 -1.264426,0.14824 -1.264426,0.84649 0,0.69826 0.566172,1.51123 1.264426,1.68213 1.127281,0.1164 2.227085,0.0938 3.309537,-0.0122 -0.244401,1.40832 -0.49073,2.81617 -0.7373,4.22399 -1.116677,0.0453 -2.25095,-0.0172 -3.414626,-0.25115 -0.698254,-0.2509 -1.264426,-0.007 -1.264426,0.69127 0,0.69826 0.566172,1.58643 1.264426,1.83711 1.008697,0.20293 1.995219,0.27573 2.967521,0.26247 -0.227289,1.29047 -0.451925,2.58139 -0.681623,3.87161 -0.121238,0.67801 0.337918,1.38518 1.025567,1.4893 0.687649,0.10389 1.343483,-0.44685 1.464479,-1.15138 0.252837,-1.47412 0.502782,-2.94873 0.754413,-4.42332 1.685018,-0.24391 3.345209,-0.65005 5.021309,-0.99834 -0.209452,1.24225 -0.419868,2.48499 -0.628838,3.72774 -0.120995,0.72114 0.337437,1.2437 1.025327,1.18897 0.68765,-0.0549 1.343725,-0.64908 1.46472,-1.36083 0.227771,-1.33626 0.459637,-2.67202 0.688855,-4.0078 1.362042,-0.18583 2.746981,-0.2632 4.176269,-0.11568 0.698014,0.17111 1.264426,-0.14823 1.264426,-0.84649 0,-0.69826 -0.566172,-1.51124 -1.264426,-1.68213 -1.273826,-0.1316 -2.512944,-0.0844 -3.731334,0.0591 0.244402,-1.41699 0.49073,-2.83327 0.737541,-4.24954 1.252376,-0.0808 2.52596,-0.0337 3.836423,0.22994 0.698495,0.25066 1.264426,0.007 1.264426,-0.6915 0,-0.69753 -0.565931,-1.58548 -1.264426,-1.83639 z m -7.127402,6.96711 c -1.678992,0.33624 -3.338941,0.75009 -5.020104,1.02075 0.245848,-1.44591 0.491453,-2.89184 0.736337,-4.33776 1.682126,-0.32153 3.341835,-0.73875 5.019381,-1.03183 -0.245366,1.44978 -0.490971,2.89908 -0.735614,4.34884 z"
       id="path23935" />
  </g>
</svg>
