<?xml version="1.0" encoding="UTF-8" standalone="no"?>
<svg
   xmlns:dc="http://purl.org/dc/elements/1.1/"
   xmlns:cc="http://creativecommons.org/ns#"
   xmlns:rdf="http://www.w3.org/1999/02/22-rdf-syntax-ns#"
   xmlns:svg="http://www.w3.org/2000/svg"
   xmlns="http://www.w3.org/2000/svg"
   xmlns:xlink="http://www.w3.org/1999/xlink"
   xmlns:sodipodi="http://sodipodi.sourceforge.net/DTD/sodipodi-0.dtd"
   xmlns:inkscape="http://www.inkscape.org/namespaces/inkscape"
   version="1.1"
   id="Layer_1"
   x="0px"
   y="0px"
   width="460"
   height="460"
   viewBox="0 0 460 460.00001"
   enable-background="new 0 0 744.094 1052.36"
   xml:space="preserve"
   inkscape:version="1.0 (1.0+r73+1)"
   sodipodi:docname="circle_red.svg"
   inkscape:export-filename="/yuneta/development/yuneta/^yuneta/docs/design/logo/circle_red.png"
   inkscape:export-xdpi="7.6799998"
   inkscape:export-ydpi="7.6799998"><metadata
     id="metadata2034"><rdf:RDF><cc:Work
         rdf:about=""><dc:format>image/svg+xml</dc:format><dc:type
           rdf:resource="http://purl.org/dc/dcmitype/StillImage" /><dc:title /></cc:Work></rdf:RDF></metadata><defs
     id="defs2032"><defs
       id="defs5"><rect
         x="0"
         height="1052.3621"
         width="744.09399"
         y="-0.0020000001"
         id="SVGID_1_" /></defs><clipPath
       id="SVGID_2_"><use
         height="100%"
         width="100%"
         y="0"
         x="0"
         style="overflow:visible"
         id="use9"
         overflow="visible"
         xlink:href="#SVGID_1_" /></clipPath><linearGradient
       y2="725.52051"
       x2="387.64059"
       y1="325.51999"
       x1="387.64059"
       gradientUnits="userSpaceOnUse"
       id="SVGID_3_"><stop
         id="stop12"
         style="stop-color:#FB2B69"
         offset="0.2167" /><stop
         id="stop14"
         style="stop-color:#FC355F"
         offset="0.3012" /><stop
         id="stop16"
         style="stop-color:#FE4F44"
         offset="0.4451" /><stop
         id="stop18"
         style="stop-color:#FF5B37"
         offset="0.5025" /><stop
         id="stop20"
         style="stop-color:#FF9037"
         offset="0.8128" /></linearGradient></defs><sodipodi:namedview
     pagecolor="#ffffff"
     bordercolor="#666666"
     borderopacity="1"
     objecttolerance="10"
     gridtolerance="10"
     guidetolerance="10"
     inkscape:pageopacity="0"
     inkscape:pageshadow="2"
     inkscape:window-width="1920"
     inkscape:window-height="991"
     id="namedview2030"
     showgrid="false"
     fit-margin-top="30"
     fit-margin-left="30"
     fit-margin-right="30"
     fit-margin-bottom="30"
     inkscape:zoom="1.0663359"
     inkscape:cx="150.6198"
     inkscape:cy="282.09489"
     inkscape:window-x="0"
     inkscape:window-y="0"
     inkscape:window-maximized="1"
     inkscape:current-layer="Layer_1"
     inkscape:document-rotation="0" /><path
     style="fill:url(#SVGID_3_)"
     inkscape:connector-curvature="0"
     id="path22"
     d="m 387.64,725.52 c 110.457,0 200,-89.543 200,-200 0,-110.457 -89.543,-200 -200,-200 -110.457,0 -200,89.543 -200,200 0,110.457 89.543,200 200,200"
     clip-path="url(#SVGID_2_)"
     transform="translate(-157.64,-295.52)" /><g
     style="display:none"
     id="g1958"
     enable-background="new    "
     clip-path="url(#SVGID_2_)"
     display="none"
     transform="translate(-155.28378,-209.75585)"><g
       style="display:inline"
       id="g1960"
       display="inline"><defs
         id="defs1962"><rect
           height="134.942"
           width="316.112"
           y="548.45898"
           x="234.755"
           id="SVGID_4_" /></defs><clipPath
         id="SVGID_5_"><use
           height="100%"
           width="100%"
           y="0"
           x="0"
           style="overflow:visible"
           id="use1966"
           overflow="visible"
           xlink:href="#SVGID_4_" /></clipPath><g
         id="g1968"
         clip-path="url(#SVGID_5_)"><path
           inkscape:connector-curvature="0"
           id="path1970"
           d="m 252.157,637.23 c 0,3.516 1.143,5.273 3.428,5.273 2.285,0 4.228,-0.938 5.83,-2.813 1.562,-1.913 2.792,-4.257 3.691,-7.031 l 8.379,-39.258 h 17.285 l -11.895,55.664 c 3.633,-1.21 6.63,-3.056 8.994,-5.537 2.363,-2.48 4.404,-6.357 6.123,-11.631 h 5.039 c -3.047,10.313 -8.203,17.109 -15.469,20.391 -1.992,0.899 -3.907,1.582 -5.742,2.051 l -1.816,8.672 c -1.523,7.695 -4.57,13.242 -9.141,16.641 -3.36,2.499 -7.207,3.75 -11.543,3.75 -4.336,0 -7.813,-0.958 -10.43,-2.871 -2.618,-1.914 -3.926,-4.98 -3.926,-9.199 0,-7.305 6.523,-13.125 19.57,-17.461 l 1.465,-6.445 c -4.141,4.453 -8.946,6.68 -14.414,6.68 -3.594,0 -6.641,-1.133 -9.141,-3.398 -2.461,-2.265 -3.691,-5.918 -3.691,-10.957 0,-2.265 0.313,-4.883 0.938,-7.852 l 8.145,-38.496 h 17.285 l -8.613,40.781 c -0.234,1.016 -0.351,2.03 -0.351,3.046 z m 7.148,22.676 c -7.813,2.813 -11.719,6.211 -11.719,10.195 0,1.602 0.762,2.792 2.285,3.574 0.507,0.234 1.25,0.352 2.227,0.352 0.976,0 2.109,-0.87 3.398,-2.607 1.289,-1.738 2.324,-4.424 3.105,-8.057 z" /><path
           inkscape:connector-curvature="0"
           id="path1972"
           d="m 359.618,631.898 c -5.079,14.805 -13.106,22.207 -24.082,22.207 -7.148,0 -11.114,-3.788 -11.895,-11.367 -4.688,7.579 -10.605,11.367 -17.754,11.367 -3.594,0 -6.641,-1.133 -9.141,-3.398 -2.461,-2.265 -3.691,-5.918 -3.691,-10.957 0,-2.265 0.313,-4.883 0.938,-7.852 l 8.145,-38.496 h 17.285 l -8.613,40.781 c -0.234,1.251 -0.352,2.383 -0.352,3.398 0,3.281 1.191,4.922 3.574,4.922 4.219,0 7.421,-3.535 9.609,-10.605 l 8.145,-38.496 h 17.285 l -8.613,40.781 c -0.352,1.368 -0.527,2.774 -0.527,4.219 0,2.734 1.641,4.102 4.922,4.102 4.492,0 7.734,-3.535 9.727,-10.605 h 5.038 z" /><path
           inkscape:connector-curvature="0"
           id="path1974"
           d="m 400.281,637.347 c 0,3.438 1.465,5.156 4.395,5.156 2.695,0 4.766,-0.858 6.211,-2.578 1.445,-1.719 2.871,-4.395 4.277,-8.027 h 5.039 c -4.648,13.477 -10.938,20.801 -18.867,21.973 -1.25,0.155 -2.793,0.234 -4.629,0.234 -1.836,0 -3.652,-0.391 -5.449,-1.172 -5,-2.109 -7.5,-6.23 -7.5,-12.363 0,-3.281 0.898,-8.516 2.695,-15.703 1.797,-7.187 2.695,-12.148 2.695,-14.883 0,-4.102 -1.445,-6.152 -4.336,-6.152 -2.891,0 -5.469,2.285 -7.734,6.855 -0.664,1.289 -1.211,2.695 -1.641,4.219 l -8.144,38.496 h -17.285 l 12.715,-60 h 17.285 l -1.289,6.211 c 3.906,-4.453 8.574,-6.68 14.004,-6.68 3.828,0 7.012,1.055 9.551,3.164 2.539,2.109 3.809,5.235 3.809,9.375 0,4.141 -0.664,8.828 -1.992,14.063 l -2.871,11.602 c -0.626,2.539 -0.939,4.609 -0.939,6.21 z" /><path
           inkscape:connector-curvature="0"
           id="path1976"
           d="m 465.32,631.898 c -8.985,14.805 -19.98,22.207 -32.988,22.207 -5.704,0 -10.254,-1.474 -13.652,-4.424 -3.398,-2.949 -5.098,-7.822 -5.098,-14.619 0,-9.141 2.323,-17.988 6.973,-26.543 3.554,-6.523 8.398,-11.171 14.531,-13.945 3.164,-1.484 6.445,-2.227 9.844,-2.227 5.546,0 9.316,1.046 11.309,3.135 1.992,2.09 2.988,4.873 2.988,8.35 0,6.836 -2.754,12.647 -8.262,17.432 -5.508,4.785 -11.953,7.412 -19.336,7.881 -0.196,2.266 -0.293,3.867 -0.293,4.805 0,4.102 0.723,6.807 2.168,8.115 1.444,1.31 3.477,1.963 6.094,1.963 4.608,0 8.486,-1.025 11.631,-3.076 3.144,-2.051 6.475,-5.068 9.99,-9.053 h 4.101 z m -15.351,-28.887 c 0,-2.891 -0.996,-4.336 -2.988,-4.336 -2.93,0.079 -5.763,2.666 -8.496,7.764 -2.734,5.098 -4.708,10.752 -5.918,16.963 4.608,-0.313 8.662,-2.461 12.158,-6.445 3.495,-3.985 5.244,-8.633 5.244,-13.946 z" /><path
           inkscape:connector-curvature="0"
           id="path1978"
           d="m 468.895,598.207 h -3.984 l 0.996,-4.805 h 3.926 l 3.633,-16.582 17.754,-2.402 -4.102,18.984 h 7.207 l -0.938,4.805 h -7.207 l -7.676,35.977 c -0.391,1.523 -0.586,2.93 -0.586,4.219 0,1.289 0.283,2.335 0.85,3.135 0.565,0.801 1.591,1.201 3.076,1.201 1.484,0 2.616,-0.117 3.398,-0.352 -2.306,6.642 -5.47,10.43 -9.492,11.367 -1.094,0.234 -2.168,0.352 -3.223,0.352 -4.258,0 -7.324,-1.298 -9.199,-3.896 -1.875,-2.598 -2.813,-5.37 -2.813,-8.32 0,-2.949 0.234,-5.517 0.703,-7.705 z" /><path
           inkscape:connector-curvature="0"
           id="path1980"
           d="m 494.324,569.405 h 59.998 v 83.997 h -59.998 z m 6,72.597 20.398,-30.599 -20.398,-30.599 z m 44.399,-66.597 h -40.799 l 20.399,30.599 z m 0,71.997 -20.399,-30.599 -20.399,30.599 z m 3.599,-5.4 v -61.197 l -20.399,30.599 z" /></g></g></g><g
     id="g2028"
     transform="translate(-155.28378,-209.75585)" /></svg>
