<?xml version="1.0" encoding="UTF-8" standalone="no"?>
<!-- Created with Inkscape (http://www.inkscape.org/) -->

<svg
   width="85.937584mm"
   height="90.637711mm"
   viewBox="0 0 85.937584 90.637711"
   version="1.1"
   id="svg24012"
   inkscape:version="1.2.2 (b0a8486541, 2022-12-01)"
   sodipodi:docname="hashtag-artgins.svg"
   inkscape:export-filename="hashtag-artgins.png"
   inkscape:export-xdpi="88.373444"
   inkscape:export-ydpi="88.373444"
   xmlns:inkscape="http://www.inkscape.org/namespaces/inkscape"
   xmlns:sodipodi="http://sodipodi.sourceforge.net/DTD/sodipodi-0.dtd"
   xmlns="http://www.w3.org/2000/svg"
   xmlns:svg="http://www.w3.org/2000/svg">
  <sodipodi:namedview
     id="namedview24014"
     pagecolor="#ffffff"
     bordercolor="#666666"
     borderopacity="1.0"
     inkscape:showpageshadow="2"
     inkscape:pageopacity="0.0"
     inkscape:pagecheckerboard="0"
     inkscape:deskcolor="#d1d1d1"
     inkscape:document-units="mm"
     showgrid="false"
     inkscape:zoom="1.4111111"
     inkscape:cx="195.59055"
     inkscape:cy="137.48032"
     inkscape:window-width="1920"
     inkscape:window-height="992"
     inkscape:window-x="0"
     inkscape:window-y="0"
     inkscape:window-maximized="1"
     inkscape:current-layer="layer1" />
  <defs
     id="defs24009" />
  <g
     inkscape:label="Layer 1"
     inkscape:groupmode="layer"
     id="layer1"
     transform="translate(-32.406209,-67.181144)">
    <path
       style="fill:#f57900;fill-opacity:1;stroke:#000000;stroke-width:0;stroke-linecap:butt;stroke-linejoin:miter;stroke-dasharray:none;stroke-opacity:1"
       d="m 106.36629,94.607408 c -3.99747,-0.803996 -7.89401,-1.023343 -11.73134,-0.87322 0.788984,-4.502877 1.567959,-9.00659 2.364449,-13.507799 0.418679,-2.366117 -1.170131,-4.73974 -3.548759,-5.012465 -2.380295,-0.272725 -4.649665,1.69473 -5.068343,4.143416 -0.871552,5.099202 -1.734764,10.200907 -2.601311,15.301778 -5.818129,0.931601 -11.560362,2.362781 -17.369316,3.527912 0.720593,-4.262685 1.44369,-8.526198 2.163449,-12.789712 0.419513,-2.493722 -1.172633,-4.310219 -3.551259,-4.153424 -2.380295,0.156796 -4.64633,2.164284 -5.065843,4.614637 -0.789817,4.595454 -1.590477,9.190075 -2.384464,13.785529 -4.243498,0.50292 -8.557054,0.67055 -12.994878,0.21185 -2.416158,-0.5905 -4.375273,0.51291 -4.375273,2.92907 0,2.41616 1.959115,5.22931 4.375273,5.82064 3.900715,0.40282 7.706352,0.32443 11.451939,-0.0425 -0.845697,4.87317 -1.698067,9.74469 -2.551269,14.61621 -3.864019,0.1568 -7.78892,-0.0592 -11.815572,-0.86906 -2.416158,-0.86821 -4.375273,-0.0225 -4.375273,2.39198 0,2.41615 1.959115,5.48953 4.375273,6.35691 3.490376,0.70225 6.904023,0.95412 10.268463,0.90824 -0.786481,4.46535 -1.563789,8.93236 -2.35861,13.39688 -0.419513,2.3461 1.169297,4.79312 3.548758,5.15341 2.37946,0.35947 4.648831,-1.54627 5.06751,-3.98411 0.874887,-5.10087 1.739767,-10.20341 2.610485,-15.30595 5.830638,-0.84402 11.575373,-2.24935 17.375153,-3.45452 -0.724764,4.29855 -1.452863,8.59876 -2.17596,12.89897 -0.418678,2.49539 1.16763,4.30355 3.547925,4.11423 2.379461,-0.19016 4.649666,-2.24602 5.068344,-4.70889 0.788149,-4.62381 1.590477,-9.24595 2.383631,-13.86809 4.713051,-0.64303 9.505338,-0.91076 14.451078,-0.40033 2.41533,0.59215 4.37527,-0.51293 4.37527,-2.92908 0,-2.41617 -1.95911,-5.22931 -4.37527,-5.82063 -4.4078,-0.45538 -8.695501,-0.29192 -12.911476,0.20433 0.845697,-4.9032 1.698066,-9.80391 2.552103,-14.70462 4.333572,-0.27939 8.740533,-0.11676 13.275113,0.79566 2.41699,0.86738 4.37527,0.0225 4.37527,-2.39281 0,-2.41365 -1.95828,-5.486185 -4.37527,-6.354402 z M 81.703459,118.71561 c -5.809789,1.16346 -11.553689,2.59548 -17.370985,3.53208 0.850702,-5.00329 1.700568,-10.00659 2.547934,-15.00987 5.82063,-1.11259 11.563698,-2.55627 17.368482,-3.57045 -0.849033,5.01664 -1.698901,10.03161 -2.545431,15.04824 z"
       id="path23935" />
  </g>
</svg>
