<?xml version="1.0" encoding="UTF-8" standalone="no"?>
<!-- Generator: Adobe Illustrator 16.0.0, SVG Export Plug-In . SVG Version: 6.00 Build 0)  -->

<svg
   xmlns:dc="http://purl.org/dc/elements/1.1/"
   xmlns:cc="http://creativecommons.org/ns#"
   xmlns:rdf="http://www.w3.org/1999/02/22-rdf-syntax-ns#"
   xmlns:svg="http://www.w3.org/2000/svg"
   xmlns="http://www.w3.org/2000/svg"
   xmlns:xlink="http://www.w3.org/1999/xlink"
   xmlns:sodipodi="http://sodipodi.sourceforge.net/DTD/sodipodi-0.dtd"
   xmlns:inkscape="http://www.inkscape.org/namespaces/inkscape"
   version="1.1"
   id="Layer_1"
   x="0px"
   y="0px"
   width="362.81323"
   height="150.80205"
   viewBox="0 0 362.81323 150.80205"
   enable-background="new 0 0 744.094 1052.36"
   xml:space="preserve"
   inkscape:version="0.91 r13725"
   sodipodi:docname="yuneta-label.svg"
   inkscape:export-filename="/yuneta/development/yuneta/^yuneta/docs/design/logo/yuneta-label.png"
   inkscape:export-xdpi="78.760086"
   inkscape:export-ydpi="78.760086"><metadata
     id="metadata2034"><rdf:RDF><cc:Work
         rdf:about=""><dc:format>image/svg+xml</dc:format><dc:type
           rdf:resource="http://purl.org/dc/dcmitype/StillImage" /><dc:title></dc:title></cc:Work></rdf:RDF></metadata><defs
     id="defs2032"><defs
       id="defs5"><rect
         x="0"
         height="1052.3621"
         width="744.09399"
         y="-0.0020000001"
         id="SVGID_1_" /></defs><clipPath
       id="SVGID_2_"><use
         height="100%"
         width="100%"
         y="0"
         x="0"
         style="overflow:visible"
         id="use9"
         overflow="visible"
         xlink:href="#SVGID_1_" /></clipPath><linearGradient
       y2="725.52051"
       x2="387.64059"
       y1="325.51999"
       x1="387.64059"
       gradientUnits="userSpaceOnUse"
       id="SVGID_3_"><stop
         id="stop12"
         style="stop-color:#FB2B69"
         offset="0.2167" /><stop
         id="stop14"
         style="stop-color:#FC355F"
         offset="0.3012" /><stop
         id="stop16"
         style="stop-color:#FE4F44"
         offset="0.4451" /><stop
         id="stop18"
         style="stop-color:#FF5B37"
         offset="0.5025" /><stop
         id="stop20"
         style="stop-color:#FF9037"
         offset="0.8128" /></linearGradient></defs><sodipodi:namedview
     pagecolor="#ffffff"
     bordercolor="#666666"
     borderopacity="1"
     objecttolerance="10"
     gridtolerance="10"
     guidetolerance="10"
     inkscape:pageopacity="0"
     inkscape:pageshadow="2"
     inkscape:window-width="1920"
     inkscape:window-height="1015"
     id="namedview2030"
     showgrid="false"
     fit-margin-top="10"
     fit-margin-left="10"
     fit-margin-right="10"
     fit-margin-bottom="10"
     inkscape:zoom="1.0663359"
     inkscape:cx="143.87895"
     inkscape:cy="5.1428225"
     inkscape:window-x="0"
     inkscape:window-y="0"
     inkscape:window-maximized="1"
     inkscape:current-layer="Layer_1" /><g
     style="display:none"
     id="g1958"
     enable-background="new    "
     clip-path="url(#SVGID_2_)"
     display="none"
     transform="translate(-158.48655,-250.63033)"><g
       style="display:inline"
       id="g1960"
       display="inline"><defs
         id="defs1962"><rect
           height="134.942"
           width="316.112"
           y="548.45898"
           x="234.755"
           id="SVGID_4_" /></defs><clipPath
         id="SVGID_5_"><use
           height="100%"
           width="100%"
           y="0"
           x="0"
           style="overflow:visible"
           id="use1966"
           overflow="visible"
           xlink:href="#SVGID_4_" /></clipPath><g
         id="g1968"
         clip-path="url(#SVGID_5_)"><path
           inkscape:connector-curvature="0"
           id="path1970"
           d="m 252.157,637.23 c 0,3.516 1.143,5.273 3.428,5.273 2.285,0 4.228,-0.938 5.83,-2.813 1.562,-1.913 2.792,-4.257 3.691,-7.031 l 8.379,-39.258 17.285,0 -11.895,55.664 c 3.633,-1.21 6.63,-3.056 8.994,-5.537 2.363,-2.48 4.404,-6.357 6.123,-11.631 l 5.039,0 c -3.047,10.313 -8.203,17.109 -15.469,20.391 -1.992,0.899 -3.907,1.582 -5.742,2.051 l -1.816,8.672 c -1.523,7.695 -4.57,13.242 -9.141,16.641 -3.36,2.499 -7.207,3.75 -11.543,3.75 -4.336,0 -7.813,-0.958 -10.43,-2.871 -2.618,-1.914 -3.926,-4.98 -3.926,-9.199 0,-7.305 6.523,-13.125 19.57,-17.461 l 1.465,-6.445 c -4.141,4.453 -8.946,6.68 -14.414,6.68 -3.594,0 -6.641,-1.133 -9.141,-3.398 -2.461,-2.265 -3.691,-5.918 -3.691,-10.957 0,-2.265 0.313,-4.883 0.938,-7.852 l 8.145,-38.496 17.285,0 -8.613,40.781 c -0.234,1.016 -0.351,2.03 -0.351,3.046 z m 7.148,22.676 c -7.813,2.813 -11.719,6.211 -11.719,10.195 0,1.602 0.762,2.792 2.285,3.574 0.507,0.234 1.25,0.352 2.227,0.352 0.976,0 2.109,-0.87 3.398,-2.607 1.289,-1.738 2.324,-4.424 3.105,-8.057 l 0.704,-3.457 z" /><path
           inkscape:connector-curvature="0"
           id="path1972"
           d="m 359.618,631.898 c -5.079,14.805 -13.106,22.207 -24.082,22.207 -7.148,0 -11.114,-3.788 -11.895,-11.367 -4.688,7.579 -10.605,11.367 -17.754,11.367 -3.594,0 -6.641,-1.133 -9.141,-3.398 -2.461,-2.265 -3.691,-5.918 -3.691,-10.957 0,-2.265 0.313,-4.883 0.938,-7.852 l 8.145,-38.496 17.285,0 -8.613,40.781 c -0.234,1.251 -0.352,2.383 -0.352,3.398 0,3.281 1.191,4.922 3.574,4.922 4.219,0 7.421,-3.535 9.609,-10.605 l 8.145,-38.496 17.285,0 -8.613,40.781 c -0.352,1.368 -0.527,2.774 -0.527,4.219 0,2.734 1.641,4.102 4.922,4.102 4.492,0 7.734,-3.535 9.727,-10.605 l 5.038,0 z" /><path
           inkscape:connector-curvature="0"
           id="path1974"
           d="m 400.281,637.347 c 0,3.438 1.465,5.156 4.395,5.156 2.695,0 4.766,-0.858 6.211,-2.578 1.445,-1.719 2.871,-4.395 4.277,-8.027 l 5.039,0 c -4.648,13.477 -10.938,20.801 -18.867,21.973 -1.25,0.155 -2.793,0.234 -4.629,0.234 -1.836,0 -3.652,-0.391 -5.449,-1.172 -5,-2.109 -7.5,-6.23 -7.5,-12.363 0,-3.281 0.898,-8.516 2.695,-15.703 1.797,-7.187 2.695,-12.148 2.695,-14.883 0,-4.102 -1.445,-6.152 -4.336,-6.152 -2.891,0 -5.469,2.285 -7.734,6.855 -0.664,1.289 -1.211,2.695 -1.641,4.219 l -8.144,38.496 -17.285,0 12.715,-60 17.285,0 -1.289,6.211 c 3.906,-4.453 8.574,-6.68 14.004,-6.68 3.828,0 7.012,1.055 9.551,3.164 2.539,2.109 3.809,5.235 3.809,9.375 0,4.141 -0.664,8.828 -1.992,14.063 l -2.871,11.602 c -0.626,2.539 -0.939,4.609 -0.939,6.21 z" /><path
           inkscape:connector-curvature="0"
           id="path1976"
           d="m 465.32,631.898 c -8.985,14.805 -19.98,22.207 -32.988,22.207 -5.704,0 -10.254,-1.474 -13.652,-4.424 -3.398,-2.949 -5.098,-7.822 -5.098,-14.619 0,-9.141 2.323,-17.988 6.973,-26.543 3.554,-6.523 8.398,-11.171 14.531,-13.945 3.164,-1.484 6.445,-2.227 9.844,-2.227 5.546,0 9.316,1.046 11.309,3.135 1.992,2.09 2.988,4.873 2.988,8.35 0,6.836 -2.754,12.647 -8.262,17.432 -5.508,4.785 -11.953,7.412 -19.336,7.881 -0.196,2.266 -0.293,3.867 -0.293,4.805 0,4.102 0.723,6.807 2.168,8.115 1.444,1.31 3.477,1.963 6.094,1.963 4.608,0 8.486,-1.025 11.631,-3.076 3.144,-2.051 6.475,-5.068 9.99,-9.053 l 4.101,0 z m -15.351,-28.887 c 0,-2.891 -0.996,-4.336 -2.988,-4.336 -2.93,0.079 -5.763,2.666 -8.496,7.764 -2.734,5.098 -4.708,10.752 -5.918,16.963 4.608,-0.313 8.662,-2.461 12.158,-6.445 3.495,-3.985 5.244,-8.633 5.244,-13.946 z" /><path
           inkscape:connector-curvature="0"
           id="path1978"
           d="m 468.895,598.207 -3.984,0 0.996,-4.805 3.926,0 3.633,-16.582 17.754,-2.402 -4.102,18.984 7.207,0 -0.938,4.805 -7.207,0 -7.676,35.977 c -0.391,1.523 -0.586,2.93 -0.586,4.219 0,1.289 0.283,2.335 0.85,3.135 0.565,0.801 1.591,1.201 3.076,1.201 1.484,0 2.616,-0.117 3.398,-0.352 -2.306,6.642 -5.47,10.43 -9.492,11.367 -1.094,0.234 -2.168,0.352 -3.223,0.352 -4.258,0 -7.324,-1.298 -9.199,-3.896 -1.875,-2.598 -2.813,-5.37 -2.813,-8.32 0,-2.949 0.234,-5.517 0.703,-7.705 l 7.677,-35.978 z" /><path
           inkscape:connector-curvature="0"
           id="path1980"
           d="m 494.324,569.405 59.998,0 0,83.997 -59.998,0 0,-83.997 z m 6,72.597 20.398,-30.599 -20.398,-30.599 0,61.198 z m 44.399,-66.597 -40.799,0 20.399,30.599 20.4,-30.599 z m 0,71.997 -20.399,-30.599 -20.399,30.599 40.798,0 z m 3.599,-5.4 0,-61.197 -20.399,30.599 20.399,30.598 z" /></g></g></g><g
     id="g4181"
     transform="translate(-10,-19.999997)"><g
       transform="translate(-204.754,-532.59896)"
       clip-path="url(#SVGID_2_)"
       enable-background="new    "
       id="g1982"><g
         id="g1984"><defs
           id="defs1986"><rect
             id="SVGID_6_"
             x="214.755"
             y="538.45898"
             width="356.112"
             height="164.942" /></defs><clipPath
           id="SVGID_7_"><use
             xlink:href="#SVGID_6_"
             overflow="visible"
             id="use1990"
             style="overflow:visible"
             x="0"
             y="0"
             width="100%"
             height="100%" /></clipPath><path
           clip-path="url(#SVGID_7_)"
           stroke-miterlimit="10"
           d="m 258.603,663.363 c -0.782,3.634 -1.817,6.318 -3.106,8.057 -1.289,1.737 -2.422,2.607 -3.398,2.607 -0.977,0 -1.719,-0.117 -2.227,-0.352 -1.523,-0.782 -2.285,-1.973 -2.285,-3.574 0,-3.984 3.906,-7.383 11.719,-10.195 l -0.703,3.457 z m -6.095,-29.18 8.613,-40.781 -17.285,0 -8.144,38.496 c -0.625,2.969 -0.938,5.587 -0.938,7.852 0,5.038 1.231,8.692 3.691,10.957 2.5,2.266 5.547,3.398 9.141,3.398 5.468,0 10.273,-2.227 14.414,-6.68 l -1.465,6.444 c -13.047,4.337 -19.57,10.157 -19.57,17.462 0,4.219 1.308,7.285 3.926,9.199 2.617,1.913 6.094,2.871 10.43,2.871 4.335,0 8.183,-1.251 11.542,-3.75 4.571,-3.398 7.618,-8.945 9.141,-16.641 l 1.816,-8.672 c 1.836,-0.47 3.75,-1.151 5.743,-2.052 7.265,-3.28 12.422,-10.077 15.468,-20.39 l -5.039,0 c -1.719,5.273 -3.76,9.15 -6.123,11.631 -2.363,2.481 -5.361,4.327 -8.994,5.537 l 11.895,-55.664 -17.285,0 -8.379,39.258 c -0.899,2.774 -2.13,5.118 -3.692,7.031 -1.602,1.875 -3.545,2.813 -5.83,2.813 -2.285,0 -3.428,-1.759 -3.428,-5.273 0,-1.015 0.118,-2.029 0.352,-3.046 z"
           id="path1992"
           inkscape:connector-curvature="0"
           style="fill:none;stroke:#000000;stroke-width:20;stroke-miterlimit:10" /><path
           clip-path="url(#SVGID_7_)"
           stroke-miterlimit="10"
           d="m 354.579,631.898 c -1.992,7.07 -5.235,10.605 -9.727,10.605 -3.281,0 -4.921,-1.367 -4.921,-4.102 0,-1.444 0.175,-2.851 0.527,-4.219 l 8.613,-40.781 -17.285,0 -8.144,38.496 c -2.188,7.07 -5.391,10.605 -9.61,10.605 -2.383,0 -3.574,-1.641 -3.574,-4.922 0,-1.016 0.117,-2.147 0.351,-3.398 l 8.614,-40.781 -17.285,0 -8.145,38.496 c -0.624,2.969 -0.937,5.587 -0.937,7.852 0,5.039 1.23,8.692 3.691,10.957 2.499,2.266 5.546,3.398 9.141,3.398 7.148,0 13.066,-3.788 17.754,-11.367 0.78,7.579 4.746,11.367 11.894,11.367 10.976,0 19.003,-7.402 24.082,-22.207 l -5.039,0 z"
           id="path1994"
           inkscape:connector-curvature="0"
           style="fill:none;stroke:#000000;stroke-width:20;stroke-miterlimit:10" /><path
           clip-path="url(#SVGID_7_)"
           stroke-miterlimit="10"
           d="m 401.219,631.136 2.871,-11.602 c 1.328,-5.234 1.992,-9.921 1.992,-14.063 0,-4.14 -1.27,-7.266 -3.808,-9.375 -2.54,-2.108 -5.724,-3.164 -9.551,-3.164 -5.431,0 -10.099,2.227 -14.005,6.681 l 1.289,-6.212 -17.285,0 -12.715,60 17.285,0 8.146,-38.495 c 0.429,-1.524 0.976,-2.931 1.64,-4.22 2.266,-4.57 4.844,-6.855 7.735,-6.855 2.89,0 4.336,2.051 4.336,6.152 0,2.734 -0.899,7.696 -2.696,14.883 -1.797,7.188 -2.695,12.422 -2.695,15.703 0,6.133 2.5,10.254 7.5,12.363 1.797,0.781 3.613,1.172 5.449,1.172 1.836,0 3.379,-0.079 4.629,-0.234 7.93,-1.172 14.219,-8.496 18.867,-21.973 l -5.039,0 c -1.406,3.634 -2.832,6.309 -4.277,8.027 -1.445,1.72 -3.516,2.578 -6.211,2.578 -2.93,0 -4.394,-1.719 -4.394,-5.156 0,-1.6 0.312,-3.67 0.937,-6.21 z"
           id="path1996"
           inkscape:connector-curvature="0"
           style="fill:none;stroke:#000000;stroke-width:20;stroke-miterlimit:10" /><path
           clip-path="url(#SVGID_7_)"
           stroke-miterlimit="10"
           d="m 444.726,616.957 c -3.497,3.984 -7.55,6.133 -12.158,6.445 1.21,-6.211 3.183,-11.865 5.918,-16.963 2.733,-5.098 5.565,-7.685 8.496,-7.764 1.992,0 2.987,1.445 2.987,4.336 0,5.313 -1.749,9.961 -5.243,13.946 z m 16.493,14.941 c -3.516,3.984 -6.846,7.002 -9.989,9.053 -3.146,2.052 -7.022,3.076 -11.631,3.076 -2.618,0 -4.649,-0.653 -6.095,-1.963 -1.445,-1.309 -2.168,-4.014 -2.168,-8.115 0,-0.938 0.098,-2.539 0.293,-4.805 7.383,-0.469 13.828,-3.096 19.336,-7.881 5.509,-4.784 8.263,-10.595 8.263,-17.432 0,-3.477 -0.996,-6.26 -2.988,-8.35 -1.993,-2.089 -5.763,-3.135 -11.309,-3.135 -3.398,0 -6.681,0.742 -9.845,2.227 -6.133,2.774 -10.977,7.422 -14.53,13.945 -4.649,8.555 -6.974,17.402 -6.974,26.543 0,6.797 1.699,11.67 5.099,14.619 3.397,2.95 7.948,4.424 13.651,4.424 13.008,0 24.004,-7.402 32.989,-22.207 l -4.102,0 z"
           id="path1998"
           inkscape:connector-curvature="0"
           style="fill:none;stroke:#000000;stroke-width:20;stroke-miterlimit:10" /><path
           clip-path="url(#SVGID_7_)"
           stroke-miterlimit="10"
           d="m 493.27,631.898 c -0.859,3.009 -2.295,5.528 -4.307,7.559 -2.012,2.031 -4.188,3.047 -6.533,3.047 -3.243,0 -4.862,-1.348 -4.862,-4.044 0,-1.405 0.155,-2.831 0.469,-4.276 l 7.675,-35.977 7.207,0 0.938,-4.805 -7.207,0 4.101,-18.983 -17.753,2.401 -3.633,16.582 -3.927,0 -0.995,4.805 3.983,0 -7.207,33.691 c -0.624,2.969 -0.937,5.587 -0.937,7.852 0,5.039 1.229,8.692 3.69,10.957 2.5,2.266 5.332,3.398 8.496,3.398 12.071,0 20.685,-7.402 25.84,-22.207 l -5.038,0 z"
           id="path2000"
           inkscape:connector-curvature="0"
           style="fill:none;stroke:#000000;stroke-width:20;stroke-miterlimit:10" /><path
           clip-path="url(#SVGID_7_)"
           stroke-miterlimit="10"
           d="m 525.438,631.898 c -0.743,3.281 -2.091,5.868 -4.043,7.764 -1.954,1.896 -4.122,2.842 -6.504,2.842 -1.289,0 -2.364,-0.43 -3.224,-1.289 -1.484,-1.406 -2.226,-3.887 -2.226,-7.441 0,-1.836 0.097,-3.574 0.293,-5.215 1.289,-10.742 4.472,-18.984 9.55,-24.727 2.11,-2.382 4.278,-3.574 6.504,-3.574 2.228,0 3.682,0.577 4.366,1.729 0.683,1.152 1.024,2.101 1.024,2.842 l -5.74,27.069 z m 3.867,19.307 c 2.031,1.934 4.639,2.9 7.822,2.9 3.183,0 5.811,-1.133 7.881,-3.398 1.172,-1.327 2.599,-4.238 4.277,-8.731 -0.703,0.353 -1.582,0.528 -2.636,0.528 -3.281,0 -4.922,-1.367 -4.922,-4.102 0,-1.444 0.176,-2.851 0.526,-4.219 l 8.613,-40.781 -17.285,0 -1.289,6.387 0,-0.879 c 0,-1.758 -0.761,-3.213 -2.285,-4.365 -1.522,-1.151 -4.004,-1.729 -7.44,-1.729 -6.563,0 -12.169,2.247 -16.817,6.738 -4.648,4.492 -8.223,10.176 -10.722,17.051 -1.134,3.126 -1.974,6.261 -2.521,9.404 -0.546,3.145 -0.819,6.29 -0.819,9.434 0,3.145 0.449,5.947 1.347,8.407 2.5,6.837 7.305,10.255 14.415,10.255 7.108,0 13.144,-3.711 18.104,-11.133 0.47,3.555 1.719,6.299 3.751,8.233 z"
           id="path2002"
           inkscape:connector-curvature="0"
           style="fill:none;stroke:#000000;stroke-width:20;stroke-miterlimit:10" /></g></g><g
       transform="translate(-204.754,-534.47454)"
       clip-path="url(#SVGID_2_)"
       enable-background="new    "
       id="g2004"><g
         id="g2006"><defs
           id="defs2008"><rect
             id="SVGID_8_"
             x="234.69501"
             y="548.737"
             width="316.11401"
             height="134.94099" /></defs><clipPath
           id="SVGID_9_"><use
             xlink:href="#SVGID_8_"
             overflow="visible"
             id="use2012"
             style="overflow:visible"
             x="0"
             y="0"
             width="100%"
             height="100%" /></clipPath><g
           clip-path="url(#SVGID_9_)"
           id="g2014"><path
             d="m 252.098,637.506 c 0,3.516 1.143,5.273 3.428,5.273 2.285,0 4.228,-0.938 5.83,-2.813 1.562,-1.913 2.792,-4.257 3.691,-7.031 l 8.379,-39.258 17.285,0 -11.895,55.664 c 3.633,-1.21 6.63,-3.056 8.994,-5.537 2.363,-2.48 4.404,-6.357 6.123,-11.631 l 5.039,0 c -3.047,10.313 -8.203,17.109 -15.469,20.391 -1.992,0.899 -3.907,1.582 -5.742,2.051 l -1.816,8.672 c -1.523,7.695 -4.57,13.242 -9.141,16.641 -3.36,2.499 -7.207,3.75 -11.543,3.75 -4.336,0 -7.813,-0.958 -10.43,-2.871 -2.618,-1.914 -3.926,-4.98 -3.926,-9.199 0,-7.305 6.523,-13.125 19.57,-17.461 l 1.465,-6.445 c -4.141,4.453 -8.946,6.68 -14.414,6.68 -3.594,0 -6.641,-1.133 -9.141,-3.398 -2.461,-2.265 -3.691,-5.918 -3.691,-10.957 0,-2.265 0.313,-4.883 0.938,-7.852 l 8.145,-38.496 17.285,0 -8.613,40.781 c -0.234,1.016 -0.351,2.031 -0.351,3.046 z m 7.148,22.676 c -7.813,2.813 -11.719,6.211 -11.719,10.195 0,1.602 0.762,2.792 2.285,3.574 0.507,0.234 1.25,0.352 2.227,0.352 0.976,0 2.109,-0.87 3.398,-2.607 1.289,-1.738 2.324,-4.424 3.105,-8.057 l 0.704,-3.457 z"
             id="path2016"
             inkscape:connector-curvature="0"
             style="fill:#d1eefc" /><path
             d="m 359.559,632.174 c -5.079,14.805 -13.106,22.207 -24.082,22.207 -7.148,0 -11.114,-3.788 -11.895,-11.367 -4.688,7.579 -10.605,11.367 -17.754,11.367 -3.594,0 -6.641,-1.133 -9.141,-3.398 -2.461,-2.265 -3.691,-5.918 -3.691,-10.957 0,-2.265 0.313,-4.883 0.938,-7.852 l 8.145,-38.496 17.285,0 -8.613,40.781 c -0.234,1.251 -0.352,2.383 -0.352,3.398 0,3.281 1.191,4.922 3.574,4.922 4.219,0 7.421,-3.535 9.609,-10.605 l 8.145,-38.496 17.285,0 -8.613,40.781 c -0.352,1.368 -0.527,2.774 -0.527,4.219 0,2.734 1.641,4.102 4.922,4.102 4.492,0 7.734,-3.535 9.727,-10.605 l 5.038,0 z"
             id="path2018"
             inkscape:connector-curvature="0"
             style="fill:#d1eefc" /><path
             d="m 400.223,637.624 c 0,3.438 1.465,5.156 4.395,5.156 2.695,0 4.766,-0.858 6.211,-2.578 1.444,-1.719 2.871,-4.395 4.277,-8.027 l 5.039,0 c -4.649,13.477 -10.938,20.801 -18.867,21.973 -1.251,0.155 -2.793,0.234 -4.629,0.234 -1.837,0 -3.653,-0.391 -5.449,-1.172 -5.001,-2.109 -7.5,-6.23 -7.5,-12.363 0,-3.281 0.898,-8.516 2.695,-15.703 1.796,-7.187 2.695,-12.148 2.695,-14.883 0,-4.102 -1.445,-6.152 -4.336,-6.152 -2.892,0 -5.47,2.285 -7.734,6.855 -0.665,1.289 -1.211,2.695 -1.641,4.219 l -8.145,38.496 -17.285,0 12.715,-60 17.285,0 -1.289,6.211 c 3.905,-4.453 8.574,-6.68 14.004,-6.68 3.828,0 7.011,1.055 9.551,3.164 2.539,2.109 3.809,5.235 3.809,9.375 0,4.141 -0.665,8.828 -1.992,14.063 l -2.871,11.602 c -0.626,2.539 -0.938,4.608 -0.938,6.21 z"
             id="path2020"
             inkscape:connector-curvature="0"
             style="fill:#d1eefc" /><path
             d="m 465.262,632.174 c -8.985,14.805 -19.98,22.207 -32.988,22.207 -5.704,0 -10.254,-1.474 -13.652,-4.424 -3.398,-2.949 -5.098,-7.822 -5.098,-14.619 0,-9.141 2.323,-17.988 6.973,-26.543 3.554,-6.523 8.398,-11.171 14.531,-13.945 3.164,-1.484 6.445,-2.227 9.844,-2.227 5.546,0 9.316,1.046 11.309,3.135 1.992,2.09 2.988,4.873 2.988,8.35 0,6.836 -2.754,12.647 -8.262,17.432 -5.508,4.785 -11.953,7.412 -19.336,7.881 -0.196,2.266 -0.293,3.867 -0.293,4.805 0,4.102 0.723,6.807 2.168,8.115 1.444,1.31 3.477,1.963 6.094,1.963 4.608,0 8.486,-1.025 11.631,-3.076 3.144,-2.051 6.475,-5.068 9.99,-9.053 l 4.101,0 z M 449.91,603.288 c 0,-2.891 -0.996,-4.336 -2.988,-4.336 -2.93,0.079 -5.763,2.666 -8.496,7.764 -2.734,5.098 -4.708,10.752 -5.918,16.963 4.608,-0.313 8.662,-2.461 12.158,-6.445 3.495,-3.985 5.244,-8.634 5.244,-13.946 z"
             id="path2022"
             inkscape:connector-curvature="0"
             style="fill:#d1eefc" /><path
             d="m 498.25,632.174 c -5.156,14.805 -13.77,22.207 -25.84,22.207 -3.164,0 -5.997,-1.133 -8.496,-3.398 -2.461,-2.265 -3.691,-5.918 -3.691,-10.957 0,-2.265 0.313,-4.883 0.938,-7.852 l 7.207,-33.691 -3.984,0 0.996,-4.805 3.926,0 3.633,-16.582 17.754,-2.402 -4.102,18.984 7.207,0 -0.938,4.805 -7.207,0 -7.676,35.977 c -0.313,1.445 -0.469,2.871 -0.469,4.277 0,2.695 1.62,4.043 4.863,4.043 2.344,0 4.521,-1.016 6.533,-3.047 2.012,-2.03 3.447,-4.55 4.307,-7.559 l 5.039,0 z"
             id="path2024"
             inkscape:connector-curvature="0"
             style="fill:#d1eefc" /><path
             d="m 525.496,643.249 c -4.961,7.422 -10.996,11.133 -18.105,11.133 -7.11,0 -11.915,-3.418 -14.414,-10.254 -0.898,-2.461 -1.348,-5.264 -1.348,-8.408 0,-3.144 0.273,-6.289 0.82,-9.434 0.548,-3.144 1.386,-6.278 2.52,-9.404 2.499,-6.875 6.073,-12.559 10.723,-17.051 4.648,-4.491 10.254,-6.738 16.816,-6.738 3.437,0 5.918,0.577 7.441,1.729 1.523,1.152 2.285,2.607 2.285,4.365 l 0,0.879 1.289,-6.387 17.285,0 -8.613,40.781 c -0.352,1.368 -0.527,2.774 -0.527,4.219 0,2.734 1.641,4.102 4.922,4.102 1.055,0 1.934,-0.176 2.637,-0.527 -1.68,4.492 -3.105,7.403 -4.277,8.73 -2.071,2.266 -4.697,3.398 -7.881,3.398 -3.185,0 -5.792,-0.967 -7.822,-2.9 -2.032,-1.935 -3.282,-4.679 -3.751,-8.233 z m 5.625,-38.145 c 0,-0.741 -0.343,-1.689 -1.025,-2.842 -0.684,-1.151 -2.139,-1.729 -4.365,-1.729 -2.226,0 -4.395,1.192 -6.504,3.574 -5.078,5.742 -8.262,13.984 -9.551,24.727 -0.196,1.641 -0.293,3.379 -0.293,5.215 0,3.555 0.741,6.035 2.227,7.441 0.858,0.859 1.934,1.289 3.223,1.289 2.382,0 4.55,-0.946 6.504,-2.842 1.953,-1.895 3.301,-4.482 4.043,-7.764 l 5.741,-27.069 z"
             id="path2026"
             inkscape:connector-curvature="0"
             style="fill:#d1eefc" /></g></g></g></g><g
     id="g2028"
     transform="translate(-158.48655,-250.63033)" /></svg>