<?xml version="1.0" encoding="utf-8"?>
<!-- Generator: Adobe Illustrator 16.0.0, SVG Export Plug-In . SVG Version: 6.00 Build 0)  -->
<!DOCTYPE svg PUBLIC "-//W3C//DTD SVG 1.1//EN" "http://www.w3.org/Graphics/SVG/1.1/DTD/svg11.dtd">
<svg version="1.1" id="Layer_1" xmlns="http://www.w3.org/2000/svg" xmlns:xlink="http://www.w3.org/1999/xlink" x="0px" y="0px"
	 width="612px" height="792px" viewBox="0 0 612 792" enable-background="new 0 0 612 792" xml:space="preserve">
<circle fill-rule="evenodd" clip-rule="evenodd" stroke="#000000" stroke-miterlimit="10" cx="285.466" cy="406.456" r="116.907"/>
<g>
	<path fill-rule="evenodd" clip-rule="evenodd" d="M398.458,285.957c-0.158-2.063-0.366-4.13-0.722-6.166
		c-0.229-1.316-0.849-2.56-1.141-3.869c-0.476-2.131-1.76-3.782-3.034-5.442c-0.311-0.404-0.795-0.688-1.23-0.98
		c-0.842-0.566-1.795-0.999-2.539-1.668c-1.074-0.967-2.104-1.747-3.62-2.091c-2.707-0.614-5.378-0.848-8.114-0.48
		c-0.513,0.069-1.039,0.088-1.536,0.22c-0.743,0.198-1.601,0.303-2.173,0.75c-1.814,1.415-4.059,1.968-5.972,3.161
		c-1.318,0.033-1.78,1.483-2.941,1.775c-2.348,2.244-5.054,4.089-7.232,6.52c-0.209,0.232-0.441,0.453-0.695,0.632
		c-1.766,1.25-3.206,2.811-4.415,4.595c-1.902,2.805-3.427,5.822-4.892,8.867c-1.013,2.105-1.971,4.236-2.918,6.372
		c-0.85,1.916-1.602,3.876-2.49,5.772c-0.55,1.173-1.188,2.325-1.941,3.376c-0.925,1.291-2.341,1.998-3.745,2.675l0.026-0.026
		c-0.604,0.451-1.285,0.59-2.028,0.557c-0.639-0.028-1.281-0.035-1.919,0.007c-0.342,0.022-0.732,0.084-1.005,0.27
		c-1.322,0.897-2.578,1.892-3.399,3.295c-0.595,1.016-1.094,2.087-1.65,3.162c-0.427,0-0.904-0.009-1.381,0.001
		c-1.929,0.042-3.862,0.202-5.783,0.102c-1.653-0.086-3.308-0.391-4.932-0.737c-2.175-0.464-4.32-1.065-6.479-1.6
		c-1.229-0.305-2.466-0.584-3.694-0.896c-0.912-0.231-1.808-0.536-2.726-0.736c-1.59-0.347-3.224-0.527-4.779-0.985
		c-1.482-0.437-2.97-0.471-4.476-0.498c-0.368-0.523-0.869-0.982-1.055-1.545c-0.577-1.75-1.52-3.287-2.441-4.862
		c-1.185-2.026-2.8-3.686-4.272-5.469c-1.155-1.399-2.43-2.708-3.487-4.176c-1.112-1.545-2.028-3.231-3.029-4.856
		c-0.289-0.468-0.66-0.906-0.845-1.413c-0.445-1.212-1.129-2.259-1.871-3.306c-0.846-1.194-1.497-2.525-2.299-3.752
		c-0.89-1.359-1.815-2.7-2.806-3.987c-0.522-0.679-1.195-1.248-1.837-1.825c-0.403-0.362-0.964-0.577-1.292-0.987
		c-0.356-0.446-0.886-0.62-1.276-1.05c-0.572-0.63-1.512-0.997-2.359-1.294c-1.709-0.6-3.153,0.301-4.434,1.203
		c-1.44,1.014-2.714,2.302-3.528,3.903c-0.754,1.481-1.427,3.014-2.008,4.571c-0.414,1.107-0.645,2.287-0.906,3.445
		c-0.218,0.968-0.401,1.948-0.528,2.933c-0.233,1.815-0.48,3.633-0.597,5.457c-0.104,1.625-0.084,3.262-0.032,4.89
		c0.027,0.826,0.372,1.647,0.357,2.467c-0.037,1.99-0.052,3.999-0.342,5.96c-0.599,4.059-1.808,7.978-3.008,11.896
		c-0.141,0.461-0.415,0.771-0.679,0.966c-0.619,0.458-1.364,0.741-2.049,1.116c-1.036,0.568-2.197,0.909-3.237,1.471
		c-1.661,0.899-3.275,1.887-4.894,2.863c-1.472,0.888-2.986,1.726-4.37,2.738c-2.051,1.5-4.131,2.97-5.972,4.744
		c-1.785,1.719-3.709,3.303-5.401,5.108c-1.296,1.383-2.323,3.018-3.474,4.538c-0.476,0.629-1.097,1.187-1.421,1.885
		c-1.224,2.636-2.501,5.264-3.478,7.996c-1.001,2.801-1.862,5.636-3.748,8.004c-0.885,1.111-1.643,2.406-3.007,2.984
		c-1.081,0.458-1.826,1.257-2.5,2.105c-1.41,1.773-2.171,3.83-2.418,6.1c-0.339,3.118-0.424,6.204,0.672,9.209
		c0.354,0.968,0.369,1.922-0.068,2.863c-0.609,1.312-0.641,2.706-0.535,4.098c0.072,0.949,0.232,1.9,0.454,2.826
		c0.361,1.509,0.673,3.051,1.251,4.479c0.594,1.471,0.799,2.776,0.167,4.323c-1.134,2.775-0.802,5.615,0.125,8.359
		c-0.728,0.773-1.636,1.412-2.073,2.285c-0.561,1.125-1.551,1.691-2.364,2.492c-0.508,0.5-1.002,1.025-1.431,1.592
		c-0.826,1.094-1.632,2.205-2.382,3.352c-0.268,0.408-0.42,0.93-0.493,1.42c-0.069,0.463,0.048,0.953,0.063,1.432
		c0.049,1.633,0.646,3.127,1.375,4.521c0.492,0.939,1.379,1.672,2.126,2.539c-0.707,1.393-1.442,2.754-2.098,4.154
		c-0.877,1.871-1.869,3.701-2.325,5.746c-0.243,1.088-0.503,2.17-0.778,3.25c-0.69,2.711-1.167,5.449-1.184,8.256
		c-0.006,1.156-0.049,2.313-0.08,3.469c-0.092,3.471,1.041,6.574,2.875,9.455c0.206,0.322,0.536,0.592,0.858,0.811
		c1.075,0.734,2.123,1.502,3.375,1.959c1.279,0.469,2.506,1.031,3.89,0.395c0.236-0.109,0.533-0.088,0.775-0.121
		c1.029,1.527,2.112,2.922,3.454,4.107c1.215,1.07,2.511,2.078,3.578,3.285c1.267,1.432,2.865,2.354,4.517,3.104
		c2.007,0.914,4.168,1.486,6.259,2.217c1.875,0.654,3.758,1.291,5.614,1.996c0.916,0.348,1.755,0.895,2.67,1.242
		c1.631,0.617,3.299,1.141,4.944,1.725c1.725,0.611,3.42,1.289,5.273,1.479c1.097,0.111,2.176,0.408,3.259,0.641
		c1.088,0.234,2.178,0.469,3.257,0.74c2.576,0.648,5.215,0.582,7.834,0.672c5.03,0.174,10.009-0.406,14.97-1.168
		c1.888-0.291,3.764-0.678,5.659-0.9c3.99-0.467,7.815-1.652,11.7-2.576c0.461-0.109,0.889-0.416,1.35-0.465
		c1.634-0.172,3.109-0.801,4.585-1.449c1.273-0.557,2.564-1.078,3.812-1.688c1.629-0.795,3.269-1.584,4.819-2.518
		c1.37-0.824,2.956-1.207,4.241-2.197c0.211-0.162,0.773-0.137,0.996,0.033c1.186,0.904,2.672,1,3.979,1.57
		c0.965,0.42,2.027,0.613,3.038,0.934c0.33,0.105,0.621,0.373,0.952,0.426c1.768,0.275,3.534,0.588,5.314,0.729
		c1.539,0.121,3.097,0.068,4.643,0.016c0.333-0.011,0.665-0.035,0.998-0.051c0.467-0.274,1.019-0.482,1.671-0.597
		c13.007-2.279,25.852-11.703,33.622-22.275c4.658-6.338,7.271-14.254,12.563-19.7c0.501-1.533,1.025-3.063,1.54-4.594
		c-0.127-0.956-0.191-1.917,0.032-2.938c0.111-0.918,0.383-1.784,0.813-2.601c0.085-0.286,0.167-0.496,0.249-0.671
		c-0.438-1.318-0.42-2.791,0.442-3.923c2.462-3.233,1.961-7.095,1.829-11.067c-0.171-5.141-0.554-10.271-0.762-15.409
		c-0.009-0.22-0.004-0.43,0.011-0.635c-0.132-0.246-0.261-0.49-0.387-0.744c-0.683-0.122-1.12,0.372-1.543,0.74
		c-0.17,0.147-0.181,0.814-0.017,0.952c0.796,0.674,0.815,1.663,0.966,2.503c0.37,2.064,0.574,4.164,0.734,6.257
		c0.157,2.055,0.285,4.123,0.226,6.18c-0.063,2.137,0.009,4.305-0.623,6.393c-0.118,0.393-0.257,0.777-0.58,1.111
		c-0.28-1.176-0.551-2.354-0.843-3.527c-0.395-1.58-0.811-3.154-1.207-4.732c-0.266-1.061-0.641-2.02-1.699-2.584
		c-0.604-0.322-1.119-0.098-1.573,0.174c-0.253,0.152-0.321,0.611-0.533,1.059c0.952,0.078,1.242,0.477,1.43,1.26
		c0.888,3.713,1.971,7.389,2.13,11.227c0.08,1.928-0.052,3.863-0.121,5.795c-0.027,0.756-0.164,1.508-0.223,2.262
		c-0.134,1.699-0.892,3.207-1.502,4.746c-1.03,2.602-2.583,4.895-4.403,7.02c-0.604,0.705-0.897,1.729-1.817,2.1
		c-1.145,0.461-1.892,1.471-3.107,1.9c-1.245,0.439-2.291,1.432-3.442,2.152c-0.98,0.615-1.958,1.248-2.989,1.768
		c-1.129,0.57-1.909,1.484-2.69,2.414c-0.479,0.568-0.904,1.182-1.381,1.754c-0.53,0.635-0.621,1.16-0.219,1.543
		c0.439,0.418,1.212,0.279,1.765-0.293c0.688-0.713,1.377-1.428,2.098-2.109c0.914-0.861,2.002-1.459,3.09-2.09
		c1.741-1.01,3.637-1.758,5.215-3.057c0.521-0.43,1.19-0.678,2.018-1.133c-0.156,0.484-0.21,0.738-0.315,0.969
		c-0.932,2.027-2.171,3.848-3.646,5.521c-0.982,1.115-1.854,2.326-2.83,3.445c-1.09,1.25-2.262,2.428-3.361,3.668
		c-0.652,0.734-1.198,1.563-1.855,2.291c-1.155,1.281-2.02,2.813-3.657,3.674c-1.071,0.563-1.873,1.639-2.946,2.199
		c-1.651,0.861-2.814,2.324-4.408,3.24c-1.564,0.9-3.028,1.975-4.6,2.863c-1.481,0.836-3.081,1.418-4.787,1.664
		c-0.303,0.045-0.594,0.193-0.88,0.316c-0.253,0.109-0.479,0.289-0.738,0.371c-1.617,0.518-3.277,0.688-4.969,0.578
		c-0.884-0.059-1.714,0.215-2.566,0.348c-1.312,0.203-2.683,0.078-4.025,0.014c-0.664-0.031-1.317-0.318-1.98-0.344
		c-2.208-0.078-4.231-0.744-6.217-1.668c-1.66-0.771-3.381-1.416-5.096-2.061c-0.987-0.371-1.79-0.971-2.528-1.689
		c-0.256-0.25-0.485-0.529-0.759-0.758c-0.71-0.592-0.718-0.584-0.897-1.496c-0.517,0.229-0.993,0.307-1.564,0.008
		c-0.632-0.328-0.893-0.059-1.378,1.111c0.757,1.551,2.661,1.9,3.599,3.258c-1.18,0.658-2.359,1.318-3.542,1.973
		c-0.813,0.447-1.628,0.889-2.446,1.328c-0.746,0.4-1.478,0.834-2.248,1.182c-1.308,0.586-2.641,1.115-3.964,1.67
		c-0.074,0.029-0.162,0.039-0.222,0.086c-1.653,1.289-3.742,1.418-5.605,2.141c-1.219,0.473-2.366,1.092-3.708,1.127
		c-0.936,0.938-2.176,0.443-3.26,0.643c-2.382,0.439-4.805,0.65-7.205,0.998c-1.251,0.182-2.482,0.498-3.733,0.676
		c-1.966,0.277-3.94,0.5-5.912,0.73c-1.414,0.166-2.833,0.461-4.245,0.43c-2.993-0.064-6.005,0.059-8.971-0.445
		c-1.563-0.268-3.092-0.736-4.645-1.07c-0.961-0.207-1.935-0.406-2.913-0.482c-1.612-0.123-3.063-0.807-4.598-1.193
		c-0.422-0.107-0.844-0.223-1.253-0.369c-0.591-0.213-1.175-0.447-1.755-0.688c-0.803-0.334-1.596-0.691-2.398-1.027
		c-1.499-0.627-2.996-1.26-4.504-1.865c-0.475-0.191-0.983-0.297-1.472-0.453c-1.271-0.408-2.544-0.811-3.81-1.234
		c-0.838-0.281-1.674-0.574-2.495-0.9c-0.706-0.281-1.379-0.645-2.086-0.924c-2.238-0.881-4.044-2.424-5.886-3.891
		c-1.003-0.799-2.053-1.584-2.73-2.752c-0.388-0.668-0.946-1.24-1.443-1.842c-0.83-1.008-1.277-2.186-1.628-3.424
		c-0.281-0.99-0.603-1.971-0.965-2.936c-1.033-2.754-1.494-5.584-1.47-8.533c0.014-1.705-0.272-3.416-0.46-5.121
		c-0.032-0.285-0.213-0.578-0.39-0.822c-0.382-0.525-0.902-0.543-1.224,0.016c-0.226,0.391-0.389,0.895-0.371,1.338
		c0.111,2.787,0.231,5.574,0.454,8.354c0.097,1.219,0.418,2.424,0.684,3.627c0.197,0.889,0.446,1.77,0.715,2.641
		c0.267,0.867,0.587,1.717,0.894,2.602c-1.256,0.576-2.458,0.295-3.574-0.25c-3.422-1.676-4.681-4.758-5.223-8.271
		c-0.348-2.256-0.053-4.5,0.076-6.754c0.169-2.955,1.079-5.746,1.666-8.607c0.464-2.264,1.556-4.307,2.546-6.377
		c0.412-0.859,0.807-1.727,1.229-2.582c0.103-0.207,0.283-0.377,0.413-0.545c0.535,0.033,1.033,0.063,1.608,0.098
		c0.243,1.086,0.89,1.936,2.052,2.277c0.401,0.119,0.863,0.213,1.257,0.127c0.496-0.105,0.779,0.041,0.972,0.439
		c0.903,1.865,2.543,2.811,4.288,3.771c1.432,0.789,2.849,0.523,4.29,0.576c0.238,0.008,0.489-0.229,0.728-0.361
		c0.311-0.174,0.597-0.449,0.927-0.518c0.72-0.146,1.313-0.299,1.237-1.248c-0.016-0.199,0.396-0.402,0.472-0.646
		c0.07-0.223-0.047-0.504-0.082-0.76c-0.653,0.236-0.729-0.418-1.079-0.883c-0.43,0.359-0.804,0.621-1.12,0.943
		c-1.44,1.463-2.638,1.711-4.436,1.068c-0.378-0.135-0.828-0.445-0.972-0.789c-0.411-0.982-0.769-2.006-0.983-3.047
		c-0.208-1.008-0.193-2.063-0.31-3.092c-0.127-1.117-0.563-2.078-1.598-2.648c-0.305-0.168-0.647-0.324-0.987-0.367
		c-1.203-0.158-1.632,0.34-1.556,1.572c0.066,1.074,0.037,2.154,0.012,3.23c-0.003,0.146-0.224,0.289-0.452,0.348
		c0.107-0.158,0.214-0.316,0.405-0.598c-0.427-0.045-0.716-0.074-0.952-0.098c-0.387-0.709-0.76-1.391-1.125-2.057
		c-0.31-0.029-0.583-0.055-0.877-0.082c-0.042-0.223-0.09-0.414-0.114-0.609c-0.072-0.588-0.115-1.178-0.206-1.762
		c-0.229-1.469-1.267-2.258-2.534-2.699c-0.422-0.148-1.013,0.186-1.635,0.322c-0.461-1.012-0.618-2.086,0.197-3.191
		c0.608-0.824,1.089-1.74,1.676-2.582c0.878-1.258,2.123-2.146,3.333-3.039c0.406-0.299,1.058-0.338,1.604-0.359
		c1.238-0.049,2.481,0.035,3.718-0.027c1.751-0.092,3.252,0.672,4.802,1.281c1.05,0.412,1.907,1.139,2.721,1.885
		c0.634,0.58,1.207,1.26,1.686,1.975c1.186,1.771,2.402,3.537,3.418,5.406c0.903,1.662,1.558,3.461,2.309,5.207
		c0.074,0.172,0.058,0.383,0.083,0.576l-0.035-0.039c0.56,1.176,1.093,2.367,1.689,3.525c0.435,0.848,0.897,1.689,1.448,2.463
		c0.642,0.902,1.72,1.113,2.711,1.336c0.486,0.109,0.87-0.324,0.996-0.848c0.13-0.537-0.125-1.299-0.552-1.311
		c-1.685-0.047-2.015-1.477-2.52-2.545c-1.331-2.816-2.417-5.75-3.745-8.568c-0.741-1.574-1.706-3.055-2.688-4.498
		c-0.845-1.242-1.788-2.436-2.817-3.527c-0.962-1.021-2.07-1.914-3.167-2.795c-0.277-0.225-0.956-0.068-1.105-0.305
		c-0.409-0.645-1.006-0.514-1.563-0.631c-0.217-0.045-0.406-0.209-0.614-0.307c-0.249-0.115-0.496-0.287-0.757-0.316
		c-1.67-0.191-3.344-0.35-5.014-0.52c0.279-0.439,0.631-0.742,1.252-0.859c0.846-0.16,1.646-0.551,2.477-0.805
		c1.419-0.432,2.873-0.656,4.361-0.592c1.665,0.074,3.35-0.174,4.987,0.32c1.331,0.402,2.555,0.986,3.663,1.857
		c1.155,0.91,2.436,1.656,3.589,2.568c1.546,1.223,3.148,2.387,4.338,4.016c0.622,0.85,1.364,1.623,2.12,2.361
		c1.331,1.299,2.389,2.75,3.069,4.502c1.19,3.068,2.633,6.047,3.318,9.295c0.21,1,0.27,2.031,0.915,2.902
		c0.151,0.205,0.167,0.529,0.192,0.803c0.107,1.146,0.234,2.285,0.696,3.357c0.016,0.037,0.041,0.078,0.034,0.111
		c-0.344,1.807,0.696,3.307,1.116,4.938c0.434,1.684,1.303,3.186,2.309,4.6c0.263,0.371,1.239,0.371,1.651,0.041
		c0.349-0.279,0.365-1.01,0.033-1.525c-0.339-0.527-0.74-1.027-1.008-1.588c-0.978-2.047-1.408-4.254-1.75-6.551
		c0.604,0.568,1.2,1.143,1.813,1.701c0.294,0.268,0.582,0.627,0.935,0.732c1.613,0.475,2.65,1.771,3.973,2.654
		c1.353,0.902,2.661,1.896,4.253,2.393c0.394,0.123,0.718,0.453,1.098,0.639c1.685,0.822,3.438,1.527,5.048,2.473
		c1.212,0.713,2.288,1.68,3.347,2.621c1.494,1.326,3.038,2.629,4.332,4.137c1.137,1.326,2.332,2.615,3.265,4.146
		c0.895,1.469,1.778,2.9,2.3,4.549c0.227,0.719,0.762,0.98,1.382,0.811c0.546-0.15,0.977-0.768,0.817-1.404
		c-0.212-0.84-0.477-1.688-0.868-2.457c-0.502-0.986-1.113-1.928-1.752-2.834c-0.471-0.666-1.058-1.25-1.602-1.865
		c-1.201-1.355-2.348-2.764-3.624-4.045c-1.483-1.486-3.021-2.936-4.652-4.254c-0.985-0.797-2.254-1.234-3.288-1.982
		c-1.397-1.012-3.042-1.518-4.532-2.332c-1.423-0.777-2.796-1.668-4.237-2.426c-0.955-0.502-1.912-1.176-2.807-1.887
		c-1.016-0.807-2.192-1.484-2.989-2.496c-1.232-1.563-2.939-2.787-3.591-4.777c-0.247-0.752-0.38-1.543-0.64-2.289
		c-0.755-2.176-1.546-4.34-2.329-6.508c-0.566-1.566-1.107-3.148-2.114-4.508c-0.744-1.004-1.478-2.02-2.282-2.975
		c-0.962-1.143-1.963-2.256-3.003-3.328c-1.682-1.73-3.511-3.316-5.404-4.801c-1.896-1.486-4.022-2.641-6.317-3.436
		c-0.225-0.078-0.465-0.115-0.701-0.154c-2.545-0.418-5.088-0.725-7.66-0.156c-1.73,0.383-3.478,0.689-5.23,1.033
		c-0.091-0.18-0.211-0.314-0.227-0.461c-0.3-2.738-0.335-5.385,1.6-7.709c1.079-1.295,2.244-2.445,3.55-3.5
		c1.103-0.891,2.061-1.957,3.103-2.924c1.461-1.355,2.193-3.163,3.059-4.887c0.157-0.312,0.18-0.691,0.268-1.038
		c0.139-0.542-0.089-0.93-0.523-1.224c-0.432-0.292-0.908-0.391-1.345-0.072c-1.014,0.739-2.123,0.586-3.203,0.321
		c-1.222-0.3-2.418-0.707-3.612-1.108c-0.358-0.121-0.67-0.379-1.164-0.67c0.477-0.22,0.941-0.287,1.091-0.54
		c0.19-0.321,0.82-0.237,0.674-0.891c-0.126-0.563-0.465-0.741-0.892-0.803c-0.826-0.121-1.663-0.168-2.497-0.236
		c-0.23-0.019-0.464-0.002-0.72-0.002c-0.927-2.29-1.482-4.633-1.331-7.098c0.043-0.701,0.208-1.406,0.406-2.083
		c0.278-0.949,0.625-1.879,0.97-2.807c0.497-1.341,1.298-2.447,2.547-3.194c2.48-1.484,4.107-3.69,5.298-6.266
		c0.183-0.396,0.415-0.769,0.606-1.161c0.346-0.71,0.722-1.409,1.009-2.142c1.145-2.927,2.103-5.94,3.441-8.774
		c0.906-1.916,2.026-3.764,3.409-5.448c1.434-1.747,2.981-3.381,4.654-4.861c1.492-1.319,2.936-2.732,4.712-3.729
		c0.666-0.374,1.21-1.014,1.715-1.612c1.229-1.456,2.874-2.281,4.504-3.15c0.657-0.351,1.262-0.796,1.916-1.154
		c0.852-0.467,1.745-0.858,2.588-1.339c0.886-0.505,1.706-1.13,2.605-1.606c1.141-0.604,2.294-1.434,3.513-1.58
		c1.472-0.175,2.551-1.223,3.981-1.336c0.346-0.027,0.678-0.218,1.025-0.266c0.496-0.067,0.905-0.121,1.048-0.753
		c0.065-0.287,0.436-0.574,0.736-0.723c0.727-0.361,1.501-0.624,2.241-0.958c0.527-0.238,1.027-0.534,1.543-0.796
		c2.91-1.478,5.931-2.554,9.188-3.063c2.054-0.321,4.09-0.646,6.164-0.567c1.79,0.067,3.576,0.335,5.364,0.35
		c2.31,0.018,4.608-0.141,6.857-0.824c1.25-0.379,2.567-0.65,3.868-0.727c2.709-0.16,5.422-0.42,8.112,0.427
		c1.545,0.486,3.209,0.579,4.79,0.971c2.148,0.533,4.292,1.077,6.349,1.953c1.227,0.522,2.569,0.796,3.881,1.09
		c1.155,0.258,2.39,0.237,3.502,0.604c3.124,1.029,6.321,0.447,9.482,0.592c0.787,0.036,1.589-0.075,2.374-0.186
		c0.546-0.077,0.94-0.431,1.023-1.001c0.326-2.248,1.558-3.958,3.225-5.391c0.313-0.268,0.767-0.412,1.181-0.509
		c0.421-0.099,0.879-0.128,1.311-0.086c2.003,0.197,3.61-0.73,5.111-1.844c1.363-1.012,2.434-2.31,3.221-3.836
		c0.286-0.555,0.689-1.049,1.026-1.579c0.479-0.754,0.93-1.488,1.179-2.395c0.398-1.45,1.134-2.804,1.594-4.241
		c0.476-1.487,1.356-2.795,1.833-4.251c0.687-2.098,1.909-3.898,2.869-5.841c0.574-1.163,1.191-2.314,1.902-3.397
		c0.515-0.785,1.25-1.42,1.821-2.172c0.989-1.301,2.327-2.238,3.447-3.385c1.656-1.697,3.55-3.103,5.275-4.706
		c0.896-0.831,1.755-1.702,2.669-2.511c0.287-0.254,0.711-0.345,1.051-0.548c1.511-0.902,3.09-1.68,4.598-2.597
		c1.223-0.744,2.732-1.021,4.12-1.49c0.622-0.21,1.246-0.441,1.888-0.565c1.74-0.336,3.498-0.117,5.218,0.101
		c1.88,0.238,3.626,0.941,5.066,2.289c0.702,0.657,1.567,1.138,2.278,1.788c0.58,0.531,1.15,1.131,1.535,1.809
		c1.519,2.679,2.702,5.476,2.891,8.622c0.107,1.78,0.458,3.546,0.553,5.327c0.172,3.25,0.29,6.506,0.32,9.761
		c0.015,1.587-0.221,3.177-0.337,4.766c-0.099,1.35-0.137,2.706-0.294,4.049c-0.239,2.044-0.48,4.093-0.86,6.114
		c-0.564,3.004-1.314,5.973-1.866,8.978c-0.463,2.523-1.318,4.91-2.325,7.237c-0.639,1.476-1.543,2.838-2.347,4.241
		c-0.108,0.19-0.337,0.309-0.483,0.482c-0.174,0.206-0.371,0.415-0.465,0.659c-0.264,0.685-0.006,1.525,0.579,1.772
		c0.589,0.249,1.102-0.051,1.48-0.48c0.831-0.94,1.582-1.94,2.1-3.099c0.187-0.418,0.431-0.811,0.69-1.294
		c0.216,0.254,0.447,0.406,0.499,0.605c0.509,1.937,0.823,3.925,0.592,5.906c-0.149,1.28-0.672,2.528-1.114,3.759
		c-0.646,1.797-1.45,3.539-2.04,5.352c-0.932,2.864-2.273,5.521-3.833,8.076c-1.421,2.327-2.874,4.636-4.362,6.921
		c-1.635,2.509-3.701,4.666-6.07,6.455c-2.303,1.739-4.817,3.178-7.392,4.528c-1.462,0.767-2.88,0.973-4.444,1.001
		c-0.779,0.014-1.551,0.306-2.33,0.448c-1.188,0.217-2.371,0.324-3.515-0.226c-0.176-0.084-0.382-0.119-0.579-0.142
		c-2.132-0.249-3.729-1.359-5.296-2.801c-1.47-1.353-2.724-2.819-3.855-4.432c-0.404-0.577-0.836-1.15-1.341-1.635
		c-0.56-0.538-0.86-1.12-1.018-1.893c-0.117-0.575-0.505-1.21-1.337-1.111c-0.839,1.079-0.785,1.181-0.016,2.32
		c0.685,1.013,1.294,2.089,1.829,3.19c0.9,1.851,2.12,3.478,3.572,4.886c1.141,1.106,2.495,2.006,3.811,2.916
		c1.09,0.753,2.382,1.146,3.678,1.196c2.471,0.095,4.96,0.16,7.418-0.047c1.653-0.14,3.256-0.763,4.648-1.809
		c0.559-0.419,1.282-0.613,1.916-0.937c0.735-0.375,1.455-0.781,2.212-1.19c0.07,0.211,0.134,0.419,0.2,0.629
		c0.437-0.701,1.048-1.294,1.755-1.737c0.05-0.231,0.183-0.447,0.463-0.628c2.36-1.527,4.192-3.607,6.02-5.71
		c0.797-0.917,1.438-1.891,1.987-2.956c0.284-0.552,0.617-1.087,0.987-1.586c0.521-0.703,1.168-1.32,1.632-2.056
		c0.885-1.401,1.705-2.844,2.501-4.298c0.704-1.289,1.432-2.577,1.982-3.934c1.032-2.544,1.942-5.138,2.908-7.709
		c0.308-0.818,0.686-1.613,0.933-2.448c0.721-2.433,0.503-4.88,0.075-7.339c-0.218-1.247-0.606-2.375-1.426-3.353
		c-0.41-0.491-0.437-1.011-0.218-1.667c0.554-1.661,1.031-3.353,1.44-5.056c0.427-1.78,0.727-3.59,1.106-5.382
		c0.155-0.734,0.413-1.446,0.561-2.181c0.729-3.637,1.236-7.302,1.326-11.017c0.015-0.598,0.063-1.195,0.096-1.793
		c0.129-2.336,0.38-4.672,0.355-7.007C398.891,291.671,398.677,288.811,398.458,285.957z M204.752,387.724
		c0.074-0.705,0.18-1.407,0.294-2.279c0.614,0.376,1.025,0.609,1.417,0.872c1.097,0.736,2.377,1.006,3.59,1.452
		c0.733,0.27,1.453,0.511,2.244,0.614c0.54,0.071,1.034,0.49,1.646,0.803c-0.305,1.078-1.008,1.979-1.893,2.731
		c-1.023,0.869-2.119,1.653-3.142,2.522c-0.71,0.603-1.35,1.287-2.112,2.023c-0.467-1.351-0.968-2.624-1.346-3.933
		C204.998,390.967,204.58,389.382,204.752,387.724z M289.807,311.474c-0.099,0.178-0.158,0.451-0.281,0.483
		c-1.716,0.444-3.421,1.003-5.169,1.238c-2.25,0.302-4.536,0.364-6.809,0.47c-0.539,0.025-1.087-0.198-1.634-0.29
		c-2.62-0.438-5.24-0.112-7.842,0.119c-1.47,0.131-2.907,0.65-4.353,1.022c-1,0.257-2.046,0.437-2.967,0.873
		c-1.777,0.841-3.74,1.29-5.345,2.495c-0.032,0.023-0.068,0.043-0.105,0.057c-0.584,0.22-1.209,0.223-1.78,0.638
		c-0.298,0.217-1.03-0.16-1.624-0.28c0.713-2.636,1.402-5.183,2.091-7.73l0.195,0.004c0.018,0.913,0.046,1.825,0.051,2.738
		c0.004,0.875,0.267,1.297,0.854,1.316c0.884,0.028,1.478-0.503,1.471-1.333c-0.011-1.344,0.019-2.69-0.071-4.029
		c-0.041-0.619-0.32-1.223-0.496-1.833c-0.328-1.14-0.677-2.274-0.979-3.42c-0.14-0.53-0.207-1.081-0.278-1.626
		c-0.171-1.297-0.364-2.592-0.472-3.895c-0.076-0.913-0.006-1.836-0.038-2.753c-0.021-0.632-0.122-1.261-0.155-1.892
		c-0.021-0.386-0.005-0.776,0.036-1.161c0.261-2.491,0.571-4.979,1.289-7.386c0.704-2.363,1.673-4.622,3.122-6.635
		c0.867-1.205,1.997-2.197,3.336-2.782c0.651-0.285,1.733-0.306,2.298,0.056c2.604,1.67,5.021,3.573,6.655,6.314
		c1.034,1.736,2.283,3.344,3.338,5.068c1.26,2.058,2.423,4.175,3.613,6.276c1.434,2.531,2.934,4.977,5.217,6.903
		c1.091,0.92,2.168,1.949,2.786,3.377c0.396,0.913,1.216,1.64,1.841,2.455c1.252,1.632,2.031,3.49,2.497,5.552
		C290.004,311.749,289.908,311.615,289.807,311.474z"/>
	<path fill-rule="evenodd" clip-rule="evenodd" d="M337.133,309.95c-0.437,0.052-0.872,0.103-1.309,0.154
		c0.001-0.097,0.002-0.194,0.003-0.292c0.424,0.057,0.849,0.114,1.276,0.167C337.106,309.976,337.133,309.95,337.133,309.95z"/>
	<path fill-rule="evenodd" clip-rule="evenodd" fill="#BCBEC0" d="M396.41,287.235c-0.095-1.78-0.445-3.546-0.553-5.327
		c-0.188-3.146-1.372-5.942-2.891-8.622c-0.385-0.678-0.955-1.278-1.535-1.809c-0.711-0.65-1.576-1.131-2.278-1.788
		c-1.44-1.348-3.187-2.051-5.066-2.289c-1.72-0.218-3.478-0.437-5.218-0.101c-0.642,0.124-1.266,0.354-1.888,0.565
		c-1.388,0.469-2.897,0.746-4.12,1.49c-1.508,0.917-3.087,1.695-4.598,2.597c-0.34,0.203-0.764,0.294-1.051,0.548
		c-0.914,0.809-1.773,1.68-2.669,2.511c-1.726,1.604-3.619,3.009-5.275,4.706c-1.12,1.147-2.458,2.084-3.447,3.385
		c-0.571,0.752-1.307,1.388-1.821,2.172c-0.711,1.083-1.328,2.234-1.902,3.397c-0.96,1.943-2.183,3.744-2.869,5.841
		c-0.477,1.456-1.357,2.764-1.833,4.251c-0.46,1.437-1.195,2.791-1.594,4.241c-0.249,0.907-0.699,1.641-1.179,2.395
		c-0.337,0.53-0.74,1.024-1.026,1.579c-0.787,1.526-1.857,2.824-3.221,3.836c-1.501,1.114-3.108,2.041-5.111,1.844
		c-0.432-0.042-0.89-0.013-1.311,0.086c-0.414,0.097-0.868,0.241-1.181,0.509c-1.667,1.433-2.898,3.143-3.225,5.391
		c-0.083,0.571-0.478,0.924-1.023,1.001c-0.785,0.111-1.587,0.222-2.374,0.186c-3.161-0.145-6.358,0.437-9.482-0.592
		c-1.112-0.366-2.347-0.345-3.502-0.604c-1.312-0.293-2.654-0.567-3.881-1.09c-2.057-0.876-4.201-1.42-6.349-1.953
		c-1.581-0.392-3.245-0.485-4.79-0.971c-2.69-0.847-5.403-0.586-8.112-0.427c-1.301,0.077-2.618,0.347-3.868,0.727
		c-2.249,0.683-4.547,0.842-6.857,0.824c-1.789-0.015-3.574-0.282-5.364-0.35c-2.074-0.079-4.11,0.247-6.164,0.567
		c-3.258,0.509-6.278,1.586-9.188,3.063c-0.516,0.262-1.017,0.558-1.543,0.796c-0.74,0.334-1.515,0.597-2.241,0.958
		c-0.3,0.149-0.671,0.437-0.736,0.723c-0.143,0.632-0.552,0.686-1.048,0.753c-0.348,0.047-0.679,0.238-1.025,0.266
		c-1.43,0.113-2.509,1.161-3.981,1.336c-1.218,0.146-2.372,0.975-3.513,1.58c-0.9,0.477-1.72,1.102-2.605,1.606
		c-0.843,0.481-1.737,0.873-2.588,1.339c-0.653,0.358-1.259,0.804-1.916,1.154c-1.63,0.869-3.275,1.694-4.504,3.15
		c-0.505,0.599-1.049,1.239-1.715,1.612c-1.776,0.997-3.221,2.41-4.712,3.729c-1.673,1.479-3.22,3.114-4.654,4.861
		c-1.383,1.685-2.503,3.532-3.409,5.448c-1.339,2.834-2.296,5.847-3.441,8.774c-0.287,0.733-0.663,1.432-1.009,2.142
		c-0.191,0.392-0.424,0.765-0.606,1.161c-1.191,2.576-2.818,4.782-5.298,6.266c-1.249,0.748-2.05,1.854-2.547,3.194
		c-0.344,0.928-0.691,1.858-0.97,2.807c-0.198,0.677-0.362,1.382-0.406,2.083c-0.151,2.465,0.403,4.808,1.331,7.098
		c0.256,0,0.49-0.016,0.72,0.002c0.833,0.068,1.67,0.115,2.497,0.236c0.427,0.063,0.766,0.24,0.892,0.803
		c0.146,0.654-0.483,0.569-0.674,0.891c-0.15,0.253-0.614,0.32-1.091,0.54c0.494,0.291,0.806,0.549,1.164,0.67
		c1.193,0.402,2.39,0.809,3.612,1.108c1.08,0.265,2.188,0.418,3.203-0.321c0.438-0.318,0.914-0.219,1.345,0.072
		c0.434,0.293,0.662,0.681,0.523,1.224c-0.088,0.347-0.111,0.726-0.268,1.038c-0.866,1.724-1.598,3.531-3.059,4.887
		c-1.042,0.967-2,2.033-3.103,2.924c-1.307,1.055-2.472,2.205-3.55,3.5c-1.935,2.324-1.899,4.971-1.6,7.709
		c0.016,0.146,0.136,0.281,0.227,0.461c1.752-0.344,3.5-0.65,5.23-1.033c2.572-0.568,5.115-0.262,7.66,0.156
		c0.236,0.039,0.476,0.076,0.701,0.154c2.295,0.795,4.422,1.949,6.317,3.436c1.893,1.484,3.722,3.07,5.404,4.801
		c1.041,1.072,2.041,2.186,3.003,3.328c0.804,0.955,1.538,1.971,2.282,2.975c1.007,1.359,1.548,2.941,2.114,4.508
		c0.783,2.168,1.573,4.332,2.329,6.508c0.26,0.746,0.393,1.537,0.64,2.289c0.652,1.99,2.359,3.215,3.591,4.777
		c0.797,1.012,1.974,1.689,2.989,2.496c0.895,0.711,1.852,1.385,2.807,1.887c1.441,0.758,2.814,1.648,4.237,2.426
		c1.49,0.814,3.134,1.32,4.532,2.332c1.033,0.748,2.302,1.186,3.288,1.982c1.631,1.318,3.168,2.768,4.652,4.254
		c1.276,1.281,2.423,2.689,3.624,4.045c0.543,0.615,1.131,1.199,1.602,1.865c0.64,0.906,1.25,1.848,1.752,2.834
		c0.391,0.77,0.656,1.617,0.868,2.457c0.16,0.637-0.271,1.254-0.817,1.404c-0.62,0.17-1.155-0.092-1.382-0.811
		c-0.522-1.648-1.405-3.08-2.3-4.549c-0.933-1.531-2.127-2.82-3.265-4.146c-1.294-1.508-2.838-2.811-4.332-4.137
		c-1.059-0.941-2.135-1.908-3.347-2.621c-1.61-0.945-3.363-1.65-5.048-2.473c-0.38-0.186-0.704-0.516-1.098-0.639
		c-1.593-0.496-2.9-1.49-4.253-2.393c-1.323-0.883-2.36-2.18-3.973-2.654c-0.354-0.105-0.641-0.465-0.935-0.732
		c-0.612-0.559-1.209-1.133-1.813-1.701c0.342,2.297,0.773,4.504,1.75,6.551c0.268,0.561,0.669,1.061,1.008,1.588
		c0.332,0.516,0.315,1.246-0.033,1.525c-0.412,0.33-1.388,0.33-1.651-0.041c-1.005-1.414-1.875-2.916-2.309-4.6
		c-0.42-1.631-1.46-3.131-1.116-4.938c0.007-0.033-0.019-0.074-0.034-0.111c-0.462-1.072-0.589-2.211-0.696-3.357
		c-0.025-0.273-0.042-0.598-0.192-0.803c-0.645-0.871-0.704-1.902-0.915-2.902c-0.685-3.248-2.127-6.227-3.318-9.295
		c-0.68-1.752-1.738-3.203-3.069-4.502c-0.756-0.738-1.499-1.512-2.12-2.361c-1.19-1.629-2.792-2.793-4.338-4.016
		c-1.153-0.912-2.434-1.658-3.589-2.568c-1.108-0.871-2.333-1.455-3.663-1.857c-1.637-0.494-3.323-0.246-4.987-0.32
		c-1.488-0.064-2.942,0.16-4.361,0.592c-0.832,0.254-1.631,0.645-2.477,0.805c-0.621,0.117-0.973,0.42-1.252,0.859
		c1.67,0.17,3.344,0.328,5.014,0.52c0.261,0.029,0.509,0.201,0.757,0.316c0.208,0.098,0.397,0.262,0.614,0.307
		c0.557,0.117,1.154-0.014,1.563,0.631c0.15,0.236,0.829,0.08,1.105,0.305c1.097,0.881,2.206,1.773,3.167,2.795
		c1.029,1.092,1.972,2.285,2.817,3.527c0.982,1.443,1.946,2.924,2.688,4.498c1.328,2.818,2.414,5.752,3.745,8.568
		c0.505,1.068,0.835,2.498,2.52,2.545c0.427,0.012,0.682,0.773,0.552,1.311c-0.126,0.523-0.51,0.957-0.996,0.848
		c-0.992-0.223-2.069-0.434-2.711-1.336c-0.551-0.773-1.013-1.615-1.448-2.463c-0.588-1.143-1.115-2.318-1.667-3.479
		c-0.007,0.002-0.012,0.004-0.019,0.006c0.011,0.256,0.046,0.514,0.013,0.766c-0.079,0.605-0.427,0.781-0.988,0.574
		c0.006-0.891,0.165-1.107,0.975-1.34c0-0.018-0.002-0.035-0.003-0.053l0.022,0.047c0.005-0.002,0.009-0.004,0.015-0.006
		c-0.027-0.195-0.011-0.406-0.085-0.578c-0.751-1.746-1.405-3.545-2.309-5.207c-1.016-1.869-2.232-3.635-3.418-5.406
		c-0.479-0.715-1.052-1.395-1.686-1.975c-0.813-0.746-1.67-1.473-2.721-1.885c-1.549-0.609-3.051-1.373-4.802-1.281
		c-1.237,0.063-2.48-0.021-3.718,0.027c-0.545,0.021-1.198,0.061-1.604,0.359c-1.209,0.893-2.455,1.781-3.333,3.039
		c-0.587,0.842-1.068,1.758-1.676,2.582c-0.815,1.105-0.658,2.18-0.197,3.191c0.623-0.137,1.213-0.471,1.635-0.322
		c1.268,0.441,2.306,1.23,2.534,2.699c0.091,0.584,0.134,1.174,0.206,1.762c0.024,0.195,0.072,0.387,0.114,0.609
		c0.294,0.027,0.567,0.053,0.877,0.082c0.364,0.666,0.737,1.348,1.125,2.057c0.236,0.023,0.525,0.053,0.952,0.098
		c-0.191,0.281-0.298,0.439-0.405,0.598c0.228-0.059,0.449-0.201,0.452-0.348c0.025-1.076,0.054-2.156-0.012-3.23
		c-0.076-1.232,0.354-1.73,1.556-1.572c0.34,0.043,0.682,0.199,0.987,0.367c1.035,0.57,1.47,1.531,1.598,2.648
		c0.117,1.029,0.102,2.084,0.31,3.092c0.214,1.041,0.572,2.064,0.983,3.047c0.144,0.344,0.594,0.654,0.972,0.789
		c1.798,0.643,2.996,0.395,4.436-1.068c0.316-0.322,0.689-0.584,1.12-0.943c0.35,0.465,0.426,1.119,1.079,0.883
		c0.035,0.256,0.152,0.537,0.082,0.76c-0.076,0.244-0.488,0.447-0.472,0.646c0.076,0.949-0.517,1.102-1.237,1.248
		c-0.33,0.068-0.616,0.344-0.927,0.518c-0.239,0.133-0.49,0.369-0.728,0.361c-1.44-0.053-2.857,0.213-4.29-0.576
		c-1.745-0.961-3.385-1.906-4.288-3.771c-0.193-0.398-0.476-0.545-0.972-0.439c-0.394,0.086-0.856-0.008-1.257-0.127
		c-1.162-0.342-1.809-1.191-2.052-2.277c-0.575-0.035-1.073-0.064-1.608-0.098c-0.13,0.168-0.31,0.338-0.413,0.545
		c-0.422,0.855-0.817,1.723-1.229,2.582c-0.99,2.07-2.082,4.113-2.546,6.377c-0.586,2.861-1.497,5.652-1.666,8.607
		c-0.129,2.254-0.424,4.498-0.076,6.754c0.542,3.514,1.801,6.596,5.223,8.271c1.116,0.545,2.318,0.826,3.574,0.25
		c-0.306-0.885-0.626-1.734-0.894-2.602c-0.269-0.871-0.518-1.752-0.715-2.641c-0.266-1.203-0.587-2.408-0.684-3.627
		c-0.223-2.779-0.343-5.566-0.454-8.354c-0.018-0.443,0.145-0.947,0.371-1.338c0.322-0.559,0.842-0.541,1.224-0.016
		c0.177,0.244,0.358,0.537,0.39,0.822c0.188,1.705,0.474,3.416,0.46,5.121c-0.023,2.949,0.437,5.779,1.47,8.533
		c0.362,0.965,0.684,1.945,0.965,2.936c0.351,1.238,0.798,2.416,1.628,3.424c0.497,0.602,1.055,1.174,1.443,1.842
		c0.677,1.168,1.727,1.953,2.73,2.752c1.841,1.467,3.647,3.01,5.886,3.891c0.707,0.279,1.38,0.643,2.086,0.924
		c0.821,0.326,1.657,0.619,2.495,0.9c1.266,0.424,2.539,0.826,3.81,1.234c0.489,0.156,0.997,0.262,1.472,0.453
		c1.508,0.605,3.005,1.238,4.504,1.865c0.802,0.336,1.595,0.693,2.398,1.027c0.58,0.24,1.164,0.475,1.755,0.688
		c0.409,0.146,0.831,0.262,1.253,0.369c1.535,0.387,2.985,1.07,4.598,1.193c0.978,0.076,1.951,0.275,2.913,0.482
		c1.553,0.334,3.082,0.803,4.645,1.07c2.966,0.504,5.979,0.381,8.971,0.445c1.411,0.031,2.831-0.264,4.245-0.43
		c1.972-0.23,3.946-0.453,5.912-0.73c1.251-0.178,2.482-0.494,3.733-0.676c2.4-0.348,4.823-0.559,7.205-0.998
		c1.084-0.199,2.325,0.295,3.26-0.643c1.342-0.035,2.489-0.654,3.708-1.127c1.863-0.723,3.952-0.852,5.605-2.141
		c0.06-0.047,0.148-0.057,0.222-0.086c1.323-0.555,2.656-1.084,3.964-1.67c0.771-0.348,1.502-0.781,2.248-1.182
		c0.818-0.439,1.634-0.881,2.446-1.328c1.183-0.654,2.362-1.314,3.542-1.973c-0.938-1.357-2.842-1.707-3.599-3.258
		c0.485-1.17,0.747-1.439,1.378-1.111c0.571,0.299,1.047,0.221,1.564-0.008c0.18,0.912,0.188,0.904,0.897,1.496
		c0.273,0.229,0.503,0.508,0.759,0.758c0.738,0.719,1.541,1.318,2.528,1.689c1.715,0.645,3.436,1.289,5.096,2.061
		c1.985,0.924,4.009,1.59,6.217,1.668c0.663,0.025,1.316,0.313,1.98,0.344c1.343,0.064,2.714,0.189,4.025-0.014
		c0.853-0.133,1.683-0.406,2.566-0.348c1.691,0.109,3.352-0.061,4.969-0.578c0.259-0.082,0.485-0.262,0.738-0.371
		c0.286-0.123,0.577-0.271,0.88-0.316c1.706-0.246,3.306-0.828,4.787-1.664c1.571-0.889,3.035-1.963,4.6-2.863
		c1.594-0.916,2.757-2.379,4.408-3.24c1.073-0.561,1.875-1.637,2.946-2.199c1.638-0.861,2.502-2.393,3.657-3.674
		c0.657-0.729,1.203-1.557,1.855-2.291c1.1-1.24,2.271-2.418,3.361-3.668c0.977-1.119,1.848-2.33,2.83-3.445
		c1.476-1.674,2.715-3.494,3.646-5.521c0.105-0.23,0.159-0.484,0.315-0.969c-0.827,0.455-1.496,0.703-2.018,1.133
		c-1.578,1.299-3.474,2.047-5.215,3.057c-1.088,0.631-2.176,1.229-3.09,2.09c-0.721,0.682-1.409,1.396-2.098,2.109
		c-0.553,0.572-1.325,0.711-1.765,0.293c-0.402-0.383-0.312-0.908,0.219-1.543c0.477-0.572,0.901-1.186,1.381-1.754
		c0.781-0.93,1.562-1.844,2.69-2.414c1.031-0.52,2.009-1.152,2.989-1.768c1.151-0.721,2.197-1.713,3.442-2.152
		c1.216-0.43,1.963-1.439,3.107-1.9c0.92-0.371,1.213-1.395,1.817-2.1c1.82-2.125,3.373-4.418,4.403-7.02
		c0.61-1.539,1.368-3.047,1.502-4.746c0.059-0.754,0.195-1.506,0.223-2.262c0.069-1.932,0.201-3.867,0.121-5.795
		c-0.159-3.838-1.242-7.514-2.13-11.227c-0.188-0.783-0.478-1.182-1.43-1.26c0.212-0.447,0.28-0.906,0.533-1.059
		c0.454-0.271,0.97-0.496,1.573-0.174c1.059,0.564,1.434,1.523,1.699,2.584c0.396,1.578,0.813,3.152,1.207,4.732
		c0.292,1.174,0.563,2.352,0.843,3.527c0.323-0.334,0.462-0.719,0.58-1.111c0.632-2.088,0.561-4.256,0.623-6.393
		c0.06-2.057-0.068-4.125-0.226-6.18c-0.16-2.094-0.364-4.193-0.734-6.257c-0.15-0.84-0.17-1.829-0.966-2.503
		c-0.164-0.138-0.153-0.805,0.017-0.952c0.423-0.368,0.86-0.862,1.543-0.74c0.126,0.254,0.255,0.498,0.387,0.744
		c0.017-0.244,0.054-0.475,0.101-0.698c-0.313-1.772-0.521-3.524-0.522-5.213c-0.782-3.517-1.586-7.004-3.406-10.18
		c-1.031-1.799-0.837-3.538,0.003-4.887c-0.066-0.21-0.13-0.418-0.2-0.629c-0.757,0.409-1.477,0.814-2.212,1.19
		c-0.634,0.324-1.357,0.518-1.916,0.937c-1.393,1.046-2.995,1.669-4.648,1.809c-2.458,0.208-4.947,0.142-7.418,0.047
		c-1.296-0.05-2.588-0.442-3.678-1.196c-1.315-0.909-2.67-1.809-3.811-2.916c-1.452-1.408-2.672-3.035-3.572-4.886
		c-0.535-1.101-1.145-2.177-1.829-3.19c-0.77-1.139-0.823-1.242,0.016-2.32c0.832-0.099,1.22,0.537,1.337,1.111
		c0.157,0.773,0.458,1.355,1.018,1.893c0.505,0.485,0.937,1.059,1.341,1.635c1.132,1.613,2.386,3.08,3.855,4.432
		c1.566,1.441,3.164,2.552,5.296,2.801c0.197,0.023,0.403,0.057,0.579,0.142c1.144,0.55,2.327,0.443,3.515,0.226
		c0.779-0.142,1.551-0.434,2.33-0.448c1.564-0.028,2.982-0.234,4.444-1.001c2.574-1.35,5.089-2.789,7.392-4.528
		c2.369-1.789,4.436-3.945,6.07-6.455c1.488-2.285,2.941-4.594,4.362-6.921c1.56-2.555,2.901-5.212,3.833-8.076
		c0.59-1.813,1.395-3.555,2.04-5.352c0.442-1.231,0.965-2.479,1.114-3.759c0.231-1.981-0.083-3.97-0.592-5.906
		c-0.052-0.199-0.283-0.351-0.499-0.605c-0.26,0.483-0.504,0.876-0.69,1.294c-0.518,1.159-1.269,2.159-2.1,3.099
		c-0.379,0.429-0.892,0.729-1.48,0.48c-0.585-0.248-0.843-1.088-0.579-1.772c0.094-0.244,0.291-0.454,0.465-0.659
		c0.146-0.174,0.375-0.292,0.483-0.482c0.804-1.403,1.708-2.765,2.347-4.241c1.007-2.327,1.862-4.714,2.325-7.237
		c0.552-3.005,1.302-5.974,1.866-8.978c0.38-2.021,0.621-4.07,0.86-6.114c0.157-1.343,0.195-2.699,0.294-4.049
		c0.116-1.589,0.352-3.179,0.337-4.766C396.7,293.742,396.582,290.486,396.41,287.235z M200.636,419.197
		c-0.16-0.551-0.292-1.02,0.369-1.094c0.19-0.021,0.578,0.244,0.593,0.404C201.653,419.113,201.196,419.176,200.636,419.197z
		 M203.221,419.18c-0.156-0.088-0.261-0.111-0.274-0.16c-0.117-0.439-0.066-0.768,0.775-0.699
		C203.501,418.699,203.361,418.939,203.221,419.18z M205.12,419.789c-0.177-0.617,0.325-0.717,0.754-0.959
		C206.275,419.803,206.173,419.916,205.12,419.789z M207.068,421.17c-0.264-0.6-0.126-1.014,0.415-1.182
		c0.134-0.041,0.548,0.287,0.548,0.445C208.031,421.045,207.589,421.162,207.068,421.17z M209.709,422.141
		c-0.188,0.084-0.652-0.008-0.705-0.137c-0.244-0.592,0.345-0.67,0.723-0.992C210.123,421.486,210.291,421.881,209.709,422.141z
		 M211.649,423.75c-0.269-0.529-0.188-0.914,0.286-1.117c0.118-0.051,0.482,0.143,0.511,0.273
		C212.564,423.441,212.224,423.66,211.649,423.75z M214.947,426.58c-0.468-0.938-0.426-1.039,0.501-1.303
		C215.81,425.869,215.491,426.221,214.947,426.58z M216.076,429.586c-0.549-0.369-0.573-0.764-0.244-1.072
		c0.146-0.135,0.524-0.023,1.097-0.023C216.514,429.023,216.296,429.303,216.076,429.586z M217.063,431.744
		c-0.023-0.682,0.049-1.109,0.792-0.955C217.75,431.537,217.75,431.537,217.063,431.744z M209.617,457.846
		c-1.013-0.637-1.299-1.084-1.079-1.717c0.133-0.383,0.317-0.723,0.832-0.676c0.308,0.027,1.191,0.766,1.247,1.16
		C210.724,457.379,210.124,457.586,209.617,457.846z M214.186,451.365c-0.166,0.162-0.489,0.314-0.688,0.266
		c-0.941-0.236-1.415-1.453-0.949-2.316c0.091-0.17,0.173-0.342,0.251-0.498c1.018-0.059,1.544,0.15,1.776,0.801
		C214.805,450.258,214.677,450.883,214.186,451.365z M217.704,464.295c-0.336,0.309-1.385,0.51-1.743,0.248
		c-0.134-0.098-0.236-0.316-0.25-0.488c-0.026-0.34,0.019-0.686,0.036-1.037c1.214-0.391,1.478-0.328,2.03,0.379
		C218.05,463.748,218.024,464,217.704,464.295z M219.714,435.822c-0.41-0.48-0.37-0.771,0.022-1.012
		c0.364-0.223,0.664-0.189,0.938,0.281C220.365,435.326,220.067,435.553,219.714,435.822z M221.889,433.793
		c-0.428-0.973-0.372-1.051,0.693-0.967C222.333,433.174,222.138,433.447,221.889,433.793z M225.335,462.406
		c-0.795-0.035-1.365-0.611-1.346-1.361c0.014-0.555,0.591-1,1.272-0.982c0.654,0.016,1.08,0.408,1.084,0.994
		C226.353,462.021,226.041,462.438,225.335,462.406z M226.121,452.352c-0.271,0.262-0.625,0.01-0.869-0.324
		c-0.153-0.209-0.444-0.318-0.712-0.5c0.023-0.385,0.046-0.768,0.076-1.254c0.392,0.053,0.659,0.088,1.047,0.139
		c-0.105-0.254-0.17-0.41-0.26-0.627c0.204-0.012,0.498-0.1,0.552-0.021c0.297,0.432,0.692,0.887,0.743,1.367
		C226.74,451.523,226.433,452.051,226.121,452.352z M232.731,471.301c-0.113,0.113-0.22,0.232-0.34,0.336
		c-0.057,0.049-0.139,0.066-0.335,0.156c-0.262-0.547-0.534-1.029-0.729-1.541c-0.274-0.721,0.113-1.197,1.155-1.49
		c0.07,0.029,0.158,0.041,0.213,0.09C233.795,469.834,233.8,470.227,232.731,471.301z M235.701,459.82
		c-0.672-0.461-0.711-1.088-0.628-1.781c0.102-0.854,0.991-0.74,1.341-1.229c0.293,0.566,0.561,1.084,0.94,1.818
		C237.195,459.4,236.275,459.371,235.701,459.82z M249.153,467.635c-0.608-0.453-1.132-0.844-1.742-1.301
		c0.183-0.58,0.354-1.125,0.505-1.605c0.924-0.236,1.565,0.057,1.894,0.752C250.188,466.285,249.562,466.869,249.153,467.635z
		 M260.032,378.069c2.164-0.327,4.364-0.135,6.552,0.126c3.135,0.375,6.135,1.339,9.209,1.971c0.231,0.047,0.463,0.136,0.668,0.252
		c1.397,0.792,2.771,1.629,4.188,2.383c0.616,0.328,1.317,0.499,1.981,0.736c0.263,0.094,0.529,0.175,0.793,0.266
		c1.03,0.355,1.786,0.915,1.538,2.283c-0.597,0.341-1.23,0.348-1.837,0.104c-1.353-0.542-2.694-1.113-4.026-1.705
		c-1.845-0.82-3.665-1.695-5.52-2.491c-0.574-0.246-1.222-0.335-1.845-0.451c-1.871-0.348-3.776-0.562-5.611-1.044
		c-1.471-0.386-2.942-0.439-4.389-0.289c-1.765,0.183-3.548,0.305-5.283,0.815c-2.536,0.747-5.119,1.331-7.577,2.332
		c-0.478,0.194-0.955,0.149-1.285-0.277c-0.361-0.466-0.289-1.337,0.163-1.753c0.705-0.649,1.479-1.222,2.447-1.41
		C253.474,379.279,256.737,378.567,260.032,378.069z M278.584,414.053c0.836,1.514,0.096,2.914-0.478,4.207
		c-0.595,1.342-1.546,2.564-2.782,3.408c-0.743,0.508-1.667,0.787-2.543,1.059c-2.197,0.678-4.444,0.346-6.628,0.006
		c-1.838-0.285-3.485-1.139-4.84-2.557c-0.684-0.715-1.39-1.4-2.035-2.16c-0.435-0.514-1.122-0.813-1.697-1.205
		c-0.754-0.516-1.553-0.977-2.253-1.557c-1.172-0.971-2.405-1.854-3.542-2.889c-1.692-1.541-2.998-3.32-4.087-5.252
		c-0.668-1.186-1.06-2.578-1.319-3.928c-0.491-2.553-0.598-5.158,0.001-7.708c0.286-1.218,0.916-2.355,1.484-3.761
		c-0.332-0.34-0.774-0.826-1.251-1.276c-0.538-0.507-1.109-0.979-1.66-1.473c-0.452-0.406-0.584-0.957-0.468-1.506
		c0.175-0.826,1.131-1.113,1.777-0.561c1.471,1.258,2.897,2.57,4.405,3.782c0.618,0.496,1.359,0.913,2.112,1.15
		c1.625,0.512,3.334,0.769,4.933,1.343c1.947,0.699,3.977,0.566,5.958,0.88c1.216,0.192,2.447,0.285,3.668,0.443
		c0.786,0.102,1.563,0.261,2.349,0.358c1.06,0.131,1.687,1.025,2.603,1.425c2.667,1.164,4.029,3.537,5.207,5.982
		c0.669,1.389,1.07,2.918,1.494,4.412c0.324,1.141,0.465,2.297,0.114,3.512c-0.316,1.096-0.389,2.262-0.558,3.398
		C278.525,413.74,278.515,413.928,278.584,414.053z M231.096,373.04c0.656-0.476,1.27-1.059,1.76-1.703
		c1.58-2.073,2.591-4.463,3.461-6.888c0.517-1.442,0.708-3.001,1.043-4.508c0.008-0.038-0.011-0.083,0.002-0.118
		c0.93-2.479,1.254-5.146,2.424-7.559c0.516-1.065,0.786-2.248,1.191-3.369c0.283-0.784,0.554-1.58,0.925-2.324
		c0.4-0.802,0.874-1.574,1.379-2.315c1.376-2.018,2.948-3.853,4.734-5.545c1.656-1.569,3.252-3.179,5.096-4.541
		c0.411-0.304,0.71-0.383,1.284-0.344c0.149,0.406,0.317,0.862,0.487,1.322c0.181,0.028,0.488-0.01,0.59,0.117
		c0.094,0.116,0.033,0.457-0.079,0.614c-0.154,0.218-0.395,0.453-0.641,0.516c-1.548,0.396-2.507,1.588-3.559,2.625
		c-1.658,1.633-3.275,3.31-4.849,5.024c-0.869,0.946-1.658,1.944-2.108,3.221c-0.549,1.557-1.437,2.994-1.979,4.552
		c-0.461,1.325-1.177,2.563-1.236,4.055c-0.036,0.914-0.576,1.801-0.837,2.716c-0.25,0.874-0.415,1.771-0.647,2.649
		c-0.426,1.611-0.846,3.225-1.326,4.82c-0.274,0.91-0.586,1.824-1.018,2.667c-0.554,1.083-1.232,2.104-1.881,3.136
		c-0.334,0.533-0.708,1.043-1.086,1.546c-0.733,0.975-1.76,1.54-2.936,2.03C229.961,374.741,229.938,373.88,231.096,373.04z
		 M221.974,399.268c-0.84,1.635-2.157,2.961-3.843,3.781c-0.583,0.285-1.335,0.203-1.964,0.42c-1.846,0.641-3.695,0.148-5.542,0.104
		c-0.693-0.018-1.197-0.559-1.194-1.193c0.002-0.613,0.559-1.137,1.282-1.145c1.114-0.012,2.229-0.02,3.342,0.027
		c2.682,0.115,4.747-0.846,5.874-3.381c0.482-1.083,0.862-2.215,1.238-3.342c0.26-0.777,0.339-0.845,1.172-0.644
		c0.444,0.107,0.901,0.162,1.587,0.281C223.233,396.025,222.765,397.73,221.974,399.268z M240.168,405.84
		c-0.46-1.811-0.768-3.662-1.303-5.447c-0.421-1.406-1.069-2.746-1.647-4.103c-0.373-0.876-0.754-1.754-1.213-2.587
		c-1.289-2.335-3.081-4.286-5.018-6.07c-1.304-1.201-3.012-1.764-4.785-1.904c-1.31-0.104-2.633-0.054-3.949-0.038
		c-0.351,0.004-0.726,0.079-1.044,0.221c-0.464,0.207-0.864,0.366-1.302-0.057c-0.465-0.45-0.566-0.938-0.289-1.514
		c0.035-0.072,0.061-0.147,0.179-0.434c1.422-0.279,2.855-0.757,4.299-0.79c1.445-0.033,2.959,0.192,4.338,0.633
		c2.8,0.895,5.082,2.529,6.765,5.059c0.819,1.23,1.865,2.325,2.571,3.653c1.381,2.6,2.617,5.26,3.369,8.12
		c0.455,1.727,0.828,3.477,1.319,5.193c0.19,0.668,0.519,1.336,0.938,1.887c0.538,0.703,0.613,1.404,0.459,2.225
		c-0.087,0.461-0.354,0.789-0.728,0.826c-0.264,0.027-0.658-0.24-0.832-0.49C241.356,408.879,240.575,407.439,240.168,405.84z
		 M286.676,463.377c-0.325,0.318-0.961-0.002-1.211-0.572c-0.412-0.938-0.792-1.891-1.188-2.836c-1.183-2.83-2.82-5.412-4.505-7.947
		c-0.813-1.225-1.883-2.295-2.956-3.352c-1.388-1.369-2.938-2.484-4.511-3.588c-0.669-0.469-1.46-0.762-2.171-1.178
		c-0.869-0.508-1.725-1.043-2.565-1.598c-1.615-1.07-3.3-2.027-4.721-3.383c-1.77-1.691-3.695-3.225-5.402-4.973
		c-0.955-0.977-1.657-2.219-2.384-3.398c-1.386-2.248-2.76-4.498-4.341-6.625c-1.217-1.637-2.78-2.857-4.471-3.871
		c-0.822-0.492-1.739-1.008-2.822-1.059c-0.983-0.047-1.582-0.76-1.494-1.475c0.089-0.719,0.409-1.035,1.093-0.932
		c1.828,0.275,3.513,0.846,4.83,2.268c0.402,0.434,1.011,0.682,1.536,0.996c0.815,0.488,1.654,0.938,2.121,1.838
		c0.102,0.195,0.319,0.334,0.488,0.492c0.145,0.137,0.372,0.238,0.435,0.402c0.476,1.26,1.492,2.176,2.103,3.35
		c0.18,0.346,0.444,0.646,0.669,0.969c1.105,1.586,2.161,3.209,3.329,4.746c1.513,1.994,3.22,3.793,5.375,5.145
		c1.121,0.703,2.096,1.637,3.178,2.408c1.503,1.072,3.022,2.127,4.578,3.119c1.075,0.686,2.243,1.227,3.333,1.891
		c0.429,0.262,0.729,0.729,1.142,1.025c2.582,1.855,4.574,4.281,6.402,6.822c1.286,1.787,2.277,3.779,3.133,5.824
		c0.474,1.133,0.964,2.26,1.444,3.391c0.106,0.25,0.201,0.504,0.347,0.875C287.22,462.553,287.021,463.041,286.676,463.377z
		 M328.329,387.208c-0.202,0.662-0.634,1.252-0.945,1.884c-0.175,0.354-0.354,0.714-0.461,1.091
		c-0.415,1.47-1.064,2.818-1.991,4.032c-2.923,3.833-3.91,4.838-8.102,8.116c-1.808,1.414-3.659,2.771-5.475,4.174
		c-2.256,1.742-4.48,3.512-6.527,5.51c-2.725,2.66-5.032,5.641-7.15,8.783c-0.375,0.555-0.655,1.186-0.909,1.811
		c-0.564,1.391-1.158,2.777-1.601,4.209c-0.386,1.25-0.573,2.559-0.868,3.836c-0.08,0.346-0.187,0.701-0.363,1.004
		c-0.822,1.408-1.217,2.891-1.074,4.541c0.087,1.01-0.25,1.328-1.082,1.322c-0.692-0.004-1.033-0.406-0.887-1.203
		c0.229-1.246,0.545-2.477,0.8-3.719c0.318-1.555,0.433-3.176,0.958-4.654c0.817-2.303,1.313-4.734,2.651-6.852
		c0.82-1.297,1.433-2.725,2.247-4.027c0.566-0.906,1.265-1.744,1.992-2.533c1.563-1.693,3.123-3.398,4.8-4.975
		c1.359-1.277,2.869-2.398,4.348-3.543c1.212-0.939,2.425-1.855,3.517-2.953c0.945-0.947,2.094-1.703,3.197-2.48
		c1.948-1.371,3.81-2.859,5.417-4.606c1.582-1.719,3.038-3.572,4.034-5.714c0.885-1.905,1.6-3.875,2.076-5.932
		c0.166-0.717,0.517-1.405,0.876-2.055c0.085-0.152,0.746-0.212,0.802-0.116c0.261,0.449,0.61,0.995,0.548,1.455
		C328.993,384.827,328.688,386.032,328.329,387.208z M365.058,361.061c-0.36,0.165-0.871,0.255-1.14-0.281
		c-0.104-0.206-0.28-0.4-0.306-0.614c-0.231-1.931-1.288-3.495-2.314-5.041c-1.773-2.67-3.66-5.264-5.469-7.91
		c-0.537-0.785-0.986-1.632-1.456-2.461c-0.998-1.762-2.167-3.456-2.93-5.315c-1.244-3.034-2.735-6.017-3.134-9.331
		c-0.321-2.682-0.466-5.366-0.321-8.09c0.159-2.997,0.758-5.93,0.957-8.908c0.198-2.968,0.995-5.801,1.692-8.659
		c0.262-1.074,0.706-2.104,1.086-3.148c0.679-1.864,1.384-3.72,2.055-5.586c0.591-1.643,1.27-3.266,1.694-4.952
		c0.47-1.868,1.239-3.595,2.024-5.33c0.24-0.53,0.517-0.998,1.216-0.998c0.203,0.223,0.457,0.43,0.616,0.693
		c0.223,0.371,0.478,0.806,0.107,1.211c-1.273,1.395-1.308,3.272-1.946,4.913c-0.212,0.545-0.321,1.142-0.599,1.648
		c-0.569,1.038-0.914,2.114-1.154,3.284c-0.3,1.465-0.914,2.864-1.368,4.3c-0.669,2.117-1.314,4.242-1.973,6.363
		c-0.212,0.682-0.45,1.356-0.645,2.043c-0.193,0.686-0.394,1.375-0.511,2.076c-0.262,1.569-0.488,3.144-0.701,4.721
		c-0.123,0.906-0.136,1.83-0.299,2.728c-0.301,1.658-0.226,3.324-0.215,4.991c0.002,0.279,0.013,0.568-0.051,0.836
		c-0.558,2.352,0.247,4.553,0.729,6.791c0.084,0.387,0.179,0.773,0.223,1.166c0.113,0.992,0.361,1.907,0.904,2.785
		c0.539,0.872,0.917,1.853,1.291,2.814c0.701,1.8,1.444,3.562,2.562,5.167c0.719,1.033,1.192,2.231,1.848,3.313
		c1.047,1.731,2.262,3.331,3.628,4.84c0.862,0.953,1.411,2.192,2.082,3.314c0.363,0.607,0.672,1.248,1.033,1.857
		c0.72,1.215,1.173,2.523,1.271,3.927C365.566,360.497,365.306,360.946,365.058,361.061z"/>
	<path fill-rule="evenodd" clip-rule="evenodd" fill="#6D6E71" d="M290.1,311.882c-0.096-0.134-0.192-0.267-0.293-0.408
		c-0.099,0.178-0.158,0.451-0.281,0.483c-1.716,0.444-3.421,1.003-5.169,1.238c-2.25,0.302-4.536,0.364-6.809,0.47
		c-0.539,0.025-1.087-0.198-1.634-0.29c-2.62-0.438-5.24-0.112-7.842,0.119c-1.47,0.131-2.907,0.65-4.353,1.022
		c-1,0.257-2.046,0.437-2.967,0.873c-1.777,0.841-3.74,1.29-5.345,2.495c-0.032,0.023-0.068,0.043-0.105,0.057
		c-0.584,0.22-1.209,0.223-1.78,0.638c-0.298,0.217-1.03-0.16-1.624-0.28c0.713-2.636,1.402-5.183,2.091-7.73
		c0.065,0.001,0.13,0.003,0.195,0.004c0.018,0.913,0.046,1.825,0.051,2.738c0.004,0.875,0.267,1.297,0.854,1.316
		c0.884,0.028,1.478-0.503,1.471-1.333c-0.011-1.344,0.019-2.69-0.071-4.029c-0.041-0.619-0.32-1.223-0.496-1.833
		c-0.328-1.14-0.677-2.274-0.979-3.42c-0.14-0.53-0.207-1.081-0.278-1.626c-0.171-1.297-0.364-2.592-0.472-3.895
		c-0.076-0.913-0.006-1.836-0.038-2.753c-0.021-0.632-0.122-1.261-0.155-1.892c-0.021-0.386-0.005-0.776,0.036-1.161
		c0.261-2.491,0.571-4.979,1.289-7.386c0.704-2.363,1.673-4.622,3.122-6.635c0.867-1.205,1.997-2.197,3.336-2.782
		c0.651-0.285,1.733-0.306,2.298,0.056c2.604,1.67,5.021,3.573,6.655,6.314c1.034,1.736,2.283,3.344,3.338,5.068
		c1.26,2.058,2.423,4.175,3.613,6.276c1.434,2.531,2.934,4.977,5.217,6.903c1.091,0.92,2.168,1.949,2.786,3.377
		c0.396,0.913,1.216,1.64,1.841,2.455C288.855,307.962,289.634,309.82,290.1,311.882z"/>
	<path fill-rule="evenodd" clip-rule="evenodd" fill="#6D6E71" d="M205.046,385.445c0.614,0.376,1.025,0.609,1.417,0.872
		c1.097,0.736,2.377,1.006,3.59,1.452c0.733,0.27,1.453,0.511,2.244,0.614c0.54,0.071,1.034,0.49,1.646,0.803
		c-0.305,1.078-1.008,1.979-1.893,2.731c-1.023,0.869-2.119,1.653-3.142,2.522c-0.71,0.603-1.35,1.287-2.112,2.023
		c-0.467-1.351-0.968-2.624-1.346-3.933c-0.452-1.563-0.87-3.148-0.698-4.807C204.826,387.019,204.932,386.317,205.046,385.445z"/>
	<path fill-rule="evenodd" clip-rule="evenodd" d="M247.865,391.717c-0.332-0.34-0.774-0.826-1.251-1.276
		c-0.538-0.507-1.109-0.979-1.66-1.473c-0.452-0.406-0.584-0.957-0.468-1.506c0.175-0.826,1.131-1.113,1.777-0.561
		c1.471,1.258,2.897,2.57,4.405,3.782c0.618,0.496,1.359,0.913,2.112,1.15c1.625,0.512,3.334,0.769,4.933,1.343
		c1.947,0.699,3.977,0.566,5.958,0.88c1.216,0.192,2.447,0.285,3.668,0.443c0.786,0.102,1.563,0.261,2.349,0.358
		c1.06,0.131,1.687,1.025,2.603,1.425c2.667,1.164,4.029,3.537,5.207,5.982c0.669,1.389,1.07,2.918,1.494,4.412
		c0.324,1.141,0.465,2.297,0.114,3.512c-0.316,1.096-0.389,2.262-0.558,3.398c-0.022,0.152-0.033,0.34,0.036,0.465
		c0.836,1.514,0.096,2.914-0.478,4.207c-0.595,1.342-1.546,2.564-2.782,3.408c-0.743,0.508-1.667,0.787-2.543,1.059
		c-2.197,0.678-4.444,0.346-6.628,0.006c-1.838-0.285-3.485-1.139-4.84-2.557c-0.684-0.715-1.39-1.4-2.035-2.16
		c-0.435-0.514-1.122-0.813-1.697-1.205c-0.754-0.516-1.553-0.977-2.253-1.557c-1.172-0.971-2.405-1.854-3.542-2.889
		c-1.692-1.541-2.998-3.32-4.087-5.252c-0.668-1.186-1.06-2.578-1.319-3.928c-0.491-2.553-0.598-5.158,0.001-7.708
		C246.667,394.26,247.297,393.123,247.865,391.717z M262.609,416.521c0.986-0.422,1.93-1.025,2.951-1.213
		c1.602-0.295,2.769-1.182,3.6-2.41c1.455-2.15,1.874-4.561,1.269-7.139c-0.333-1.42-0.912-2.746-1.79-3.854
		c-0.83-1.047-1.931-1.912-3.332-2.186c-1.013-0.197-2.09-0.203-3.038-0.563c-0.858-0.324-1.629-0.252-2.747-0.223
		c1.784,1.533,2.213,3.344,2.184,5.32c-0.001,0.119,0.008,0.24,0.028,0.357c0.318,1.809,0.254,3.58-0.845,5.129
		c-1.033,1.453-2.365,2.48-4.292,2.395c-0.45-0.021-0.903-0.004-1.354-0.004c-0.018,0.088-0.035,0.176-0.053,0.262
		c0.132,0.08,0.265,0.158,0.397,0.238c-0.112-0.418,0.162-0.395,0.373-0.27c0.249,0.148,0.444,0.387,0.68,0.604
		c-0.232,0.199-0.365,0.314-0.462,0.396c1.139,0.701,2.247,1.436,3.409,2.074c0.647,0.355,1.382,0.551,2.078,0.818
		C262.212,415.572,262.364,416.24,262.609,416.521z M269.756,415.783c0.781,0.354,0.772,0.299,1.408,0.186
		c1.075-0.195,1.987-0.848,3.093-0.982c0.82-0.102,1.466-0.615,1.779-1.438c0.901-2.367,1.191-4.783,0.447-7.244
		c-0.345-1.141-0.754-2.266-1.207-3.367c-0.848-2.066-2.182-3.723-4.136-4.881c-1.642-0.975-3.494-1.025-5.282-1.301
		c-1.84-0.284-3.713-0.358-5.572-0.515c-0.087-0.008-0.183,0.084-0.278,0.132c0.06,0.097,0.089,0.204,0.136,0.212
		c1.524,0.268,3.041,0.636,4.577,0.759c2.766,0.219,4.45,1.963,6.048,3.93c0.589,0.725,0.889,1.561,1.24,2.398
		c1.419,3.387,1.109,6.684-0.516,9.881C271.074,414.377,270.343,415.045,269.756,415.783z M255.701,409.371
		c0.351-0.029,0.764-0.127,1.164-0.088c1.645,0.158,2.61-0.572,2.674-2.209c0.044-1.146-0.019-2.307-0.146-3.449
		c-0.086-0.771-0.297-1.551-0.581-2.277c-0.367-0.938-0.955-1.213-1.933-1.133c-0.395,0.031-0.794,0.02-1.191,0.021
		c-0.77,0.004-1.314,0.268-1.731,1.002c-1.171,2.061-1.145,4.139-0.345,6.287c0.219,0.59,0.516,1.023,1.2,1.17
		C255.116,408.76,255.362,409.102,255.701,409.371z M250.687,406.268c0.215-1.5,0.427-2.975,0.638-4.451
		c0.22-1.537,1.415-2.439,2.38-3.441c0.409-0.424,1.237-0.443,1.958-0.674c-0.896-0.328-1.77-0.654-2.648-0.968
		c-1.216-0.435-2.518-0.72-3.238-1.976c-0.063-0.109-0.252-0.146-0.453-0.253c-0.309,0.83-0.786,1.581-0.836,2.36
		c-0.106,1.655-0.063,3.331,0.057,4.987c0.108,1.498,0.443,2.971,1.148,4.328c0.029,0.055,0.075,0.104,0.086,0.117
		c0.26-0.146,0.487-0.273,0.677-0.381C250.568,406.088,250.64,406.197,250.687,406.268z M264.07,419.74
		c0.47,0.096,0.95,0.068,1.272,0.281c0.941,0.621,1.979,0.883,3.063,0.986c0.657,0.064,1.333-0.063,1.987,0.018
		c0.999,0.121,1.906-0.043,2.834-0.432c1.53-0.641,2.231-1.918,3.009-3.408c-0.412-0.021-0.64-0.088-0.834-0.033
		c-0.3,0.084-0.582,0.371-0.863,0.361c-1.16-0.045-2.158,0.451-3.204,0.814c-0.481,0.166-1.143,0.043-1.485,0.332
		c-0.755,0.639-1.6,0.494-2.428,0.541c-0.673,0.039-1.353-0.021-2.029-0.029C264.932,419.166,264.433,419.064,264.07,419.74z"/>
	<path fill-rule="evenodd" clip-rule="evenodd" d="M358.713,284.437c0.203,0.223,0.457,0.43,0.616,0.693
		c0.223,0.371,0.478,0.806,0.107,1.211c-1.273,1.395-1.308,3.272-1.946,4.913c-0.212,0.545-0.321,1.142-0.599,1.648
		c-0.569,1.038-0.914,2.114-1.154,3.284c-0.3,1.465-0.914,2.864-1.368,4.3c-0.669,2.117-1.314,4.242-1.973,6.363
		c-0.212,0.682-0.45,1.356-0.645,2.043c-0.193,0.686-0.394,1.375-0.511,2.076c-0.262,1.569-0.488,3.144-0.701,4.721
		c-0.123,0.906-0.136,1.83-0.299,2.728c-0.301,1.658-0.226,3.324-0.215,4.991c0.002,0.279,0.013,0.568-0.051,0.836
		c-0.558,2.352,0.247,4.553,0.729,6.791c0.084,0.387,0.179,0.773,0.223,1.166c0.113,0.992,0.361,1.907,0.904,2.785
		c0.539,0.872,0.917,1.853,1.291,2.814c0.701,1.8,1.444,3.562,2.562,5.167c0.719,1.033,1.192,2.231,1.848,3.313
		c1.047,1.731,2.262,3.331,3.628,4.84c0.862,0.953,1.411,2.192,2.082,3.314c0.363,0.607,0.672,1.248,1.033,1.857
		c0.72,1.215,1.173,2.523,1.271,3.927c0.021,0.28-0.24,0.729-0.488,0.843c-0.36,0.165-0.871,0.255-1.14-0.281
		c-0.104-0.206-0.28-0.4-0.306-0.614c-0.231-1.931-1.288-3.495-2.314-5.041c-1.773-2.67-3.66-5.264-5.469-7.91
		c-0.537-0.785-0.986-1.632-1.456-2.461c-0.998-1.762-2.167-3.456-2.93-5.315c-1.244-3.034-2.735-6.017-3.134-9.331
		c-0.321-2.682-0.466-5.366-0.321-8.09c0.159-2.997,0.758-5.93,0.957-8.908c0.198-2.968,0.995-5.801,1.692-8.659
		c0.262-1.074,0.706-2.104,1.086-3.148c0.679-1.864,1.384-3.72,2.055-5.586c0.591-1.643,1.27-3.266,1.694-4.952
		c0.47-1.868,1.239-3.595,2.024-5.33C357.737,284.904,358.014,284.437,358.713,284.437z"/>
	<path fill-rule="evenodd" clip-rule="evenodd" d="M291.781,437.52c-0.692-0.004-1.033-0.406-0.887-1.203
		c0.229-1.246,0.545-2.477,0.8-3.719c0.318-1.555,0.433-3.176,0.958-4.654c0.817-2.303,1.313-4.734,2.651-6.852
		c0.82-1.297,1.433-2.725,2.247-4.027c0.566-0.906,1.265-1.744,1.992-2.533c1.563-1.693,3.123-3.398,4.8-4.975
		c1.359-1.277,2.869-2.398,4.348-3.543c1.212-0.939,2.425-1.855,3.517-2.953c0.945-0.947,2.094-1.703,3.197-2.48
		c1.948-1.371,3.81-2.859,5.417-4.606c1.582-1.719,3.038-3.572,4.034-5.714c0.885-1.905,1.6-3.875,2.076-5.932
		c0.166-0.717,0.517-1.405,0.876-2.055c0.085-0.152,0.746-0.212,0.802-0.116c0.261,0.449,0.61,0.995,0.548,1.455
		c-0.163,1.215-0.468,2.42-0.827,3.596c-0.202,0.662-0.634,1.252-0.945,1.884c-0.175,0.354-0.354,0.714-0.461,1.091
		c-0.415,1.47-1.064,2.818-1.991,4.032c-2.923,3.833-3.91,4.838-8.102,8.116c-1.808,1.414-3.659,2.771-5.475,4.174
		c-2.256,1.742-4.48,3.512-6.527,5.51c-2.725,2.66-5.032,5.641-7.15,8.783c-0.375,0.555-0.655,1.186-0.909,1.811
		c-0.564,1.391-1.158,2.777-1.601,4.209c-0.386,1.25-0.573,2.559-0.868,3.836c-0.08,0.346-0.187,0.701-0.363,1.004
		c-0.822,1.408-1.217,2.891-1.074,4.541C292.951,437.207,292.613,437.525,291.781,437.52z"/>
	<path fill-rule="evenodd" clip-rule="evenodd" d="M287.47,462.152c-0.25,0.4-0.449,0.889-0.794,1.225
		c-0.325,0.318-0.961-0.002-1.211-0.572c-0.412-0.938-0.792-1.891-1.188-2.836c-1.183-2.83-2.82-5.412-4.505-7.947
		c-0.813-1.225-1.883-2.295-2.956-3.352c-1.388-1.369-2.938-2.484-4.511-3.588c-0.669-0.469-1.46-0.762-2.171-1.178
		c-0.869-0.508-1.725-1.043-2.565-1.598c-1.615-1.07-3.3-2.027-4.721-3.383c-1.77-1.691-3.695-3.225-5.402-4.973
		c-0.955-0.977-1.657-2.219-2.384-3.398c-1.386-2.248-2.76-4.498-4.341-6.625c-1.217-1.637-2.78-2.857-4.471-3.871
		c-0.822-0.492-1.739-1.008-2.822-1.059c-0.983-0.047-1.582-0.76-1.494-1.475c0.089-0.719,0.409-1.035,1.093-0.932
		c1.828,0.275,3.513,0.846,4.83,2.268c0.402,0.434,1.011,0.682,1.536,0.996c0.815,0.488,1.654,0.938,2.121,1.838
		c0.102,0.195,0.319,0.334,0.488,0.492c0.145,0.137,0.372,0.238,0.435,0.402c0.476,1.26,1.492,2.176,2.103,3.35
		c0.18,0.346,0.444,0.646,0.669,0.969c1.105,1.586,2.161,3.209,3.329,4.746c1.513,1.994,3.22,3.793,5.375,5.145
		c1.121,0.703,2.096,1.637,3.178,2.408c1.503,1.072,3.022,2.127,4.578,3.119c1.075,0.686,2.243,1.227,3.333,1.891
		c0.429,0.262,0.729,0.729,1.142,1.025c2.582,1.855,4.574,4.281,6.402,6.822c1.286,1.787,2.277,3.779,3.133,5.824
		c0.474,1.133,0.964,2.26,1.444,3.391C287.229,461.527,287.324,461.781,287.47,462.152z"/>
	<path fill-rule="evenodd" clip-rule="evenodd" d="M231.291,375.437c-1.329-0.695-1.353-1.557-0.195-2.397
		c0.656-0.476,1.27-1.059,1.76-1.703c1.58-2.073,2.591-4.463,3.461-6.888c0.517-1.442,0.708-3.001,1.043-4.508
		c0.008-0.038-0.011-0.083,0.002-0.118c0.93-2.479,1.254-5.146,2.424-7.559c0.516-1.065,0.786-2.248,1.191-3.369
		c0.283-0.784,0.554-1.58,0.925-2.324c0.4-0.802,0.874-1.574,1.379-2.315c1.376-2.018,2.948-3.853,4.734-5.545
		c1.656-1.569,3.252-3.179,5.096-4.541c0.411-0.304,0.71-0.383,1.284-0.344c0.149,0.406,0.317,0.862,0.487,1.322
		c0.181,0.028,0.488-0.01,0.59,0.117c0.094,0.116,0.033,0.457-0.079,0.614c-0.154,0.218-0.395,0.453-0.641,0.516
		c-1.548,0.396-2.507,1.588-3.559,2.625c-1.658,1.633-3.275,3.31-4.849,5.024c-0.869,0.946-1.658,1.944-2.108,3.221
		c-0.549,1.557-1.437,2.994-1.979,4.552c-0.461,1.325-1.177,2.563-1.236,4.055c-0.036,0.914-0.576,1.801-0.837,2.716
		c-0.25,0.874-0.415,1.771-0.647,2.649c-0.426,1.611-0.846,3.225-1.326,4.82c-0.274,0.91-0.586,1.824-1.018,2.667
		c-0.554,1.083-1.232,2.104-1.881,3.136c-0.334,0.533-0.708,1.043-1.086,1.546C233.493,374.381,232.466,374.946,231.291,375.437z"/>
	<path fill-rule="evenodd" clip-rule="evenodd" d="M284.962,386.087c-0.597,0.341-1.23,0.348-1.837,0.104
		c-1.353-0.542-2.694-1.113-4.026-1.705c-1.845-0.82-3.665-1.695-5.52-2.491c-0.574-0.246-1.222-0.335-1.845-0.451
		c-1.871-0.348-3.776-0.562-5.611-1.044c-1.471-0.386-2.942-0.439-4.389-0.289c-1.765,0.183-3.548,0.305-5.283,0.815
		c-2.536,0.747-5.119,1.331-7.577,2.332c-0.478,0.194-0.955,0.149-1.285-0.277c-0.361-0.466-0.289-1.337,0.163-1.753
		c0.705-0.649,1.479-1.222,2.447-1.41c3.274-0.637,6.537-1.35,9.833-1.847c2.164-0.327,4.364-0.135,6.552,0.126
		c3.135,0.375,6.135,1.339,9.209,1.971c0.231,0.047,0.463,0.136,0.668,0.252c1.397,0.792,2.771,1.629,4.188,2.383
		c0.616,0.328,1.317,0.499,1.981,0.736c0.263,0.094,0.529,0.175,0.793,0.266C284.454,384.16,285.21,384.719,284.962,386.087z"/>
	<path fill-rule="evenodd" clip-rule="evenodd" d="M219.796,383.907c1.422-0.279,2.855-0.757,4.299-0.79
		c1.445-0.033,2.959,0.192,4.338,0.633c2.8,0.895,5.082,2.529,6.765,5.059c0.819,1.23,1.865,2.325,2.571,3.653
		c1.381,2.6,2.617,5.26,3.369,8.12c0.455,1.727,0.828,3.477,1.319,5.193c0.19,0.668,0.519,1.336,0.938,1.887
		c0.538,0.703,0.613,1.404,0.459,2.225c-0.087,0.461-0.354,0.789-0.728,0.826c-0.264,0.027-0.658-0.24-0.832-0.49
		c-0.939-1.344-1.72-2.783-2.126-4.383c-0.46-1.811-0.768-3.662-1.303-5.447c-0.421-1.406-1.069-2.746-1.647-4.103
		c-0.373-0.876-0.754-1.754-1.213-2.587c-1.289-2.335-3.081-4.286-5.018-6.07c-1.304-1.201-3.012-1.764-4.785-1.904
		c-1.31-0.104-2.633-0.054-3.949-0.038c-0.351,0.004-0.726,0.079-1.044,0.221c-0.464,0.207-0.864,0.366-1.302-0.057
		c-0.465-0.45-0.566-0.938-0.289-1.514C219.652,384.269,219.679,384.193,219.796,383.907z"/>
	<path fill-rule="evenodd" clip-rule="evenodd" d="M223.924,394.176c-0.691,1.849-1.159,3.554-1.951,5.091
		c-0.84,1.635-2.157,2.961-3.843,3.781c-0.583,0.285-1.335,0.203-1.964,0.42c-1.846,0.641-3.695,0.148-5.542,0.104
		c-0.693-0.018-1.197-0.559-1.194-1.193c0.002-0.613,0.559-1.137,1.282-1.145c1.114-0.012,2.229-0.02,3.342,0.027
		c2.682,0.115,4.747-0.846,5.874-3.381c0.482-1.083,0.862-2.215,1.238-3.342c0.26-0.777,0.339-0.845,1.172-0.644
		C222.781,394.002,223.238,394.057,223.924,394.176z"/>
	<path fill-rule="evenodd" clip-rule="evenodd" d="M212.8,448.816c1.018-0.059,1.544,0.15,1.776,0.801
		c0.229,0.641,0.101,1.266-0.391,1.748c-0.166,0.162-0.489,0.314-0.688,0.266c-0.941-0.236-1.415-1.453-0.949-2.316
		C212.639,449.145,212.722,448.973,212.8,448.816z"/>
	<path fill-rule="evenodd" clip-rule="evenodd" d="M249.153,467.635c-0.608-0.453-1.132-0.844-1.742-1.301
		c0.183-0.58,0.354-1.125,0.505-1.605c0.924-0.236,1.565,0.057,1.894,0.752C250.188,466.285,249.562,466.869,249.153,467.635z"/>
	<path fill-rule="evenodd" clip-rule="evenodd" d="M237.354,458.629c-0.158,0.771-1.078,0.742-1.653,1.191
		c-0.672-0.461-0.711-1.088-0.628-1.781c0.102-0.854,0.991-0.74,1.341-1.229C236.707,457.377,236.974,457.895,237.354,458.629z"/>
	<path fill-rule="evenodd" clip-rule="evenodd" d="M232.056,471.793c-0.262-0.547-0.534-1.029-0.729-1.541
		c-0.274-0.721,0.113-1.197,1.155-1.49c0.07,0.029,0.158,0.041,0.213,0.09c1.1,0.982,1.104,1.375,0.036,2.449
		c-0.113,0.113-0.22,0.232-0.34,0.336C232.334,471.686,232.252,471.703,232.056,471.793z"/>
	<path fill-rule="evenodd" clip-rule="evenodd" d="M225.261,460.063c0.654,0.016,1.08,0.408,1.084,0.994
		c0.007,0.965-0.304,1.381-1.01,1.35c-0.795-0.035-1.365-0.611-1.346-1.361C224.002,460.49,224.58,460.045,225.261,460.063z"/>
	<path fill-rule="evenodd" clip-rule="evenodd" d="M224.616,450.273c0.392,0.053,0.659,0.088,1.047,0.139
		c-0.105-0.254-0.17-0.41-0.26-0.627c0.204-0.012,0.498-0.1,0.552-0.021c0.297,0.432,0.692,0.887,0.743,1.367
		c0.042,0.393-0.265,0.92-0.577,1.221c-0.271,0.262-0.625,0.01-0.869-0.324c-0.153-0.209-0.444-0.318-0.712-0.5
		C224.563,451.143,224.586,450.76,224.616,450.273z"/>
	<path fill-rule="evenodd" clip-rule="evenodd" d="M209.617,457.846c-1.013-0.637-1.299-1.084-1.079-1.717
		c0.133-0.383,0.317-0.723,0.832-0.676c0.308,0.027,1.191,0.766,1.247,1.16C210.724,457.379,210.124,457.586,209.617,457.846z"/>
	<path fill-rule="evenodd" clip-rule="evenodd" d="M215.747,463.018c1.214-0.391,1.478-0.328,2.03,0.379
		c0.273,0.352,0.247,0.604-0.074,0.898c-0.336,0.309-1.385,0.51-1.743,0.248c-0.134-0.098-0.236-0.316-0.25-0.488
		C215.685,463.715,215.73,463.369,215.747,463.018z"/>
	<path fill-rule="evenodd" clip-rule="evenodd" d="M223.686,429.729c0.008,0.273,0.051,0.551,0.016,0.818
		c-0.079,0.605-0.427,0.781-0.988,0.574c0.006-0.904,0.166-1.113,1.008-1.352C223.721,429.768,223.686,429.729,223.686,429.729z"/>
	<path fill-rule="evenodd" clip-rule="evenodd" d="M200.636,419.197c-0.16-0.551-0.292-1.02,0.369-1.094
		c0.19-0.021,0.578,0.244,0.593,0.404C201.653,419.113,201.196,419.176,200.636,419.197z"/>
	<path fill-rule="evenodd" clip-rule="evenodd" d="M207.068,421.17c-0.264-0.6-0.126-1.014,0.415-1.182
		c0.134-0.041,0.548,0.287,0.548,0.445C208.031,421.045,207.589,421.162,207.068,421.17z"/>
	<path fill-rule="evenodd" clip-rule="evenodd" d="M209.728,421.012c0.396,0.475,0.563,0.869-0.018,1.129
		c-0.188,0.084-0.652-0.008-0.705-0.137C208.76,421.412,209.349,421.334,209.728,421.012z"/>
	<path fill-rule="evenodd" clip-rule="evenodd" d="M205.874,418.83c0.401,0.973,0.299,1.086-0.754,0.959
		C204.942,419.172,205.445,419.072,205.874,418.83z"/>
	<path fill-rule="evenodd" clip-rule="evenodd" d="M214.947,426.58c-0.468-0.938-0.426-1.039,0.501-1.303
		C215.81,425.869,215.491,426.221,214.947,426.58z"/>
	<path fill-rule="evenodd" clip-rule="evenodd" d="M216.928,428.49c-0.415,0.533-0.632,0.813-0.853,1.096
		c-0.549-0.369-0.573-0.764-0.244-1.072C215.977,428.379,216.355,428.49,216.928,428.49z"/>
	<path fill-rule="evenodd" clip-rule="evenodd" d="M219.714,435.822c-0.41-0.48-0.37-0.771,0.022-1.012
		c0.364-0.223,0.664-0.189,0.938,0.281C220.365,435.326,220.067,435.553,219.714,435.822z"/>
	<path fill-rule="evenodd" clip-rule="evenodd" d="M211.649,423.75c-0.269-0.529-0.188-0.914,0.286-1.117
		c0.118-0.051,0.482,0.143,0.511,0.273C212.564,423.441,212.224,423.66,211.649,423.75z"/>
	<path fill-rule="evenodd" clip-rule="evenodd" d="M217.063,431.744c-0.023-0.682,0.049-1.109,0.792-0.955
		C217.75,431.537,217.75,431.537,217.063,431.744z"/>
	<path fill-rule="evenodd" clip-rule="evenodd" d="M222.582,432.826c-0.25,0.348-0.444,0.621-0.693,0.967
		C221.46,432.82,221.517,432.742,222.582,432.826z"/>
	<path fill-rule="evenodd" clip-rule="evenodd" d="M203.722,418.32c-0.221,0.379-0.361,0.619-0.501,0.859
		c-0.156-0.088-0.261-0.111-0.274-0.16C202.831,418.58,202.881,418.252,203.722,418.32z"/>
	<path fill-rule="evenodd" clip-rule="evenodd" fill="#FFFFFF" d="M262.609,416.521c-0.245-0.281-0.396-0.949-0.943-0.266
		c-0.695-0.268-1.431-0.463-2.078-0.818c-1.162-0.639-2.27-1.373-3.409-2.074c0.097-0.082,0.23-0.197,0.462-0.396
		c-0.236-0.217-0.431-0.455-0.68-0.604c-0.211-0.125-0.485-0.148-0.373,0.27c-0.132-0.08-0.265-0.158-0.397-0.238
		c0.018-0.086,0.035-0.174,0.053-0.262c0.451,0,0.904-0.018,1.354,0.004c1.927,0.086,3.259-0.941,4.292-2.395
		c1.099-1.549,1.163-3.32,0.845-5.129c-0.021-0.117-0.03-0.238-0.028-0.357c0.029-1.977-0.4-3.787-2.184-5.32
		c1.118-0.029,1.889-0.102,2.747,0.223c0.948,0.359,2.025,0.365,3.038,0.563c1.401,0.273,2.502,1.139,3.332,2.186
		c0.877,1.107,1.456,2.434,1.79,3.854c0.604,2.578,0.186,4.988-1.269,7.139c-0.831,1.229-1.998,2.115-3.6,2.41
		C264.539,415.496,263.595,416.1,262.609,416.521z"/>
	<path fill-rule="evenodd" clip-rule="evenodd" fill="#6D6E71" d="M269.756,415.783c0.587-0.738,1.318-1.406,1.738-2.23
		c1.625-3.197,1.935-6.494,0.516-9.881c-0.351-0.838-0.65-1.674-1.24-2.398c-1.598-1.967-3.283-3.711-6.048-3.93
		c-1.537-0.123-3.053-0.492-4.577-0.759c-0.047-0.008-0.077-0.115-0.136-0.212c0.095-0.048,0.191-0.14,0.278-0.132
		c1.859,0.156,3.732,0.23,5.572,0.515c1.788,0.276,3.64,0.327,5.282,1.301c1.954,1.158,3.288,2.814,4.136,4.881
		c0.453,1.102,0.862,2.227,1.207,3.367c0.744,2.461,0.455,4.877-0.447,7.244c-0.313,0.822-0.959,1.336-1.779,1.438
		c-1.106,0.135-2.018,0.787-3.093,0.982C270.528,416.082,270.538,416.137,269.756,415.783z"/>
	<path fill-rule="evenodd" clip-rule="evenodd" d="M255.701,409.371c-0.339-0.27-0.585-0.611-0.891-0.676
		c-0.685-0.146-0.981-0.58-1.2-1.17c-0.799-2.148-0.826-4.227,0.345-6.287c0.417-0.734,0.962-0.998,1.731-1.002
		c0.397-0.002,0.796,0.01,1.191-0.021c0.979-0.08,1.566,0.195,1.933,1.133c0.284,0.727,0.495,1.506,0.581,2.277
		c0.127,1.143,0.191,2.303,0.146,3.449c-0.064,1.637-1.029,2.367-2.674,2.209C256.465,409.244,256.052,409.342,255.701,409.371z"/>
	<path fill-rule="evenodd" clip-rule="evenodd" fill="#FFFFFF" d="M250.687,406.268c-0.046-0.07-0.118-0.18-0.231-0.352
		c-0.19,0.107-0.417,0.234-0.677,0.381c-0.011-0.014-0.057-0.063-0.086-0.117c-0.705-1.357-1.041-2.83-1.148-4.328
		c-0.12-1.656-0.164-3.332-0.057-4.987c0.05-0.779,0.527-1.53,0.836-2.36c0.201,0.107,0.39,0.144,0.453,0.253
		c0.72,1.256,2.022,1.541,3.238,1.976c0.878,0.314,1.752,0.64,2.648,0.968c-0.72,0.23-1.549,0.25-1.958,0.674
		c-0.965,1.002-2.16,1.904-2.38,3.441C251.114,403.293,250.902,404.768,250.687,406.268z"/>
	<path fill-rule="evenodd" clip-rule="evenodd" fill="#6D6E71" d="M264.07,419.74c0.363-0.676,0.862-0.574,1.323-0.568
		c0.677,0.008,1.356,0.068,2.029,0.029c0.828-0.047,1.672,0.098,2.428-0.541c0.342-0.289,1.004-0.166,1.485-0.332
		c1.046-0.363,2.044-0.859,3.204-0.814c0.281,0.01,0.563-0.277,0.863-0.361c0.194-0.055,0.422,0.012,0.834,0.033
		c-0.778,1.49-1.479,2.768-3.009,3.408c-0.928,0.389-1.835,0.553-2.834,0.432c-0.653-0.08-1.33,0.047-1.987-0.018
		c-1.084-0.104-2.123-0.365-3.063-0.986C265.02,419.809,264.54,419.836,264.07,419.74z"/>
</g>
<g>
	<g enable-background="new    ">
		<g>
			<defs>
				<rect id="SVGID_1_" x="140.193" y="455.808" width="289.287" height="133.991"/>
			</defs>
			<clipPath id="SVGID_2_">
				<use xlink:href="#SVGID_1_"  overflow="visible"/>
			</clipPath>
			<path clip-path="url(#SVGID_2_)" fill="none" stroke="#010101" stroke-width="20" stroke-miterlimit="10" d="M175.813,557.273
				c-0.636,2.951-1.477,5.131-2.524,6.545c-1.046,1.41-1.967,2.117-2.76,2.117s-1.396-0.096-1.809-0.285
				c-1.237-0.636-1.856-1.604-1.856-2.903c0-3.238,3.173-5.997,9.52-8.282L175.813,557.273z M170.862,533.569l6.996-33.13h-14.041
				l-6.616,31.272c-0.508,2.412-0.762,4.539-0.762,6.378c0,4.092,1,7.062,2.998,8.9c2.031,1.842,4.506,2.762,7.426,2.762
				c4.441,0,8.345-1.809,11.709-5.427l-1.19,5.234c-10.599,3.524-15.897,8.252-15.897,14.187c0,3.427,1.063,5.918,3.189,7.473
				c2.126,1.554,4.951,2.333,8.473,2.333s6.648-1.018,9.376-3.047c3.713-2.761,6.189-7.268,7.426-13.518l1.475-7.044
				c1.492-0.384,3.046-0.937,4.666-1.668c5.901-2.663,10.091-8.186,12.565-16.563h-4.094c-1.396,4.284-3.055,7.435-4.974,9.449
				s-4.354,3.515-7.306,4.497l9.663-45.219h-14.042l-6.806,31.892c-0.731,2.254-1.731,4.157-3,5.711
				c-1.301,1.524-2.88,2.286-4.736,2.286s-2.785-1.431-2.785-4.283C170.576,535.219,170.672,534.394,170.862,533.569z"/>
			<path clip-path="url(#SVGID_2_)" fill="none" stroke="#010101" stroke-width="20" stroke-miterlimit="10" d="M253.778,531.712
				c-1.618,5.744-4.252,8.616-7.901,8.616c-2.665,0-3.998-1.111-3.998-3.333c0-1.174,0.142-2.316,0.428-3.426l6.997-33.13h-14.041
				l-6.616,31.272c-1.778,5.744-4.38,8.616-7.807,8.616c-1.936,0-2.903-1.333-2.903-3.998c0-0.825,0.095-1.745,0.285-2.761
				l6.998-33.13h-14.042l-6.616,31.272c-0.507,2.412-0.761,4.539-0.761,6.378c0,4.094,0.999,7.062,2.999,8.9
				c2.03,1.842,4.505,2.762,7.426,2.762c5.806,0,10.614-3.078,14.422-9.234c0.633,6.156,3.855,9.234,9.662,9.234
				c8.916,0,15.437-6.013,19.563-18.04H253.778z"/>
			<path clip-path="url(#SVGID_2_)" fill="none" stroke="#010101" stroke-width="20" stroke-miterlimit="10" d="M291.666,531.094
				l2.332-9.426c1.079-4.252,1.619-8.058,1.619-11.423c0-3.362-1.032-5.902-3.093-7.616c-2.063-1.712-4.65-2.569-7.759-2.569
				c-4.412,0-8.204,1.809-11.377,5.426l1.047-5.046h-14.041l-10.329,48.741h14.042l6.617-31.271c0.348-1.237,0.792-2.38,1.332-3.427
				c1.84-3.714,3.935-5.57,6.284-5.57c2.348,0,3.522,1.666,3.522,4.998c0,2.222-0.73,6.252-2.19,12.09
				c-1.46,5.84-2.189,10.091-2.189,12.758c0,4.981,2.031,8.329,6.093,10.043c1.459,0.634,2.935,0.951,4.426,0.951
				s2.745-0.064,3.76-0.19c6.441-0.952,11.551-6.902,15.327-17.85h-4.093c-1.143,2.952-2.301,5.125-3.476,6.522
				c-1.174,1.395-2.855,2.094-5.045,2.094c-2.38,0-3.569-1.397-3.569-4.189C290.905,534.837,291.159,533.156,291.666,531.094z"/>
			<path clip-path="url(#SVGID_2_)" fill="none" stroke="#010101" stroke-width="20" stroke-miterlimit="10" d="M327.009,519.574
				c-2.84,3.236-6.134,4.982-9.877,5.236c0.984-5.046,2.586-9.64,4.809-13.78c2.219-4.141,4.521-6.242,6.9-6.307
				c1.618,0,2.428,1.174,2.428,3.522C331.269,512.562,329.847,516.338,327.009,519.574z M340.406,531.712
				c-2.854,3.237-5.561,5.689-8.113,7.355c-2.557,1.664-5.706,2.497-9.449,2.497c-2.127,0-3.777-0.53-4.951-1.594
				s-1.76-3.261-1.76-6.592c0-0.763,0.079-2.063,0.237-3.903c5.998-0.382,11.232-2.516,15.707-6.403
				c4.476-3.886,6.713-8.605,6.713-14.16c0-2.823-0.81-5.085-2.428-6.782c-1.62-1.697-4.682-2.547-9.188-2.547
				c-2.76,0-5.427,0.603-7.997,1.81c-4.982,2.253-8.917,6.028-11.804,11.327c-3.776,6.95-5.665,14.138-5.665,21.563
				c0,5.522,1.38,9.481,4.142,11.875c2.76,2.396,6.457,3.595,11.09,3.595c10.566,0,19.498-6.013,26.799-18.04H340.406z"/>
			<path clip-path="url(#SVGID_2_)" fill="none" stroke="#010101" stroke-width="20" stroke-miterlimit="10" d="M366.444,531.712
				c-0.699,2.443-1.865,4.491-3.499,6.141c-1.635,1.649-3.404,2.476-5.308,2.476c-2.634,0-3.95-1.095-3.95-3.286
				c0-1.142,0.126-2.299,0.382-3.473l6.233-29.227h5.855l0.761-3.903h-5.854l3.331-15.421l-14.421,1.951l-2.952,13.47h-3.189
				l-0.809,3.903h3.236l-5.855,27.369c-0.507,2.412-0.76,4.539-0.76,6.378c0,4.094,0.998,7.062,2.997,8.9
				c2.031,1.842,4.332,2.762,6.902,2.762c9.806,0,16.802-6.013,20.991-18.04H366.444z"/>
			<path clip-path="url(#SVGID_2_)" fill="none" stroke="#010101" stroke-width="20" stroke-miterlimit="10" d="M392.575,531.712
				c-0.603,2.666-1.697,4.768-3.284,6.307s-3.349,2.31-5.282,2.31c-1.049,0-1.923-0.349-2.619-1.047
				c-1.207-1.143-1.809-3.157-1.809-6.046c0-1.491,0.078-2.902,0.238-4.236c1.047-8.726,3.633-15.422,7.758-20.087
				c1.714-1.936,3.476-2.903,5.284-2.903c1.808,0,2.989,0.469,3.546,1.405c0.555,0.935,0.831,1.705,0.831,2.308L392.575,531.712z
				 M395.716,547.396c1.649,1.57,3.77,2.355,6.355,2.355s4.72-0.92,6.401-2.762c0.952-1.078,2.111-3.442,3.474-7.092
				c-0.569,0.285-1.284,0.43-2.14,0.43c-2.665,0-4-1.111-4-3.333c0-1.174,0.145-2.316,0.428-3.426l6.999-33.13H399.19l-1.047,5.188
				v-0.714c0-1.428-0.617-2.609-1.856-3.546c-1.236-0.936-3.253-1.404-6.043-1.404c-5.332,0-9.887,1.825-13.663,5.474
				c-3.774,3.649-6.68,8.267-8.709,13.852c-0.921,2.539-1.604,5.085-2.048,7.64c-0.443,2.555-0.665,5.108-0.665,7.663
				s0.365,4.831,1.093,6.829c2.031,5.555,5.935,8.331,11.711,8.331c5.774,0,10.678-3.014,14.707-9.043
				C393.051,543.596,394.066,545.826,395.716,547.396z"/>
		</g>
	</g>
	<g enable-background="new    ">
		<g>
			<defs>
				<rect id="SVGID_3_" x="156.391" y="463.344" width="256.794" height="109.618"/>
			</defs>
			<clipPath id="SVGID_4_">
				<use xlink:href="#SVGID_3_"  overflow="visible"/>
			</clipPath>
			<g clip-path="url(#SVGID_4_)">
				<path fill="#FFFFFF" d="M170.527,535.456c0,2.855,0.928,4.283,2.785,4.283s3.435-0.762,4.736-2.284
					c1.269-1.555,2.269-3.459,2.999-5.712l6.807-31.892h14.042l-9.663,45.219c2.951-0.983,5.386-2.482,7.306-4.498
					c1.92-2.015,3.578-5.164,4.974-9.448h4.094c-2.475,8.378-6.664,13.898-12.566,16.564c-1.618,0.73-3.173,1.285-4.665,1.666
					l-1.476,7.044c-1.237,6.252-3.712,10.758-7.425,13.519c-2.729,2.03-5.854,3.046-9.377,3.046c-3.522,0-6.347-0.777-8.472-2.332
					c-2.126-1.555-3.189-4.046-3.189-7.473c0-5.935,5.299-10.662,15.898-14.185l1.19-5.236c-3.364,3.618-7.267,5.427-11.709,5.427
					c-2.92,0-5.395-0.92-7.425-2.761c-2-1.84-2.999-4.808-2.999-8.901c0-1.84,0.254-3.966,0.762-6.378l6.616-31.272h14.042
					l-6.997,33.129C170.623,533.806,170.527,534.631,170.527,535.456z M176.334,553.876c-6.347,2.285-9.52,5.046-9.52,8.282
					c0,1.301,0.619,2.269,1.856,2.903c0.412,0.19,1.015,0.286,1.809,0.286c0.793,0,1.713-0.707,2.761-2.118
					c1.047-1.412,1.888-3.594,2.522-6.545L176.334,553.876z"/>
				<path fill="#FFFFFF" d="M257.823,531.124c-4.125,12.027-10.646,18.04-19.563,18.04c-5.807,0-9.028-3.078-9.662-9.234
					c-3.808,6.156-8.615,9.234-14.422,9.234c-2.92,0-5.395-0.92-7.425-2.761c-2-1.84-2.999-4.808-2.999-8.901
					c0-1.84,0.254-3.966,0.762-6.378l6.616-31.272h14.042l-6.997,33.129c-0.19,1.016-0.286,1.936-0.286,2.761
					c0,2.665,0.968,3.998,2.904,3.998c3.427,0,6.028-2.871,7.806-8.615l6.616-31.272h14.042l-6.997,33.129
					c-0.286,1.111-0.428,2.254-0.428,3.427c0,2.222,1.333,3.332,3.998,3.332c3.649,0,6.283-2.871,7.901-8.615H257.823z"/>
				<path fill="#FFFFFF" d="M290.856,535.551c0,2.793,1.19,4.188,3.57,4.188c2.189,0,3.871-0.697,5.045-2.094
					c1.173-1.396,2.332-3.57,3.475-6.521h4.093c-3.776,10.948-8.885,16.897-15.326,17.85c-1.016,0.126-2.269,0.19-3.76,0.19
					c-1.492,0-2.967-0.317-4.427-0.952c-4.062-1.714-6.092-5.061-6.092-10.043c0-2.666,0.729-6.918,2.189-12.757
					c1.459-5.838,2.189-9.868,2.189-12.09c0-3.332-1.174-4.998-3.522-4.998c-2.349,0-4.443,1.856-6.283,5.569
					c-0.54,1.047-0.984,2.189-1.333,3.427l-6.616,31.272h-14.042l10.329-48.741h14.042l-1.047,5.046
					c3.173-3.617,6.965-5.426,11.376-5.426c3.11,0,5.696,0.856,7.759,2.57c2.063,1.713,3.094,4.252,3.094,7.615
					c0,3.364-0.54,7.172-1.618,11.424l-2.333,9.425C291.11,532.568,290.856,534.25,290.856,535.551z"/>
				<path fill="#FFFFFF" d="M343.69,531.124c-7.299,12.027-16.23,18.04-26.798,18.04c-4.634,0-8.33-1.197-11.09-3.594
					c-2.761-2.396-4.141-6.354-4.141-11.876c0-7.425,1.888-14.612,5.664-21.562c2.888-5.3,6.822-9.075,11.805-11.329
					c2.57-1.205,5.235-1.809,7.996-1.809c4.506,0,7.568,0.85,9.187,2.547s2.428,3.959,2.428,6.782
					c0,5.554-2.237,10.274-6.711,14.161c-4.475,3.887-9.711,6.021-15.708,6.401c-0.159,1.841-0.238,3.142-0.238,3.903
					c0,3.332,0.587,5.529,1.762,6.593c1.174,1.063,2.824,1.594,4.95,1.594c3.744,0,6.894-0.832,9.448-2.498
					c2.554-1.666,5.26-4.117,8.115-7.354H343.69z M331.22,507.658c0-2.348-0.81-3.522-2.428-3.522
					c-2.38,0.064-4.681,2.166-6.901,6.307c-2.222,4.142-3.824,8.734-4.808,13.78c3.744-0.254,7.036-1.999,9.877-5.236
					C329.799,515.75,331.22,511.974,331.22,507.658z"/>
				<path fill="#FFFFFF" d="M370.488,531.124c-4.188,12.027-11.186,18.04-20.991,18.04c-2.57,0-4.871-0.92-6.901-2.761
					c-1.999-1.84-2.999-4.808-2.999-8.901c0-1.84,0.255-3.966,0.762-6.378l5.854-27.369h-3.236l0.809-3.903h3.189l2.951-13.47
					l14.422-1.952l-3.331,15.422h5.854l-0.762,3.903h-5.854l-6.235,29.226c-0.255,1.175-0.381,2.332-0.381,3.475
					c0,2.189,1.316,3.284,3.95,3.284c1.904,0,3.673-0.824,5.308-2.475c1.634-1.649,2.8-3.696,3.498-6.141H370.488z"/>
				<path fill="#FFFFFF" d="M392.621,540.12c-4.03,6.029-8.933,9.044-14.708,9.044s-9.679-2.776-11.709-8.33
					c-0.729-1.999-1.095-4.275-1.095-6.83c0-2.554,0.223-5.108,0.666-7.663c0.445-2.555,1.126-5.101,2.047-7.64
					c2.03-5.585,4.935-10.202,8.711-13.852c3.775-3.648,8.329-5.474,13.66-5.474c2.792,0,4.808,0.469,6.045,1.404
					c1.238,0.937,1.856,2.118,1.856,3.546v0.714l1.048-5.188h14.041l-6.997,33.129c-0.285,1.111-0.428,2.254-0.428,3.427
					c0,2.222,1.332,3.332,3.998,3.332c0.856,0,1.57-0.143,2.142-0.428c-1.364,3.649-2.522,6.014-3.475,7.092
					c-1.683,1.841-3.816,2.761-6.402,2.761s-4.704-0.785-6.354-2.356C394.018,545.237,393.002,543.008,392.621,540.12z
					 M397.19,509.134c0-0.603-0.278-1.372-0.833-2.309c-0.556-0.936-1.737-1.404-3.546-1.404s-3.569,0.969-5.283,2.903
					c-4.126,4.665-6.712,11.36-7.759,20.087c-0.159,1.333-0.238,2.745-0.238,4.236c0,2.888,0.603,4.902,1.81,6.045
					c0.697,0.698,1.57,1.047,2.617,1.047c1.936,0,3.696-0.769,5.284-2.309c1.586-1.538,2.681-3.641,3.284-6.307L397.19,509.134z"/>
			</g>
		</g>
	</g>
</g>
<g>
</g>
<g>
</g>
<g>
</g>
<g>
</g>
<g>
</g>
<g>
</g>
</svg>
